<?xml version="1.0" standalone="no"?>
<!DOCTYPE svg PUBLIC "-//W3C//DTD SVG 1.1//EN" "http://www.w3.org/Graphics/SVG/1.1/DTD/svg11.dtd" >
<svg>
<metadata>
Created by FontForge 20120731 at Mon Nov  3 04:34:28 2014
 By Orthosie Webhosting
Copyright (c) 2012 by Manuel Eduardo Corradine - Sergio Rami'rez. All rights reserved.
</metadata>
<defs>
<font id="NeuronExtraLightRegular" horiz-adv-x="460" >
  <font-face 
    font-family="NeuronExtraLightRegular"
    font-weight="400"
    font-stretch="normal"
    units-per-em="1000"
    panose-1="4 0 0 0 3 0 0 0 0 0"
    ascent="800"
    descent="-200"
    x-height="490"
    cap-height="610"
    bbox="-55 -231 850 837"
    underline-thickness="39"
    underline-position="-40"
    unicode-range="U+000D-2212"
  />
<missing-glyph horiz-adv-x="459" 
 />
    <glyph glyph-name=".notdef" horiz-adv-x="459" 
 />
    <glyph glyph-name=".null" horiz-adv-x="0" 
 />
    <glyph glyph-name="nonmarkingreturn" horiz-adv-x="333" 
 />
    <glyph glyph-name="CR" unicode="&#xd;" horiz-adv-x="424" 
 />
    <glyph glyph-name="space" unicode=" " horiz-adv-x="195" 
 />
    <glyph glyph-name="exclam" unicode="!" horiz-adv-x="192" 
d="M96 0q-18 0 -24 4t-6 16v26q0 12 6 16t24 4t24 -4t6 -16v-26q0 -12 -6 -16t-24 -4zM96 130q-14 0 -18 4t-4 16q0 79 -2.5 220.5t-2.5 219.5q0 12 5.5 16t21.5 4t21.5 -4t5.5 -16q0 -78 -2.5 -219.5t-2.5 -220.5q0 -12 -4 -16t-18 -4z" />
    <glyph glyph-name="quotedbl" unicode="&#x22;" horiz-adv-x="208" 
d="M54 434q-10 0 -13 2.5t-4 12.5q-10 100 -10 141q0 12 5 16t22 4t22 -4t5 -16q0 -41 -10 -141q-1 -10 -4 -12.5t-13 -2.5zM154 434q-10 0 -13 2.5t-4 12.5q-10 100 -10 141q0 12 5 16t22 4t22 -4t5 -16q0 -41 -10 -141q-1 -10 -4 -12.5t-13 -2.5z" />
    <glyph glyph-name="numbersign" unicode="#" 
d="M303 37q-16 0 -20.5 3.5t-4.5 16.5v136h-100v-136q0 -13 -4.5 -16.5t-20.5 -3.5t-20.5 3.5t-4.5 16.5v136h-76q-12 0 -16 4.5t-4 19.5t4 19.5t16 4.5h76v152h-76q-12 0 -16 4.5t-4 19.5t4 19.5t16 4.5h76v116q0 13 4.5 16.5t20.5 3.5t20.5 -3.5t4.5 -16.5v-116h100v116
q0 13 4.5 16.5t20.5 3.5t20.5 -3.5t4.5 -16.5v-116h79q12 0 16 -4.5t4 -19.5t-4 -19.5t-16 -4.5h-79v-152h79q12 0 16 -4.5t4 -19.5t-4 -19.5t-16 -4.5h-79v-136q0 -13 -4.5 -16.5t-20.5 -3.5zM178 393v-152h100v152h-100z" />
    <glyph glyph-name="dollar" unicode="$" 
d="M238 727q16 0 20.5 -3.5t4.5 -16.5v-94q60 -3 109 -18q23 -6 23 -26q0 -14 -2.5 -18t-10.5 -4q-3 0 -25 5.5t-56 10.5t-66 5q-74 0 -96 -17.5t-22 -85.5q0 -40 9.5 -58t38.5 -31l158 -70q53 -23 70 -56.5t17 -94.5q0 -85 -43 -122.5t-120 -41.5v-91q0 -13 -4.5 -16.5
t-20.5 -3.5t-20.5 3.5t-4.5 16.5v91q-75 3 -123 18q-24 8 -24 27q0 14 3 18t11 4l52 -10q53 -11 99 -11q78 0 110.5 26t32.5 87q0 47 -11 70.5t-41 36.5l-142 64q-60 27 -79.5 54.5t-19.5 89.5q0 48 11 79t33.5 45.5t46 20t57.5 5.5v92q0 13 4.5 16.5t20.5 3.5z" />
    <glyph glyph-name="percent" unicode="%" 
d="M50 0q-19 0 -19 11q0 7 6 18l335 567q8 14 31 14q19 0 19 -11q0 -7 -6 -18l-335 -567q-8 -14 -31 -14zM125 356q-65 0 -84.5 25.5t-19.5 101.5t19.5 101.5t84.5 25.5t84.5 -25.5t19.5 -101.5t-19.5 -101.5t-84.5 -25.5zM125 396q38 0 47 15.5t9 71.5t-9 71.5t-47 15.5
t-47 -15.5t-9 -71.5t9 -71.5t47 -15.5zM334 0q-65 0 -84.5 25.5t-19.5 101.5t19.5 101.5t84.5 25.5t84.5 -25.5t19.5 -101.5t-19.5 -101.5t-84.5 -25.5zM334 40q38 0 47 15.5t9 71.5t-9 71.5t-47 15.5t-47 -15.5t-9 -71.5t9 -71.5t47 -15.5z" />
    <glyph glyph-name="ampersand" unicode="&#x26;" horiz-adv-x="514" 
d="M420 410v-76h68q11 0 15.5 -4.5t4.5 -17.5t-4.5 -17.5t-15.5 -4.5h-68v-153q0 -85 -42.5 -116t-137.5 -31q-105 0 -144.5 41t-39.5 134q0 69 27 106t100 43q-56 11 -78 45t-22 98q0 92 34 125t103 33q77 0 149 -21q10 -3 13.5 -8t3.5 -17q0 -14 -3 -17.5t-11 -3.5
q-1 0 -55 10t-96 10q-50 0 -68 -21t-18 -88q0 -31 5 -50.5t20 -38t46.5 -27.5t81.5 -9h82v76q0 13 4.5 16.5t20.5 3.5t20.5 -3.5t4.5 -16.5zM238 37q74 0 103 18t29 75v160h-82q-60 0 -98 -9.5t-55 -29.5t-22 -39.5t-5 -51.5q0 -66 25.5 -94.5t104.5 -28.5z" />
    <glyph glyph-name="quotesingle" unicode="'" horiz-adv-x="108" 
d="M54 434q-10 0 -13 2.5t-4 12.5q-10 100 -10 141q0 12 5 16t22 4t22 -4t5 -16q0 -41 -10 -141q-1 -10 -4 -12.5t-13 -2.5z" />
    <glyph glyph-name="parenleft" unicode="(" horiz-adv-x="184" 
d="M104 299q0 -91 16 -173.5t32.5 -130t16.5 -54.5q0 -10 -20 -10q-19 0 -23 10q-71 166 -71 358t71 358q4 10 23 10q20 0 20 -10q0 -7 -16.5 -54.5t-32.5 -130t-16 -173.5z" />
    <glyph glyph-name="parenright" unicode=")" horiz-adv-x="184" 
d="M80 299q0 91 -16 173.5t-32.5 130t-16.5 54.5q0 10 20 10q19 0 23 -10q71 -166 71 -358t-71 -358q-4 -10 -23 -10q-20 0 -20 10q0 7 16.5 54.5t32.5 130t16 173.5z" />
    <glyph glyph-name="asterisk" unicode="*" horiz-adv-x="380" 
d="M202 387q-11 16 -12 31q-1 -15 -12 -31l-60 -82q-7 -9 -12.5 -9.5t-17.5 7.5q-20 14 -9 30l60 82q11 14 29 20q-17 -5 -35 1l-89 29q-11 4 -13 9.5t2 19.5t10 17t16 0l89 -29q16 -5 28 -21q-10 16 -10 33v101q0 12 4.5 16t19.5 4t19.5 -4t4.5 -16v-101q0 -17 -11 -33
q13 16 29 21l89 29q10 3 16 0t10 -17t2 -19.5t-13 -9.5l-89 -29q-19 -6 -37 0q20 -7 31 -21l60 -82q11 -16 -9 -30q-12 -8 -17.5 -7.5t-12.5 9.5z" />
    <glyph glyph-name="plus" unicode="+" 
d="M230 98q-15 0 -19.5 4t-4.5 16v128h-118q-12 0 -16 4.5t-4 19.5t4 19.5t16 4.5h118v129q0 12 4.5 16t19.5 4t19.5 -4t4.5 -16v-129h118q12 0 16 -4.5t4 -19.5t-4 -19.5t-16 -4.5h-118v-128q0 -12 -4.5 -16t-19.5 -4z" />
    <glyph glyph-name="comma" unicode="," horiz-adv-x="138" 
d="M61 66q17 0 22 -4t5 -16v-28q0 -30 -9 -66l-18 -69q-4 -14 -23 -14q-11 0 -14.5 2t-3.5 9q0 4 7 48t7 76v42q0 12 5 16t22 4z" />
    <glyph glyph-name="hyphen" unicode="-" horiz-adv-x="309" 
d="M42 270q0 15 4 19.5t16 4.5h185q12 0 16 -4.5t4 -19.5t-4 -19.5t-16 -4.5h-185q-12 0 -16 4.5t-4 19.5z" />
    <glyph glyph-name="period" unicode="." horiz-adv-x="160" 
d="M80 0q-18 0 -24 4t-6 16v26q0 12 6 16t24 4t24 -4t6 -16v-26q0 -12 -6 -16t-24 -4z" />
    <glyph glyph-name="slash" unicode="/" horiz-adv-x="249" 
d="M45 -68q-24 0 -24 12q0 3 4 21l152 682q3 13 8.5 16.5t20.5 3.5q24 0 24 -12q0 -3 -4 -21l-152 -682q-3 -13 -8.5 -16.5t-20.5 -3.5z" />
    <glyph glyph-name="zero" unicode="0" 
d="M230 -10q-114 0 -152 49t-38 201v125q0 80 10.5 129.5t36 76t58 35.5t85.5 9q114 0 152 -49t38 -201v-125q0 -80 -10.5 -129.5t-36 -76t-58 -35.5t-85.5 -9zM230 35q87 0 113.5 40.5t26.5 174.5v105q0 138 -24 176.5t-116 38.5q-87 0 -113.5 -40.5t-26.5 -174.5v-105
q0 -138 24 -176.5t116 -38.5z" />
    <glyph glyph-name="one" unicode="1" 
d="M363 0h-261q-12 0 -16 4.5t-4 19.5t4 19.5t16 4.5h105v511l-101 -33q-11 -4 -19 -4q-11 0 -11 24q0 19 10 22l112 37q14 5 34 5q16 0 20.5 -4t4.5 -16v-542h106q12 0 16 -4.5t4 -19.5t-4 -19.5t-16 -4.5z" />
    <glyph glyph-name="two" unicode="2" 
d="M114 48h263q12 0 16 -4.5t4 -19.5t-4 -19.5t-16 -4.5h-295q-11 0 -15.5 5.5t-4.5 20.5v69q0 36 10.5 62t25 41t51.5 48l143 127q20 18 27.5 26.5t14 25t6.5 40.5q0 68 -22 85.5t-96 17.5q-32 0 -62.5 -5t-48.5 -10.5t-21 -5.5q-8 0 -10.5 4t-2.5 18q0 20 23 26
q63 20 132 20q38 0 62 -4t49 -18t37 -46t12 -82q0 -25 -3.5 -42.5t-14.5 -33.5t-18 -23.5t-30 -26.5t-33 -28l-127 -114q-20 -19 -28.5 -28t-16 -29.5t-7.5 -49.5v-42z" />
    <glyph glyph-name="three" unicode="3" 
d="M239 -10q-94 0 -159 19q-24 8 -24 27q0 14 3 18t11 4l56 -10q57 -11 103 -11q74 0 98.5 29t24.5 94q0 32 -5 51.5t-22 39t-55 28.5t-98 9q-12 0 -16 4.5t-4 19.5t4 19.5t16 4.5q96 0 132 31.5t36 91.5q0 69 -21 89t-92 20q-40 0 -88.5 -10.5t-50.5 -10.5q-8 0 -11 4
t-3 18q0 19 24 27q65 19 147 19q76 0 111.5 -33t35.5 -125q0 -121 -115 -143q73 -6 100 -43t27 -106q0 -90 -40 -132.5t-125 -42.5z" />
    <glyph glyph-name="four" unicode="4" 
d="M330 0q-16 0 -20.5 4t-4.5 16v153h-249q-12 0 -16 5t-4 20q0 17 5 26l220 362q10 16 19 20t35 4q25 0 32.5 -4t7.5 -16v-371h49q12 0 16 -4.5t4 -18.5t-4 -18.5t-16 -4.5h-49v-153q0 -12 -4.5 -16t-20.5 -4zM299 566l-206 -347h212v347h-6z" />
    <glyph glyph-name="five" unicode="5" 
d="M219 -10q-63 0 -131 20q-13 3 -18 8t-5 17q0 14 2.5 17.5t10.5 3.5q3 0 22 -5t49 -10.5t60 -5.5q84 0 109.5 24t25.5 111v32q0 78 -22.5 99t-87.5 21q-45 0 -87 -10.5t-49 -10.5q-14 0 -21 3.5t-7 17.5v268q0 12 4.5 16t20.5 4h259q12 0 16 -4.5t4 -19.5t-4 -19.5
t-16 -4.5h-234v-210q62 15 114 15q32 0 50 -1.5t42 -10.5t37 -25.5t22 -49t9 -78.5v-32q0 -58 -12.5 -95.5t-38.5 -55t-54 -23.5t-70 -6z" />
    <glyph glyph-name="six" unicode="6" 
d="M226 -10q-50 0 -78.5 7.5t-52.5 32t-33.5 73.5t-9.5 130v123q0 68 11 117t28 76t44.5 42.5t52.5 19.5t61 4q49 0 100 -11q14 -3 18.5 -7.5t4.5 -18.5q0 -13 -2.5 -17.5t-10.5 -4.5q-2 0 -43.5 7t-65.5 7q-30 0 -46.5 -2t-39 -13.5t-34 -33.5t-20 -64t-8.5 -104v-42
q33 57 148 57q86 0 121.5 -38.5t35.5 -153.5q0 -103 -43 -144.5t-138 -41.5zM226 35q72 0 101.5 25.5t29.5 112.5q0 92 -23 121t-97 29q-70 0 -102.5 -24t-32.5 -89q0 -79 14.5 -117.5t38 -48t71.5 -9.5z" />
    <glyph glyph-name="seven" unicode="7" 
d="M166 0q-23 0 -23 12q0 8 4 17l200 533h-271q-12 0 -16 4.5t-4 19.5t4 19.5t16 4.5h308q11 0 15.5 -5.5t4.5 -20.5q0 -13 -5 -26l-204 -544q-5 -14 -29 -14z" />
    <glyph glyph-name="eight" unicode="8" 
d="M230 -10q-105 0 -142.5 37.5t-37.5 142.5q0 122 71 150q-56 29 -56 139q0 33 5 58t12 41.5t21.5 27.5t25.5 16.5t31.5 8.5t33 3.5t36.5 0.5t36.5 -0.5t33 -3.5t31.5 -8.5t25.5 -16.5t21.5 -27.5t12 -41.5t5 -58q0 -110 -56 -139q71 -29 71 -150q0 -105 -37.5 -142.5
t-142.5 -37.5zM230 35q78 0 104 24t26 111q0 79 -28.5 102t-101.5 23t-101.5 -23t-28.5 -102q0 -87 26 -111t104 -24zM230 343q69 0 92 19t23 97q0 72 -22.5 91.5t-92.5 19.5t-92.5 -19.5t-22.5 -91.5q0 -78 23 -97t92 -19z" />
    <glyph glyph-name="nine" unicode="9" 
d="M201 -10q-32 0 -96 11q-14 2 -18.5 7t-4.5 19q0 13 2.5 17.5t10.5 4.5q1 0 36.5 -7t62.5 -7t41.5 1t34.5 5t30 12.5t22 24t17.5 39t9 57t3.5 78.5v39q-32 -54 -143 -54q-85 0 -118.5 38t-33.5 154q0 104 38.5 145t131.5 41q50 0 78.5 -7.5t52.5 -32t34 -73.5t10 -130
v-123q0 -60 -6.5 -104.5t-21 -72.5t-30.5 -45t-42 -25t-47 -10t-54 -2zM222 282q69 0 99.5 24t30.5 89q0 49 -4 80.5t-11.5 51t-24.5 28.5t-35 12t-50 3q-47 0 -70.5 -8.5t-36.5 -38.5t-13 -91q0 -93 20.5 -121.5t94.5 -28.5z" />
    <glyph glyph-name="colon" unicode=":" horiz-adv-x="160" 
d="M80 0q-18 0 -24 4t-6 16v26q0 12 6 16t24 4t24 -4t6 -16v-26q0 -12 -6 -16t-24 -4zM80 434q-18 0 -24 4t-6 16v26q0 12 6 16t24 4t24 -4t6 -16v-26q0 -12 -6 -16t-24 -4z" />
    <glyph glyph-name="semicolon" unicode=";" horiz-adv-x="145" 
d="M61 66q17 0 22 -4t5 -16v-28q0 -30 -9 -66l-18 -69q-4 -14 -23 -14q-11 0 -14.5 2t-3.5 9q0 4 7 48t7 76v42q0 12 5 16t22 4zM65 434q-18 0 -24 4t-6 16v26q0 12 6 16t24 4t24 -4t6 -16v-26q0 -12 -6 -16t-24 -4z" />
    <glyph glyph-name="less" unicode="&#x3c;" 
d="M113 264l214 -90q21 -8 25.5 -13.5t4.5 -22.5q0 -25 -14 -25q-7 0 -21 6l-240 106q-13 6 -16.5 15t-3.5 30q0 20 3.5 28t16.5 14l240 106q14 6 21 6q14 0 14 -25q0 -17 -4.5 -22.5t-25.5 -13.5l-214 -90v-9z" />
    <glyph glyph-name="equal" unicode="=" 
d="M87 209q0 15 4 19.5t16 4.5h245q12 0 16 -4.5t4 -19.5t-4 -19.5t-16 -4.5h-245q-12 0 -16 4.5t-4 19.5zM87 339q0 15 4 19.5t16 4.5h245q12 0 16 -4.5t4 -19.5t-4 -19.5t-16 -4.5h-245q-12 0 -16 4.5t-4 19.5z" />
    <glyph glyph-name="greater" unicode="&#x3e;" 
d="M132 174l214 90v9l-214 90q-21 8 -25.5 13.5t-4.5 22.5q0 25 14 25q8 0 21 -6l240 -106q13 -6 16.5 -14t3.5 -28q0 -21 -3.5 -30t-16.5 -15l-240 -106q-13 -6 -21 -6q-14 0 -14 25q0 17 4.5 22.5t25.5 13.5z" />
    <glyph glyph-name="question" unicode="?" horiz-adv-x="355" 
d="M149 130q-16 0 -20.5 4t-4.5 16v30q0 44 9.5 68t32.5 48l86 94q16 17 23.5 36.5t7.5 56.5q0 55 -22.5 70t-95.5 15q-32 0 -62.5 -5t-48.5 -10.5t-21 -5.5q-8 0 -10.5 4t-2.5 18q0 20 23 26q63 20 132 20q30 0 50 -2t42.5 -9.5t36 -21t22.5 -39t9 -60.5q0 -47 -12.5 -74
t-43.5 -60l-77 -82q-28 -30 -28 -87v-30q0 -12 -4.5 -16t-20.5 -4zM149 0q-18 0 -24 4t-6 16v26q0 12 6 16t24 4t24 -4t6 -16v-26q0 -12 -6 -16t-24 -4z" />
    <glyph glyph-name="at" unicode="@" horiz-adv-x="770" 
d="M357 -10q-100 0 -131 53t-31 207q0 78 11 127.5t35 76.5t55.5 36.5t79.5 9.5q96 0 129 -63v33q0 13 4.5 16.5t20.5 3.5t20.5 -3.5t4.5 -16.5v-344q0 -91 60 -91q38 0 56.5 27t18.5 114v127q0 68 -7.5 116.5t-26 81.5t-41 52.5t-60.5 30t-75 13.5t-95 3t-95 -3t-75 -13.5
t-60.5 -30t-41 -52.5t-26 -81.5t-7.5 -116.5v-117q0 -90 17 -148.5t54.5 -92t90.5 -47t133 -13.5q12 0 16 -4.5t4 -18.5t-4 -18.5t-16 -4.5q-65 0 -113 7.5t-94 29.5t-74.5 59.5t-46 100.5t-17.5 150v117q0 67 9 119t24 87.5t41.5 61t53 40t66.5 22.5t75 10t86 2t86 -2
t75 -10t66.5 -22.5t53 -40t41.5 -61t24 -87.5t9 -119v-127q0 -186 -122 -186q-44 0 -68 20t-35 63q-36 -83 -158 -83zM358 35q78 0 112.5 31.5t34.5 127.5v96q0 92 -25.5 128.5t-101.5 36.5q-55 0 -81.5 -16.5t-38 -61t-11.5 -137.5q0 -126 21 -165.5t90 -39.5z" />
    <glyph glyph-name="A" unicode="A" horiz-adv-x="502" 
d="M44 0q-24 0 -24 12q0 4 4 16l180 562q4 13 12 16.5t35 3.5t35 -3.5t12 -16.5l180 -562q4 -12 4 -16q0 -12 -24 -12q-25 0 -28 12l-60 188h-239l-59 -188q-3 -12 -28 -12zM245 562l-100 -317h211l-99 317h-12z" />
    <glyph glyph-name="B" unicode="B" horiz-adv-x="507" 
d="M260 -10q-86 0 -159 8q-19 2 -25 8t-6 19v555q0 23 25 26q76 9 143 9q47 0 71.5 -1.5t52 -9t39.5 -23t20.5 -42.5t8.5 -69q0 -61 -15 -95t-51 -49q48 -13 68 -50.5t20 -110.5q0 -101 -37.5 -138t-154.5 -37zM120 562v-216h118q88 0 113.5 21.5t25.5 102.5
q0 67 -22.5 82.5t-116.5 15.5q-73 0 -118 -6zM120 299v-256q50 -6 140 -6q93 0 116 22t23 106t-26 109t-113 25h-140z" />
    <glyph glyph-name="C" unicode="C" horiz-adv-x="450" 
d="M257 -10q-33 0 -52.5 1.5t-44 7t-38 16.5t-28.5 31.5t-22 50t-12 73t-5 100.5v65q0 78 8 129t21.5 81.5t41.5 46t56 19.5t76 4q63 0 128 -19q14 -4 19 -8.5t5 -17.5q0 -14 -2.5 -17.5t-10.5 -3.5q-3 0 -22 5.5t-49.5 10.5t-60.5 5q-44 0 -67 -4t-44.5 -16t-30 -40
t-13.5 -71t-5 -114v-45q0 -70 6 -114t15.5 -71t31 -40t44 -16.5t63.5 -3.5q32 0 62.5 5.5t48.5 10.5t21 5q8 0 10.5 -3.5t2.5 -17.5q0 -13 -5 -17.5t-19 -8.5q-65 -19 -129 -19z" />
    <glyph glyph-name="D" unicode="D" horiz-adv-x="520" 
d="M255 -10q-80 0 -153 8q-32 4 -32 27v555q0 22 25 26q66 9 145 9q46 0 74 -2.5t56.5 -12.5t44 -28.5t28 -51t17.5 -80t5 -115.5v-45q0 -67 -5.5 -115t-18.5 -80t-28 -51t-41.5 -28.5t-51.5 -12.5t-65 -3zM255 37q52 0 77 5.5t47 29.5t29 72.5t7 135.5v45q0 69 -6.5 113.5
t-17 71t-34.5 39t-48 16t-69 3.5q-60 0 -120 -6v-519q50 -6 135 -6z" />
    <glyph glyph-name="E" unicode="E" horiz-adv-x="455" 
d="M420 24q0 -15 -4 -19.5t-16 -4.5h-305q-16 0 -20.5 4t-4.5 16v570q0 12 4.5 16t20.5 4h295q12 0 16 -4.5t4 -19.5t-4 -19.5t-16 -4.5h-270v-215h220q12 0 16 -4.5t4 -18.5t-4 -18.5t-16 -4.5h-220v-253h280q12 0 16 -4.5t4 -19.5z" />
    <glyph glyph-name="F" unicode="F" horiz-adv-x="415" 
d="M95 0q-16 0 -20.5 4t-4.5 16v570q0 12 4.5 16t20.5 4h285q12 0 16 -4.5t4 -19.5t-4 -19.5t-16 -4.5h-260v-215h210q12 0 16 -4.5t4 -18.5t-4 -18.5t-16 -4.5h-210v-281q0 -12 -4.5 -16t-20.5 -4z" />
    <glyph glyph-name="G" unicode="G" horiz-adv-x="485" 
d="M242 -10q-43 0 -67 3t-51.5 18t-41 44t-23 82.5t-9.5 132.5v65q0 78 8 129t21.5 81.5t41.5 46t56 19.5t76 4q73 0 138 -19q14 -4 19 -8.5t5 -17.5q0 -14 -2.5 -17.5t-10.5 -3.5q-3 0 -24.5 5.5t-54.5 10.5t-63 5q-44 0 -67 -4t-44.5 -16t-30 -40t-13.5 -71t-5 -114v-45
q0 -69 5.5 -114t15 -71.5t30 -39.5t41 -16.5t58.5 -3.5q78 0 104 33t26 142v62h-120q-12 0 -16 4.5t-4 19.5t4 19.5t16 4.5h140q18 0 24 -4t6 -16v-90q0 -132 -40 -176t-148 -44z" />
    <glyph glyph-name="H" unicode="H" horiz-adv-x="508" 
d="M120 344h268v246q0 12 4.5 16t20.5 4t20.5 -4t4.5 -16v-570q0 -12 -4.5 -16t-20.5 -4t-20.5 4t-4.5 16v276h-268v-276q0 -12 -4.5 -16t-20.5 -4t-20.5 4t-4.5 16v570q0 12 4.5 16t20.5 4t20.5 -4t4.5 -16v-246z" />
    <glyph glyph-name="I" unicode="I" horiz-adv-x="190" 
d="M95 0q-16 0 -20.5 4t-4.5 16v570q0 12 4.5 16t20.5 4t20.5 -4t4.5 -16v-570q0 -12 -4.5 -16t-20.5 -4z" />
    <glyph glyph-name="J" unicode="J" horiz-adv-x="322" 
d="M117 -10q-45 0 -84 11q-23 6 -23 24q0 14 2.5 17.5t10.5 3.5q1 0 32 -5.5t57 -5.5q54 0 72 21.5t18 83.5v450q0 12 4.5 16t20.5 4t20.5 -4t4.5 -16v-460q0 -140 -135 -140z" />
    <glyph glyph-name="K" unicode="K" horiz-adv-x="434" 
d="M95 0q-16 0 -20.5 4t-4.5 16v570q0 12 4.5 16t20.5 4t20.5 -4t4.5 -16v-255h11l216 264q9 11 34 11q26 0 26 -12q0 -8 -12 -24l-220 -260l234 -283q10 -12 10 -20q0 -11 -23 -11q-27 0 -36 11l-230 285h-10v-276q0 -12 -4.5 -16t-20.5 -4z" />
    <glyph glyph-name="L" unicode="L" horiz-adv-x="420" 
d="M120 48h260q12 0 16 -4.5t4 -19.5t-4 -19.5t-16 -4.5h-285q-16 0 -20.5 4t-4.5 16v570q0 12 4.5 16t20.5 4t20.5 -4t4.5 -16v-542z" />
    <glyph glyph-name="M" unicode="M" horiz-adv-x="616" 
d="M95 0q-16 0 -20.5 4t-4.5 16v570q0 12 9 16t44 4q27 0 38 -5t18 -25l126 -354h6l126 354q7 20 18 25t38 5q35 0 44 -4t9 -16v-570q0 -12 -4.5 -16t-20.5 -4t-20.5 4t-4.5 16v540h-9l-142 -376q-5 -13 -13 -16.5t-24 -3.5t-24 3.5t-13 16.5l-142 376h-9v-540
q0 -12 -4.5 -16t-20.5 -4z" />
    <glyph glyph-name="N" unicode="N" horiz-adv-x="534" 
d="M95 0q-16 0 -20.5 4t-4.5 16v570q0 12 9 16t41 4q30 0 39.5 -3.5t15.5 -16.5l229 -540h10v540q0 12 4.5 16t20.5 4t20.5 -4t4.5 -16v-570q0 -12 -9 -16t-41 -4q-30 0 -39.5 3.5t-15.5 16.5l-229 540h-10v-540q0 -12 -4.5 -16t-20.5 -4z" />
    <glyph glyph-name="O" unicode="O" horiz-adv-x="520" 
d="M260 -10q-52 0 -83 5.5t-57.5 21.5t-39 49t-19 83.5t-6.5 130.5v45q0 80 8.5 133.5t22.5 85t42 47t56 20t76 4.5q52 0 83 -5.5t57.5 -21.5t39 -49t19 -83.5t6.5 -130.5v-45q0 -80 -8.5 -133.5t-22.5 -85t-42 -47t-56 -20t-76 -4.5zM260 35q41 0 64.5 4.5t43.5 18t29 41.5
t13.5 70.5t4.5 110.5v45q0 70 -3.5 110.5t-11.5 70t-27.5 42t-44 17.5t-68.5 5q-41 0 -64.5 -4.5t-43.5 -18t-29 -41.5t-13.5 -70.5t-4.5 -110.5v-45q0 -70 3.5 -110.5t11.5 -70t27.5 -42t44 -17.5t68.5 -5z" />
    <glyph glyph-name="P" unicode="P" horiz-adv-x="474" 
d="M95 0q-16 0 -20.5 4t-4.5 16v560q0 22 25 26q66 9 140 9q62 0 95.5 -5t59.5 -22t35 -49.5t9 -88.5q0 -106 -41.5 -150.5t-157.5 -44.5h-115v-235q0 -12 -4.5 -16t-20.5 -4zM120 562v-262h115q86 0 115.5 31t29.5 119q0 75 -26 96.5t-119 21.5q-51 0 -115 -6z" />
    <glyph glyph-name="Q" unicode="Q" horiz-adv-x="520" 
d="M260 -10q-52 0 -83 5.5t-57.5 21.5t-39 49t-19 83.5t-6.5 130.5v45q0 80 8.5 133.5t22.5 85t42 47t56 20t76 4.5q52 0 83 -5.5t57.5 -21.5t39 -49t19 -83.5t6.5 -130.5v-45q0 -127 -20 -188.5t-64 -83.5l43 -88q5 -12 5 -19q0 -12 -21 -12t-26 10l-46 95q-29 -4 -76 -4z
M260 35q41 0 64.5 4.5t43.5 18t29 41.5t13.5 70.5t4.5 110.5v45q0 70 -3.5 110.5t-11.5 70t-27.5 42t-44 17.5t-68.5 5q-41 0 -64.5 -4.5t-43.5 -18t-29 -41.5t-13.5 -70.5t-4.5 -110.5v-45q0 -70 3.5 -110.5t11.5 -70t27.5 -42t44 -17.5t68.5 -5z" />
    <glyph glyph-name="R" unicode="R" horiz-adv-x="491" 
d="M95 0q-16 0 -20.5 4t-4.5 16v560q0 22 25 26q66 9 140 9q62 0 95.5 -4.5t59.5 -20.5t35 -46.5t9 -83.5q0 -79 -24 -121t-85 -56l118 -255q5 -12 5 -15q0 -13 -26 -13q-24 0 -29 12l-116 264q-13 -1 -42 -1h-115v-255q0 -12 -4.5 -16t-20.5 -4zM120 562v-242h115
q87 0 116 28t29 112q0 68 -26 88t-119 20q-55 0 -115 -6z" />
    <glyph glyph-name="S" unicode="S" 
d="M225 -10q-86 0 -151 19q-24 8 -24 27q0 14 3 18t11 4l52 -10q53 -11 99 -11q78 0 110.5 26t32.5 87q0 47 -11 70.5t-41 36.5l-142 64q-60 27 -79.5 54.5t-19.5 89.5q0 50 12 82t37 46t49 18t62 4q84 0 147 -20q23 -6 23 -26q0 -14 -2.5 -18t-10.5 -4q-3 0 -25 5.5
t-56 10.5t-66 5q-74 0 -96 -17.5t-22 -85.5q0 -41 13 -59.5t49 -34.5l144 -65q53 -23 70 -56.5t17 -94.5q0 -91 -49 -128t-136 -37z" />
    <glyph glyph-name="T" unicode="T" horiz-adv-x="418" 
d="M209 0q-16 0 -20.5 4t-4.5 16v542h-154q-12 0 -16 4.5t-4 19.5t4 19.5t16 4.5h358q12 0 16 -4.5t4 -19.5t-4 -19.5t-16 -4.5h-154v-542q0 -12 -4.5 -16t-20.5 -4z" />
    <glyph glyph-name="U" unicode="U" horiz-adv-x="516" 
d="M258 -10q-99 0 -143.5 42t-44.5 138v420q0 12 4.5 16t20.5 4t20.5 -4t4.5 -16v-420q0 -71 29 -100.5t109 -29.5t109 29.5t29 100.5v420q0 12 4.5 16t20.5 4t20.5 -4t4.5 -16v-420q0 -96 -44.5 -138t-143.5 -42z" />
    <glyph glyph-name="V" unicode="V" horiz-adv-x="494" 
d="M253 48l169 550q4 12 28 12t24 -10q0 -7 -6 -25l-174 -555q-4 -13 -12 -16.5t-35 -3.5t-35 3.5t-12 16.5l-174 555q-6 18 -6 25q0 10 24 10t28 -12l169 -550h12z" />
    <glyph glyph-name="W" unicode="W" horiz-adv-x="788" 
d="M210 0q-27 0 -35 3.5t-12 16.5l-141 562q-2 10 -2 15q0 13 24 13q25 0 28 -12l132 -550h12l130 532q3 12 13.5 16t34.5 4t34.5 -4t13.5 -16l130 -532h12l132 550q3 12 28 12q24 0 24 -13q0 -5 -2 -15l-141 -562q-4 -13 -12 -16.5t-35 -3.5t-35 3.5t-12 16.5l-132 528h-10
l-132 -528q-4 -13 -12 -16.5t-35 -3.5z" />
    <glyph glyph-name="X" unicode="X" horiz-adv-x="467" 
d="M51 0q-25 0 -25 13q0 7 7 18l172 283l-163 265q-7 11 -7 18q0 13 25 13q27 0 34 -12l137 -234h4l138 234q7 12 34 12q25 0 25 -13q0 -7 -7 -18l-164 -265l173 -283q7 -11 7 -18q0 -13 -25 -13q-27 0 -34 12l-147 253h-4l-146 -253q-7 -12 -34 -12z" />
    <glyph glyph-name="Y" unicode="Y" horiz-adv-x="436" 
d="M218 0q-16 0 -20.5 4t-4.5 16v224l-167 335q-6 12 -6 18q0 13 25 13q27 0 33 -12l138 -296h4l138 296q6 12 33 12q25 0 25 -13q0 -6 -6 -18l-167 -335v-224q0 -12 -4.5 -16t-20.5 -4z" />
    <glyph glyph-name="Z" unicode="Z" horiz-adv-x="402" 
d="M323 562h-261q-12 0 -16 4.5t-4 19.5t4 19.5t16 4.5h300q11 0 15.5 -5.5t4.5 -20.5q0 -19 -12 -38l-291 -498h281q12 0 16 -4.5t4 -19.5t-4 -19.5t-16 -4.5h-320q-11 0 -15.5 5.5t-4.5 20.5q0 17 12 38z" />
    <glyph glyph-name="bracketleft" unicode="[" horiz-adv-x="255" 
d="M239 -42q0 -14 -4 -18.5t-16 -4.5h-124q-16 0 -20.5 4t-4.5 16v688q0 12 4.5 16t20.5 4h114q12 0 16 -4.5t4 -18.5t-4 -18.5t-16 -4.5h-90v-636h100q12 0 16 -4.5t4 -18.5z" />
    <glyph glyph-name="backslash" unicode="\" horiz-adv-x="249" 
d="M207 -69q-15 0 -20.5 3.5t-8.5 16.5l-152 683q-4 17 -4 22q0 11 24 11q15 0 20.5 -3.5t8.5 -16.5l152 -683q4 -17 4 -22q0 -11 -24 -11z" />
    <glyph glyph-name="bracketright" unicode="]" horiz-adv-x="255" 
d="M16 -42q0 14 4 18.5t16 4.5h100v636h-90q-12 0 -16 4.5t-4 18.5t4 18.5t16 4.5h114q16 0 20.5 -4t4.5 -16v-688q0 -12 -4.5 -16t-20.5 -4h-124q-12 0 -16 4.5t-4 18.5z" />
    <glyph glyph-name="asciicircum" unicode="^" 
d="M234 563h-6l-95 -199q-5 -12 -11 -15.5t-23 -3.5q-24 0 -24 14q0 6 11 28l101 203q7 13 15.5 16.5t31.5 3.5t30.5 -3.5t13.5 -16.5l95 -203q11 -24 11 -28q0 -14 -24 -14q-17 0 -23 3.5t-11 15.5z" />
    <glyph glyph-name="underscore" unicode="_" horiz-adv-x="465" 
d="M40 -40q0 15 4 19.5t16 4.5h345q12 0 16 -4.5t4 -19.5t-4 -19.5t-16 -4.5h-345q-12 0 -16 4.5t-4 19.5z" />
    <glyph glyph-name="grave" unicode="`" horiz-adv-x="189" 
d="M140 540q-15 0 -20.5 3t-11.5 11l-70 103q-8 11 -8 19q0 10 29 10q26 0 33 -13l60 -105q7 -13 7 -18q0 -10 -19 -10z" />
    <glyph glyph-name="a" unicode="a" horiz-adv-x="485" 
d="M179 -10q-67 0 -98 31.5t-31 105.5t38.5 104.5t133.5 30.5h128v103q0 55 -22.5 72.5t-81.5 17.5q-48 0 -101 -10.5t-54 -10.5q-11 0 -11 20q0 21 17 25q71 21 151 21q82 0 117 -26t35 -104v-213q0 -34 6 -67t12.5 -53.5t6.5 -23.5q0 -13 -24 -13q-14 0 -19 3t-8 13
l-18 73q-24 -49 -72 -74t-105 -25zM187 36q68 0 115.5 39t47.5 101v47l-134 -5q-70 -3 -93 -20t-23 -67q0 -59 19 -77t68 -18z" />
    <glyph glyph-name="b" unicode="b" horiz-adv-x="503" 
d="M243 -10q-56 0 -91.5 7t-52.5 22.5t-23 33t-6 43.5v534q0 13 4.5 16.5t20.5 3.5t20.5 -3.5t4.5 -16.5v-226q40 96 162 96q68 0 100.5 -19.5t46.5 -71t14 -159.5q0 -152 -44 -206t-156 -54zM244 35q87 0 117 40.5t30 164.5q0 139 -19.5 177t-95.5 38q-85 0 -120.5 -47
t-35.5 -148v-165q0 -31 24 -45.5t100 -14.5z" />
    <glyph glyph-name="c" unicode="c" horiz-adv-x="426" 
d="M238 -10q-54 0 -84.5 8t-53.5 34t-31.5 75t-8.5 132q0 71 9.5 120.5t24.5 77t41 42t50 18t61 3.5q52 0 117 -17q14 -4 18.5 -9t4.5 -19q0 -13 -2.5 -16.5t-8.5 -3.5l-48 11q-48 10 -83 10q-53 0 -78.5 -13.5t-39 -59t-13.5 -138.5q0 -137 22 -173t111 -36q42 0 86 12
t45 12q9 0 9 -20q0 -13 -4.5 -18t-18.5 -10q-59 -22 -125 -22z" />
    <glyph glyph-name="d" unicode="d" horiz-adv-x="515" 
d="M232 -10q-107 0 -139.5 53t-32.5 207q0 78 11 127.5t36.5 76.5t58.5 36.5t85 9.5q102 0 139 -56v186q0 13 4.5 16.5t20.5 3.5t20.5 -3.5t4.5 -16.5v-473q0 -34 6 -67t12.5 -53.5t6.5 -23.5q0 -13 -24 -13q-14 0 -19 3t-8 13l-14 57q-38 -83 -168 -83zM233 35q85 0 121 31
t36 128v96q0 92 -27 128.5t-110 36.5q-60 0 -88.5 -16.5t-40.5 -61t-12 -137.5q0 -127 22.5 -166t98.5 -39z" />
    <glyph glyph-name="e" unicode="e" 
d="M248 -10q-46 0 -74.5 5t-52.5 19t-36 42.5t-18.5 72t-6.5 110.5q0 71 9.5 120.5t24.5 77t41 42t50 18t61 3.5q45 0 75.5 -10t48 -26.5t26.5 -48.5t11.5 -63.5t2.5 -84.5q0 -17 -5.5 -24.5t-22.5 -7.5h-269q0 -130 24 -164.5t119 -34.5q34 0 65 6t50 12t24 6q9 0 9 -20
q0 -13 -4.5 -18t-18.5 -10q-59 -22 -133 -22zM244 456q-50 0 -75 -12t-39.5 -50.5t-16.5 -115.5h245q0 38 -0.5 55.5t-3.5 43t-10 36t-19.5 23t-32.5 16.5t-48 4z" />
    <glyph glyph-name="f" unicode="f" horiz-adv-x="295" 
d="M40 468q0 13 4.5 17.5t15.5 4.5h50v50q0 64 20.5 92t74.5 28q31 0 57 -8q10 -3 13.5 -4.5t6.5 -6t3 -11.5q0 -13 -2.5 -17t-10.5 -4q-2 0 -23.5 3t-38.5 3q-32 0 -41 -14t-9 -71v-40h90q11 0 15.5 -4.5t4.5 -17.5t-4.5 -17.5t-15.5 -4.5h-90v-426q0 -13 -4.5 -16.5
t-20.5 -3.5t-20.5 3.5t-4.5 16.5v426h-50q-11 0 -15.5 4.5t-4.5 17.5z" />
    <glyph glyph-name="g" unicode="g" horiz-adv-x="508" 
d="M60 250q0 78 11 127.5t36.5 76.5t58.5 36.5t85 9.5q112 0 146 -69l10 43q2 10 7 13t20 3q24 0 24 -13q0 -3 -6 -23.5t-12.5 -53.5t-6.5 -67v-305q0 -123 -51 -170.5t-149 -47.5q-68 0 -131 9q-9 2 -13.5 4t-7.5 8t-3 17q0 13 2.5 17t10.5 4q5 0 24 -2.5t53 -5.5t75 -3
q77 0 108.5 38t31.5 122v27q-43 -55 -151 -55q-107 0 -139.5 53t-32.5 207zM112 240q0 -127 22.5 -166t98.5 -39q85 0 121 31t36 128v96q0 92 -27 128.5t-110 36.5q-60 0 -88.5 -16.5t-40.5 -61t-12 -137.5z" />
    <glyph glyph-name="h" unicode="h" horiz-adv-x="490" 
d="M95 0q-16 0 -20.5 3.5t-4.5 16.5v610q0 13 4.5 16.5t20.5 3.5t20.5 -3.5t4.5 -16.5v-212q19 44 59 63t107 19q79 0 106.5 -30.5t27.5 -94.5v-355q0 -13 -4.5 -16.5t-20.5 -3.5t-20.5 3.5t-4.5 16.5v345q0 52 -19.5 71t-79.5 19q-83 0 -117 -41.5t-34 -133.5v-260
q0 -13 -4.5 -16.5t-20.5 -3.5z" />
    <glyph glyph-name="i" unicode="i" horiz-adv-x="195" 
d="M95 0q-16 0 -20.5 3.5t-4.5 16.5v450q0 13 4.5 16.5t20.5 3.5t20.5 -3.5t4.5 -16.5v-450q0 -13 -4.5 -16.5t-20.5 -3.5zM95 584q-18 0 -24 4t-6 16v26q0 12 6 16t24 4t24 -4t6 -16v-26q0 -12 -6 -16t-24 -4z" />
    <glyph glyph-name="j" unicode="j" horiz-adv-x="195" 
d="M95 490q16 0 20.5 -3.5t4.5 -16.5v-540q0 -64 -20.5 -92t-74.5 -28q-31 0 -57 8q-10 3 -13.5 4.5t-6.5 6t-3 11.5q0 13 2.5 17t10.5 4q2 0 23 -3t39 -3q32 0 41 14t9 71v530q0 13 4.5 16.5t20.5 3.5zM95 584q-18 0 -24 4t-6 16v26q0 12 6 16t24 4t24 -4t6 -16v-26
q0 -12 -6 -16t-24 -4z" />
    <glyph glyph-name="k" unicode="k" horiz-adv-x="401" 
d="M95 0q-16 0 -20.5 3.5t-4.5 16.5v610q0 13 4.5 16.5t20.5 3.5t20.5 -3.5t4.5 -16.5v-355h7l191 202q12 13 36 13t24 -10q0 -8 -14 -22l-192 -202l204 -225q12 -14 12 -21q0 -10 -25 -10q-15 0 -20.5 2t-13.5 11l-203 223h-6v-216q0 -13 -4.5 -16.5t-20.5 -3.5z" />
    <glyph glyph-name="l" unicode="l" horiz-adv-x="190" 
d="M95 0q-16 0 -20.5 3.5t-4.5 16.5v610q0 13 4.5 16.5t20.5 3.5t20.5 -3.5t4.5 -16.5v-610q0 -13 -4.5 -16.5t-20.5 -3.5z" />
    <glyph glyph-name="m" unicode="m" horiz-adv-x="785" 
d="M110 0q-16 0 -20.5 3.5t-4.5 16.5v313q0 34 -6.5 67t-12.5 53.5t-6 23.5q0 13 24 13q15 0 20 -3t7 -13l13 -62q18 48 57.5 68t109.5 20q63 0 92.5 -20t37.5 -60q18 43 56 61.5t104 18.5q79 0 106.5 -30.5t27.5 -94.5v-355q0 -13 -4.5 -16.5t-20.5 -3.5t-20.5 3.5
t-4.5 16.5v345q0 52 -19.5 71t-79.5 19q-81 0 -111 -40.5t-30 -134.5v-260q0 -13 -4.5 -16.5t-20.5 -3.5t-20.5 3.5t-4.5 16.5v345q0 52 -19.5 71t-79.5 19q-81 0 -111 -40.5t-30 -134.5v-260q0 -13 -4.5 -16.5t-20.5 -3.5z" />
    <glyph glyph-name="n" unicode="n" horiz-adv-x="505" 
d="M110 0q-16 0 -20.5 3.5t-4.5 16.5v313q0 34 -6.5 67t-12.5 53.5t-6 23.5q0 13 24 13q14 0 19 -3t8 -13l15 -64q20 48 62 69t113 21q79 0 106.5 -30.5t27.5 -94.5v-355q0 -13 -4.5 -16.5t-20.5 -3.5t-20.5 3.5t-4.5 16.5v345q0 52 -19.5 71t-79.5 19q-83 0 -117 -41.5
t-34 -133.5v-260q0 -13 -4.5 -16.5t-20.5 -3.5z" />
    <glyph glyph-name="o" unicode="o" horiz-adv-x="492" 
d="M238 -10q-73 0 -109.5 19t-52.5 71.5t-16 159.5q0 148 43.5 204t150.5 56q73 0 109.5 -19t52.5 -71.5t16 -159.5q0 -148 -43.5 -204t-150.5 -56zM239 35q87 0 114 39.5t27 165.5q0 139 -21.5 177t-106.5 38q-86 0 -113 -39.5t-27 -165.5q0 -139 21 -177t106 -38z" />
    <glyph glyph-name="p" unicode="p" horiz-adv-x="525" 
d="M110 -190q-16 0 -20.5 3.5t-4.5 16.5v503q0 34 -6.5 67t-12.5 53.5t-6 23.5q0 13 24 13q14 0 19 -3t8 -13l16 -65q38 91 166 91q107 0 139.5 -53t32.5 -207q0 -78 -11 -127.5t-36.5 -76.5t-58.5 -36.5t-85 -9.5q-104 0 -139 56v-216q0 -13 -4.5 -16.5t-20.5 -3.5zM272 35
q60 0 88.5 16.5t40.5 61t12 137.5q0 127 -22.5 166t-98.5 39q-83 0 -120 -37t-37 -142v-76q0 -92 27 -128.5t110 -36.5z" />
    <glyph glyph-name="q" unicode="q" horiz-adv-x="508" 
d="M408 -190q-16 0 -20.5 3.5t-4.5 16.5v215q-43 -55 -151 -55q-107 0 -139.5 53t-32.5 207q0 78 11 127.5t36.5 76.5t58.5 36.5t85 9.5q112 0 146 -69l10 43q2 10 7 13t20 3q24 0 24 -13q0 -3 -6 -23.5t-12.5 -53.5t-6.5 -67v-503q0 -13 -4.5 -16.5t-20.5 -3.5zM233 35
q85 0 121 31t36 128v96q0 92 -27 128.5t-110 36.5q-60 0 -88.5 -16.5t-40.5 -61t-12 -137.5q0 -127 22.5 -166t98.5 -39z" />
    <glyph glyph-name="r" unicode="r" horiz-adv-x="324" 
d="M110 0q-16 0 -20.5 3.5t-4.5 16.5v313q0 34 -6.5 67t-12.5 53.5t-6 23.5q0 13 24 13q14 0 19 -3t8 -13l16 -66q36 92 125 92q29 0 45 -7q12 -5 12 -24q0 -20 -12 -20q-2 0 -20 3t-33 3q-109 0 -109 -210v-225q0 -13 -4.5 -16.5t-20.5 -3.5z" />
    <glyph glyph-name="s" unicode="s" horiz-adv-x="421" 
d="M196 -10q-66 0 -123 18q-14 5 -18.5 9.5t-4.5 17.5q0 21 9 21q1 0 47.5 -10t88.5 -10q68 0 96.5 24t28.5 75q0 28 -10 43t-33 24l-151 63q-65 28 -65 112q0 69 38.5 96t106.5 27q62 0 127 -17q14 -4 18.5 -9t4.5 -19q0 -13 -2.5 -16.5t-8.5 -3.5q-4 0 -25.5 5.5t-53 10.5
t-59.5 5q-55 0 -75 -17.5t-20 -58.5q0 -31 9 -47t35 -27l147 -60q37 -15 52.5 -39.5t15.5 -66.5q0 -150 -175 -150z" />
    <glyph glyph-name="t" unicode="t" horiz-adv-x="305" 
d="M205 -10q-54 0 -74.5 28t-20.5 92v336h-60q-11 0 -15.5 4.5t-4.5 17.5t4.5 17.5t15.5 4.5h60v80q0 13 4.5 16.5t20.5 3.5t20.5 -3.5t4.5 -16.5v-80h100q11 0 15.5 -4.5t4.5 -17.5t-4.5 -17.5t-15.5 -4.5h-100v-326q0 -57 9 -71t41 -14q17 0 38.5 3t23.5 3q8 0 10.5 -4
t2.5 -17q0 -10 -4.5 -14t-18.5 -8q-26 -8 -57 -8z" />
    <glyph glyph-name="u" unicode="u" horiz-adv-x="495" 
d="M204 -10q-79 0 -106.5 30.5t-27.5 94.5v355q0 13 4.5 16.5t20.5 3.5t20.5 -3.5t4.5 -16.5v-345q0 -52 19.5 -71t79.5 -19q83 0 117 41.5t34 133.5v260q0 13 4.5 16.5t20.5 3.5t20.5 -3.5t4.5 -16.5v-313q0 -34 6 -67t12.5 -53.5t6.5 -23.5q0 -13 -24 -13q-14 0 -19 3
t-8 13l-16 63q-20 -48 -61.5 -68.5t-112.5 -20.5z" />
    <glyph glyph-name="v" unicode="v" horiz-adv-x="441" 
d="M216 0q-21 0 -29.5 3.5t-12.5 16.5l-136 425q-8 24 -8 30q0 15 24 15q17 0 22.5 -4.5t12.5 -25.5l125 -414h10l128 414q7 21 12.5 25.5t22.5 4.5q24 0 24 -15q0 -6 -8 -30l-142 -425q-4 -13 -14 -16.5t-31 -3.5z" />
    <glyph glyph-name="w" unicode="w" horiz-adv-x="689" 
d="M188 0q-21 0 -30.5 3.5t-13.5 16.5l-108 425q-6 24 -6 30q0 15 24 15q18 0 23.5 -4t9.5 -19l99 -421h10l103 404q5 18 13.5 24t32.5 6q23 0 31.5 -6t13.5 -24l103 -404h10l99 421q4 15 9.5 19t23.5 4q24 0 24 -15q0 -6 -6 -30l-108 -425q-4 -13 -13.5 -16.5t-30.5 -3.5
q-25 0 -37 3.5t-15 16.5l-102 403h-5l-102 -403q-3 -13 -15 -16.5t-37 -3.5z" />
    <glyph glyph-name="x" unicode="x" horiz-adv-x="428" 
d="M57 0q-27 0 -27 15q0 6 9 19l147 222l-135 200q-9 13 -9 20q0 14 29 14q22 0 29 -12l112 -177h4l112 177q7 12 29 12q29 0 29 -14q0 -7 -9 -20l-136 -200l148 -222q9 -14 9 -19q0 -15 -27 -15q-24 0 -31 12l-124 199h-4l-124 -199q-7 -12 -31 -12z" />
    <glyph glyph-name="y" unicode="y" horiz-adv-x="437" 
d="M30 475q0 8 5 11.5t21 3.5q24 0 27 -12l135 -430h4l132 430q3 12 27 12q27 0 27 -14q0 -8 -7 -28l-164 -504q-11 -35 -17 -50t-16 -35.5t-20 -28.5t-26 -14t-37 -6q-38 0 -64 7q-23 6 -23 23q0 14 2.5 17.5t10.5 3.5q2 0 24 -3t45 -3q29 0 42 13t26 56l24 77
q-22 5 -35 43l-131 387q-12 35 -12 44z" />
    <glyph glyph-name="z" unicode="z" horiz-adv-x="392" 
d="M357 23q0 -14 -4 -18.5t-16 -4.5h-282q-12 0 -16 4.5t-4 18.5q0 25 10 41l258 380h-228q-12 0 -16 4.5t-4 18.5t4 18.5t16 4.5h262q12 0 16 -4.5t4 -18.5q0 -23 -12 -41l-257 -380h249q12 0 16 -4.5t4 -18.5z" />
    <glyph glyph-name="braceleft" unicode="{" horiz-adv-x="285" 
d="M60 276q-12 0 -16 4.5t-4 19.5t4 19.5t16 4.5q28 0 40 12.5t12 44.5q0 37 -1 104.5t-1 104.5q0 43 14.5 61.5t55.5 18.5q33 0 73 -6q11 -1 14 -5t3 -16q0 -14 -3.5 -18t-12.5 -4q-6 0 -33.5 1.5t-41.5 1.5q-12 0 -16 -7.5t-4 -30.5q0 -36 1.5 -102t1.5 -102
q0 -75 -49 -80v-4q49 -5 49 -80q0 -36 -1.5 -101.5t-1.5 -101.5q0 -23 4 -30.5t16 -7.5q14 0 41.5 1.5t33.5 1.5q9 0 12.5 -4t3.5 -18q0 -12 -3 -16t-14 -5q-40 -6 -73 -6q-41 0 -55.5 18.5t-14.5 61.5q0 37 1 104t1 104q0 32 -12 44.5t-40 12.5z" />
    <glyph glyph-name="bar" unicode="|" horiz-adv-x="166" 
d="M83 -190q-15 0 -19 3.5t-4 16.5v817q0 13 4 16.5t19 3.5t19 -3.5t4 -16.5v-817q0 -13 -4 -16.5t-19 -3.5z" />
    <glyph glyph-name="braceright" unicode="}" horiz-adv-x="285" 
d="M105 -69q-33 0 -73 6q-11 1 -14 5t-3 16q0 14 3.5 18t12.5 4q6 0 33.5 -1.5t41.5 -1.5q12 0 16 7.5t4 30.5q0 36 -1.5 101.5t-1.5 101.5q0 75 49 80v4q-49 5 -49 80q0 36 1.5 102t1.5 102q0 23 -4 30.5t-16 7.5q-14 0 -41.5 -1.5t-33.5 -1.5q-9 0 -12.5 4t-3.5 18
q0 12 3 16t14 5q40 6 73 6q41 0 55.5 -18.5t14.5 -61.5q0 -37 -1 -104.5t-1 -104.5q0 -32 12 -44.5t40 -12.5q12 0 16 -4.5t4 -19.5t-4 -19.5t-16 -4.5q-28 0 -40 -12.5t-12 -44.5q0 -37 1 -104t1 -104q0 -43 -14.5 -61.5t-55.5 -18.5z" />
    <glyph glyph-name="asciitilde" unicode="~" 
d="M90 261q0 18 22 32q28 16 54 16q19 0 69 -11t64 -11q19 0 39 10t22 10q9 0 9 -20q0 -18 -22 -32q-28 -16 -54 -16q-19 0 -69 11t-64 11q-19 0 -39 -10t-22 -10q-9 0 -9 20z" />
    <glyph glyph-name="exclamdown" unicode="&#xa1;" horiz-adv-x="192" 
d="M96 610q18 0 24 -4t6 -16v-26q0 -12 -6 -16t-24 -4t-24 4t-6 16v26q0 12 6 16t24 4zM96 480q14 0 18 -4t4 -16q0 -78 2.5 -219.5t2.5 -220.5q0 -12 -5.5 -16t-21.5 -4t-21.5 4t-5.5 16q0 79 2.5 220.5t2.5 219.5q0 12 4 16t18 4z" />
    <glyph glyph-name="cent" unicode="&#xa2;" 
d="M247 610q16 0 20.5 -3.5t4.5 -16.5v-76q48 -3 98 -15q14 -4 18.5 -9t4.5 -19q0 -13 -2.5 -16.5t-8.5 -3.5q-3 0 -25 5.5t-56.5 10.5t-68.5 5q-44 0 -65.5 -9.5t-34 -44.5t-12.5 -107q0 -105 20 -132t100 -27q37 0 69.5 6t51.5 12t23 6q9 0 9 -20q0 -13 -4.5 -18
t-18.5 -10q-40 -16 -98 -20v-88q0 -13 -4.5 -16.5t-20.5 -3.5t-20.5 3.5t-4.5 16.5v86q-45 0 -71 6t-47 26.5t-29 60.5t-8 106q0 69 11 112.5t34.5 63.5t47.5 26.5t62 7.5v75q0 13 4.5 16.5t20.5 3.5z" />
    <glyph glyph-name="sterling" unicode="&#xa3;" 
d="M264 300q0 -15 -4 -19.5t-16 -4.5h-84v-62q0 -34 -3.5 -63t-7.5 -43.5t-10.5 -34l-8.5 -25.5h250q12 0 16 -4.5t4 -19.5t-4 -19.5t-16 -4.5h-284q-16 0 -20.5 4t-4.5 16q0 5 19.5 61t19.5 112v83h-51q-12 0 -16 4.5t-4 19.5t4 19.5t16 4.5h51v141q0 150 155 150
q55 0 94 -11q23 -6 23 -24q0 -14 -2.5 -17.5t-10.5 -3.5q-1 0 -37 5.5t-62 5.5q-63 0 -86.5 -23.5t-23.5 -91.5v-131h84q12 0 16 -4.5t4 -19.5z" />
    <glyph glyph-name="currency" unicode="&#xa4;" 
d="M125 70q-25 0 -25 10q0 5 8 24l26 57q-28 24 -28 109q0 84 28 109l-26 57q-8 19 -8 24q0 10 25 10q18 0 23 -2t9 -10l27 -60q19 3 46 3q26 0 45 -3l28 60q4 8 9 10t23 2q25 0 25 -10q0 -5 -8 -24l-27 -57q29 -25 29 -109q0 -85 -29 -109l27 -57q8 -19 8 -24
q0 -10 -25 -10q-18 0 -23 2t-9 10l-27 59q-13 -2 -46 -2q-32 0 -45 2l-28 -59q-4 -8 -9 -10t-23 -2zM230 184q48 0 61 14t13 72t-13 72t-61 14t-61 -14t-13 -72t13 -72t61 -14z" />
    <glyph glyph-name="yen" unicode="&#xa5;" 
d="M78 260q0 15 4 19.5t16 4.5h87l-147 295q-6 12 -6 18q0 13 25 13q27 0 33 -12l138 -296h4l138 296q6 12 33 12q25 0 25 -13q0 -6 -6 -18l-147 -295h88q12 0 16 -4.5t4 -19.5t-4 -19.5t-16 -4.5h-108v-62h108q12 0 16 -4.5t4 -19.5t-4 -19.5t-16 -4.5h-108v-106
q0 -12 -4.5 -16t-20.5 -4t-20.5 4t-4.5 16v106h-107q-12 0 -16 4.5t-4 19.5t4 19.5t16 4.5h107v62h-107q-12 0 -16 4.5t-4 19.5z" />
    <glyph glyph-name="brokenbar" unicode="&#xa6;" horiz-adv-x="166" 
d="M83 -190q-15 0 -19 3.5t-4 16.5v346q0 13 4 16.5t19 3.5t19 -3.5t4 -16.5v-346q0 -13 -4 -16.5t-19 -3.5zM83 281q-15 0 -19 3.5t-4 16.5v346q0 13 4 16.5t19 3.5t19 -3.5t4 -16.5v-346q0 -13 -4 -16.5t-19 -3.5z" />
    <glyph glyph-name="section" unicode="&#xa7;" 
d="M55 265q0 80 44 104q-34 31 -34 106q0 47 12 76.5t37 42.5t49 17t62 4q84 0 147 -20q23 -6 23 -26q0 -14 -2.5 -18t-10.5 -4q-3 0 -25 5.5t-56 10.5t-66 5q-73 0 -95.5 -16t-22.5 -77q0 -40 9.5 -58t38.5 -31l158 -70q47 -21 65 -54t18 -84q0 -73 -37 -100
q41 -35 41 -123q0 -83 -48 -114t-137 -31q-86 0 -151 19q-24 8 -24 27q0 14 3 18t11 4l52 -10q53 -11 99 -11q82 0 112.5 20t30.5 73q0 47 -11 70.5t-41 36.5l-168 74q-47 21 -65 52.5t-18 81.5zM155 179l172 -75q27 13 27 74q0 37 -10 57t-38 32l-165 74q-34 -9 -34 -76
q0 -36 10 -55t38 -31z" />
    <glyph glyph-name="dieresis" unicode="&#xa8;" horiz-adv-x="249" 
d="M61 584q-18 0 -23.5 3.5t-5.5 16.5v26q0 13 5.5 16.5t23.5 3.5t23.5 -3.5t5.5 -16.5v-26q0 -13 -5.5 -16.5t-23.5 -3.5zM188 584q-18 0 -23.5 3.5t-5.5 16.5v26q0 13 5.5 16.5t23.5 3.5t23.5 -3.5t5.5 -16.5v-26q0 -13 -5.5 -16.5t-23.5 -3.5z" />
    <glyph glyph-name="copyright" unicode="&#xa9;" horiz-adv-x="880" 
d="M440 60q-54 0 -84.5 8t-53.5 34t-31.5 75t-8.5 132q0 71 9.5 120.5t24.5 77t41 42t50 18t61 3.5q52 0 117 -17q14 -4 18.5 -9t4.5 -19q0 -13 -2.5 -16.5t-8.5 -3.5l-48 11q-48 10 -83 10q-53 0 -78.5 -13.5t-39 -59t-13.5 -138.5q0 -137 22 -173t111 -36q43 0 86.5 12
t44.5 12q9 0 9 -20q0 -13 -4.5 -18t-18.5 -10q-59 -22 -125 -22zM440 -75q113 0 182 19t109 68.5t53.5 119.5t13.5 186q0 114 -13.5 182.5t-53.5 117.5t-109 68t-182 19t-182 -19t-109 -68t-53.5 -117.5t-13.5 -182.5q0 -116 13.5 -186t53.5 -119.5t109 -68.5t182 -19z
M440 -124q-88 0 -153.5 12t-110.5 38t-74 60t-44.5 86.5t-21.5 108.5t-6 134t6 134t21.5 108.5t44.5 86.5t74 60t110.5 38t153.5 12t153.5 -12t110.5 -38t74 -60t44.5 -86.5t21.5 -108.5t6 -134t-6 -134t-21.5 -108.5t-44.5 -86.5t-74 -60t-110.5 -38t-153.5 -12z" />
    <glyph glyph-name="ordfeminine" unicode="&#xaa;" horiz-adv-x="368" 
d="M139 255q-57 0 -80 22.5t-23 76.5q0 55 25 78t90 23h109v46q0 42 -15 57.5t-58 15.5q-37 0 -75 -7.5t-41 -7.5q-6 0 -8.5 3.5t-2.5 14.5q0 10 2.5 13.5t11.5 7.5q41 17 111 17q66 0 93.5 -22t27.5 -84v-107q0 -28 4 -56t7.5 -46.5t3.5 -21.5q0 -13 -20 -13q-12 0 -16 3
t-6 13l-13 51q-32 -77 -127 -77zM142 297q24 0 42.5 4t37 15t28.5 35t10 59v10l-127 -6q-31 -2 -41 -13t-10 -47q0 -35 13.5 -46t46.5 -11z" />
    <glyph glyph-name="guillemotleft" unicode="&#xab;" horiz-adv-x="575" 
d="M95 246v-8l164 -123q16 -12 16 -36q0 -25 -10 -25q-6 0 -21 11l-184 132q-12 9 -16 17.5t-4 27.5t4 27.5t16 17.5l184 132q15 11 21 11q10 0 10 -25q0 -24 -16 -36zM365 246v-8l154 -133q16 -14 16 -36q0 -25 -10 -25q-6 0 -21 11l-174 142q-12 11 -16 19t-4 26t4 26
t16 19l174 142q15 11 21 11q10 0 10 -25q0 -22 -16 -36z" />
    <glyph glyph-name="logicalnot" unicode="&#xac;" 
d="M350 144q-16 0 -20.5 4t-4.5 16v82h-220q-12 0 -16 4.5t-4 19.5t4 19.5t16 4.5h245q16 0 20.5 -4t4.5 -16v-110q0 -12 -4.5 -16t-20.5 -4z" />
    <glyph glyph-name="registered" unicode="&#xae;" horiz-adv-x="880" 
d="M440 -124q-88 0 -153.5 12t-110.5 38t-74 60t-44.5 86.5t-21.5 108.5t-6 134t6 134t21.5 108.5t44.5 86.5t74 60t110.5 38t153.5 12t153.5 -12t110.5 -38t74 -60t44.5 -86.5t21.5 -108.5t6 -134t-6 -134t-21.5 -108.5t-44.5 -86.5t-74 -60t-110.5 -38t-153.5 -12z
M440 -75q113 0 182 19t109 68.5t53.5 119.5t13.5 186q0 114 -13.5 182.5t-53.5 117.5t-109 68t-182 19t-182 -19t-109 -68t-53.5 -117.5t-13.5 -182.5q0 -116 13.5 -186t53.5 -119.5t109 -68.5t182 -19zM300 70q-16 0 -21 4t-5 16v450q0 22 25 26q66 9 130 9
q114 0 151.5 -24t37.5 -111q0 -72 -21.5 -105.5t-84.5 -44.5l115 -192q6 -10 6 -15q0 -13 -26 -13q-23 0 -30 12l-113 203h-138v-195q0 -12 -5 -16t-21 -4zM326 522v-192h103q88 0 111.5 18t23.5 92q0 57 -25 72.5t-110 15.5q-43 0 -103 -6z" />
    <glyph glyph-name="macron" unicode="&#xaf;" horiz-adv-x="245" 
d="M30 610q0 15 4 19.5t16 4.5h145q12 0 16 -4.5t4 -19.5t-4 -19.5t-16 -4.5h-145q-12 0 -16 4.5t-4 19.5z" />
    <glyph glyph-name="degree" unicode="&#xb0;" 
d="M227 388q54 0 67 16.5t13 79.5q0 60 -13.5 75t-61.5 15q-54 0 -67 -16.5t-13 -79.5q0 -60 13.5 -75t61.5 -15zM227 347q-77 0 -100.5 27t-23.5 104q0 41 3.5 63t16 41t38.5 26t71 7q77 0 100.5 -27t23.5 -104q0 -41 -3.5 -63t-16 -41t-38.5 -26t-71 -7z" />
    <glyph glyph-name="plusminus" unicode="&#xb1;" 
d="M87 290q0 14 4 18.5t16 4.5h99v110q0 12 4.5 16t18.5 4t18.5 -4t4.5 -16v-110h100q12 0 16 -4.5t4 -18.5t-4 -18.5t-16 -4.5h-100v-109q0 -12 -4.5 -16t-18.5 -4t-18.5 4t-4.5 16v109h-99q-12 0 -16 4.5t-4 18.5zM107 64q0 14 4 18.5t16 4.5h205q12 0 16 -4.5t4 -18.5
t-4 -18.5t-16 -4.5h-205q-12 0 -16 4.5t-4 18.5z" />
    <glyph glyph-name="twosuperior" unicode="&#xb2;" horiz-adv-x="373" 
d="M107 340h170q18 0 18 -22t-18 -22h-198q-10 0 -14 5t-4 19v12q0 19 24 44l111 116q41 42 41 78q0 30 -11.5 40t-43.5 10q-23 0 -44 -3.5t-33 -7t-15 -3.5q-7 0 -9 3t-2 17q0 17 21 23q44 12 83 12q50 0 75 -18t25 -67q0 -35 -12 -56t-50 -62z" />
    <glyph glyph-name="threesuperior" unicode="&#xb3;" horiz-adv-x="385" 
d="M193 292q-43 0 -91 13q-21 6 -21 23q0 13 2.5 16.5t8.5 3.5q1 0 35 -7t64 -7q38 0 55 13.5t17 49.5q0 15 -3 24.5t-12.5 20t-31.5 15.5t-58 5q-10 0 -13.5 4t-3.5 17t3.5 17.5t13.5 4.5q57 0 75 14t18 51q0 30 -12 40t-47 10q-27 0 -58 -7l-30 -7q-5 0 -7.5 1t-4 5.5
t-1.5 13.5q0 17 22 23q44 12 85 12q50 0 74.5 -18t24.5 -67q0 -82 -72 -93q84 -7 84 -86q0 -105 -116 -105z" />
    <glyph glyph-name="acute" unicode="&#xb4;" horiz-adv-x="189" 
d="M49 540q-19 0 -19 10q0 5 7 18l60 105q7 13 33 13q29 0 29 -10q0 -8 -8 -19l-70 -103q-4 -6 -6.5 -8.5t-8.5 -4t-17 -1.5z" />
    <glyph glyph-name="mu" unicode="&#xb5;" horiz-adv-x="495" 
d="M95 -190q-16 0 -20.5 3.5t-4.5 16.5v640q0 13 4.5 16.5t20.5 3.5t20.5 -3.5t4.5 -16.5v-345q0 -52 19.5 -71t79.5 -19q83 0 117 41.5t34 133.5v260q0 13 4.5 16.5t20.5 3.5t20.5 -3.5t4.5 -16.5v-313q0 -34 6 -67t12.5 -53.5t6.5 -23.5q0 -13 -24 -13q-14 0 -19 3t-8 13
l-16 63q-35 -89 -159 -89q-73 0 -99 29v-189q0 -13 -4.5 -16.5t-20.5 -3.5z" />
    <glyph glyph-name="paragraph" unicode="&#xb6;" horiz-adv-x="522" 
d="M211 -190q-48 0 -111 9q-9 2 -13.5 4t-7.5 8t-3 17q0 13 2.5 17t10.5 4q1 0 44.5 -5.5t87.5 -5.5q74 0 97 35.5t23 124.5v544h-47v-322q0 -23 -25 -29q-38 -9 -78 -9q-67 0 -90 44.5t-23 150.5q0 120 29.5 166.5t110.5 46.5h237q12 0 16 -4.5t4 -19.5t-4 -19.5t-16 -4.5
h-64v-534q0 -125 -42.5 -171.5t-137.5 -46.5z" />
    <glyph glyph-name="middot" unicode="&#xb7;" horiz-adv-x="160" 
d="M80 236q-18 0 -24 4t-6 16v26q0 12 6 16t24 4t24 -4t6 -16v-26q0 -12 -6 -16t-24 -4z" />
    <glyph glyph-name="cedilla" unicode="&#xb8;" horiz-adv-x="198" 
d="M97 -190q-25 0 -44 4q-23 4 -23 23q0 13 2.5 17t10.5 4q2 0 15 -1.5t28 -1.5q11 0 17 1t10.5 5.5t4.5 13.5q0 5 -0.5 8.5t-4 6.5t-5.5 4.5t-9 6t-11 7.5q-28 19 -28 51v55h38v-43q0 -11 2.5 -16.5t13.5 -12.5q35 -23 44.5 -35t9.5 -40q0 -57 -71 -57z" />
    <glyph glyph-name="onesuperior" unicode="&#xb9;" horiz-adv-x="369" 
d="M88 318q0 12 3.5 16t14.5 4h66v277l-62 -19q-14 -4 -17 -4q-10 0 -10 20q0 17 9 20l71 24q13 4 31 4q14 0 18 -3.5t4 -14.5v-304h68q10 0 14 -4t4 -16q0 -22 -18 -22h-178q-11 0 -14.5 4.5t-3.5 17.5z" />
    <glyph glyph-name="ordmasculine" unicode="&#xba;" horiz-adv-x="393" 
d="M189 255q-36 0 -56 4.5t-41 20.5t-30 53t-9 97q0 63 9 100.5t30.5 56t45.5 23.5t66 5q36 0 56 -4.5t41 -20.5t30 -53t9 -97q0 -63 -9 -100.5t-30.5 -56t-45.5 -23.5t-66 -5zM190 296q31 0 48 4t30.5 17.5t18.5 40t5 72.5q0 94 -18 119t-71 25q-42 0 -61 -7.5t-30 -36.5
t-11 -90q0 -94 18 -119t71 -25z" />
    <glyph glyph-name="guillemotright" unicode="&#xbb;" horiz-adv-x="575" 
d="M265 242q0 -18 -4 -26t-16 -19l-174 -142q-15 -11 -21 -11q-10 0 -10 25q0 22 16 36l154 133v8l-154 133q-16 14 -16 36q0 25 10 25q6 0 21 -11l174 -142q12 -11 16 -19t4 -26zM535 242q0 -19 -4 -27.5t-16 -17.5l-184 -132q-15 -11 -21 -11q-10 0 -10 25q0 24 16 36
l164 123v8l-164 123q-16 12 -16 36q0 25 10 25q6 0 21 -11l184 -132q12 -9 16 -17.5t4 -27.5z" />
    <glyph glyph-name="onequarter" unicode="&#xbc;" horiz-adv-x="686" 
d="M584 0q-14 0 -18.5 4t-4.5 16v62h-164q-12 0 -12 21q0 20 7 30l149 219q8 12 42 12q16 0 20 -4t4 -16v-222h28q12 0 16 -3.5t4 -16.5t-4 -16.5t-16 -3.5h-28v-62q0 -12 -4.5 -16t-18.5 -4zM245 0q-20 0 -20 11q0 3 5 18l217 572q5 14 26 14q20 0 20 -11q0 -3 -5 -18
l-217 -572q-5 -14 -26 -14zM39 562q0 17 9 20l71 24q13 4 31 4q14 0 18 -3.5t4 -14.5v-304h68q10 0 14 -4t4 -16q0 -22 -18 -22h-178q-11 0 -14.5 4.5t-3.5 17.5q0 12 3.5 16t14.5 4h66v277l-62 -20q-11 -3 -17 -3q-10 0 -10 20zM563 315l-129 -193h129v193z" />
    <glyph glyph-name="onehalf" unicode="&#xbd;" horiz-adv-x="698" 
d="M245 0q-20 0 -20 11q0 3 5 18l217 572q5 14 26 14q20 0 20 -11q0 -3 -5 -18l-217 -572q-5 -14 -26 -14zM44 268q0 12 3.5 16t14.5 4h66v277l-62 -20q-11 -3 -17 -3q-10 0 -10 20q0 17 9 20l71 24q13 4 31 4q14 0 18 -3.5t4 -14.5v-304h68q10 0 14 -4t4 -16q0 -22 -18 -22
h-178q-11 0 -14.5 4.5t-3.5 17.5zM671 22q0 -22 -18 -22h-198q-10 0 -14 5t-4 19v12q0 19 24 44l111 116q41 42 41 78q0 30 -11.5 40t-43.5 10q-23 0 -44 -3.5t-33 -7t-15 -3.5q-7 0 -9 3t-2 17q0 17 21 23q44 12 83 12q50 0 75 -18t25 -67q0 -35 -12 -56t-50 -62l-114 -118
h170q18 0 18 -22z" />
    <glyph glyph-name="threequarters" unicode="&#xbe;" horiz-adv-x="678" 
d="M576 0q-14 0 -18.5 4t-4.5 16v62h-164q-12 0 -12 21q0 20 7 30l149 219q8 12 42 12q16 0 20 -4t4 -16v-222h28q12 0 16 -3.5t4 -16.5t-4 -16.5t-16 -3.5h-28v-62q0 -12 -4.5 -16t-18.5 -4zM143 242q-43 0 -91 13q-21 6 -21 23q0 13 2.5 16.5t8.5 3.5l34 -7q34 -7 65 -7
q38 0 55 13.5t17 49.5q0 15 -3 24.5t-12.5 20t-31.5 15.5t-58 5q-10 0 -13.5 4t-3.5 17t3.5 17.5t13.5 4.5q57 0 75 14t18 51q0 30 -12 40t-47 10q-27 0 -58 -7l-30 -7q-5 0 -7.5 1t-4 5.5t-1.5 13.5q0 17 22 23q44 12 85 12q50 0 74.5 -18t24.5 -67q0 -82 -72 -93
q84 -7 84 -86q0 -105 -116 -105zM237 0q-20 0 -20 11q0 3 5 18l217 572q5 14 26 14q20 0 20 -11q0 -3 -5 -18l-217 -572q-5 -14 -26 -14zM555 315l-129 -193h129v193z" />
    <glyph glyph-name="questiondown" unicode="&#xbf;" horiz-adv-x="355" 
d="M206 480q16 0 20.5 -4t4.5 -16v-30q0 -44 -9.5 -68t-32.5 -48l-86 -94q-16 -17 -23.5 -36.5t-7.5 -56.5q0 -55 22.5 -70t95.5 -15q32 0 62.5 5t48.5 10.5t21 5.5q8 0 10.5 -4t2.5 -18q0 -20 -23 -26q-63 -20 -132 -20q-30 0 -50 2t-42.5 9.5t-36 21t-22.5 39t-9 60.5
q0 47 12.5 74t43.5 60l77 82q28 30 28 87v30q0 12 4.5 16t20.5 4zM206 610q18 0 24 -4t6 -16v-26q0 -12 -6 -16t-24 -4t-24 4t-6 16v26q0 12 6 16t24 4z" />
    <glyph glyph-name="Agrave" unicode="&#xc0;" horiz-adv-x="502" 
d="M44 0q-24 0 -24 12q0 4 4 16l180 562q4 13 12 16.5t35 3.5t35 -3.5t12 -16.5l180 -562q4 -12 4 -16q0 -12 -24 -12q-25 0 -28 12l-60 188h-239l-59 -188q-3 -12 -28 -12zM245 562l-100 -317h211l-99 317h-12zM249 655q-15 0 -20.5 3t-11.5 11l-70 103q-8 11 -8 19
q0 10 29 10q26 0 33 -13l60 -105q7 -13 7 -18q0 -10 -19 -10z" />
    <glyph glyph-name="Aacute" unicode="&#xc1;" horiz-adv-x="502" 
d="M44 0q-24 0 -24 12q0 4 4 16l180 562q4 13 12 16.5t35 3.5t35 -3.5t12 -16.5l180 -562q4 -12 4 -16q0 -12 -24 -12q-25 0 -28 12l-60 188h-239l-59 -188q-3 -12 -28 -12zM245 562l-100 -317h211l-99 317h-12zM251 655q-19 0 -19 10q0 5 7 18l60 105q7 13 33 13
q29 0 29 -10q0 -8 -8 -19l-70 -103q-4 -6 -6.5 -8.5t-8.5 -4t-17 -1.5z" />
    <glyph glyph-name="Acircumflex" unicode="&#xc2;" horiz-adv-x="502" 
d="M44 0q-24 0 -24 12q0 4 4 16l180 562q4 13 12 16.5t35 3.5t35 -3.5t12 -16.5l180 -562q4 -12 4 -16q0 -12 -24 -12q-25 0 -28 12l-60 188h-239l-59 -188q-3 -12 -28 -12zM245 562l-100 -317h211l-99 317h-12zM253 759h-5l-56 -90q-9 -14 -32 -14q-24 0 -24 10q0 5 7 18
l65 105q7 13 33 13h19q26 0 33 -13l65 -105q7 -13 7 -18q0 -10 -24 -10q-23 0 -32 14z" />
    <glyph glyph-name="Atilde" unicode="&#xc3;" horiz-adv-x="502" 
d="M44 0q-24 0 -24 12q0 4 4 16l180 562q4 13 12 16.5t35 3.5t35 -3.5t12 -16.5l180 -562q4 -12 4 -16q0 -12 -24 -12q-25 0 -28 12l-60 188h-239l-59 -188q-3 -12 -28 -12zM245 562l-100 -317h211l-99 317h-12zM131 705q0 11 4.5 16.5t17.5 13.5q28 16 54 16q19 0 49 -10.5
t44 -10.5q19 0 39 10.5t22 10.5q9 0 9 -20q0 -11 -4.5 -16.5t-17.5 -13.5q-28 -16 -54 -16q-19 0 -49 10.5t-44 10.5q-19 0 -39 -10.5t-22 -10.5q-9 0 -9 20z" />
    <glyph glyph-name="Adieresis" unicode="&#xc4;" horiz-adv-x="502" 
d="M44 0q-24 0 -24 12q0 4 4 16l180 562q4 13 12 16.5t35 3.5t35 -3.5t12 -16.5l180 -562q4 -12 4 -16q0 -12 -24 -12q-25 0 -28 12l-60 188h-239l-59 -188q-3 -12 -28 -12zM245 562l-100 -317h211l-99 317h-12zM187 699q-18 0 -23.5 3.5t-5.5 16.5v26q0 13 5.5 16.5
t23.5 3.5t23.5 -3.5t5.5 -16.5v-26q0 -13 -5.5 -16.5t-23.5 -3.5zM314 699q-18 0 -23.5 3.5t-5.5 16.5v26q0 13 5.5 16.5t23.5 3.5t23.5 -3.5t5.5 -16.5v-26q0 -13 -5.5 -16.5t-23.5 -3.5z" />
    <glyph glyph-name="Aring" unicode="&#xc5;" horiz-adv-x="502" 
d="M44 0q-24 0 -24 12q0 4 4 16l180 562q4 13 12 16.5t35 3.5t35 -3.5t12 -16.5l180 -562q4 -12 4 -16q0 -12 -24 -12q-25 0 -28 12l-60 188h-239l-59 -188q-3 -12 -28 -12zM245 562l-100 -317h211l-99 317h-12zM251 673q-59 0 -74.5 17.5t-15.5 60.5t15.5 60.5t74.5 17.5
t74.5 -17.5t15.5 -60.5t-15.5 -60.5t-74.5 -17.5zM251 712q30 0 38 7.5t8 31.5t-8 31.5t-38 7.5t-38 -7.5t-8 -31.5t8 -31.5t38 -7.5z" />
    <glyph glyph-name="AE" unicode="&#xc6;" horiz-adv-x="718" 
d="M44 0q-24 0 -24 12q0 4 4 16l180 562q4 13 12 16.5t35 3.5h402q12 0 16 -4.5t4 -19.5t-4 -19.5t-16 -4.5h-270v-215h220q12 0 16 -4.5t4 -18.5t-4 -18.5t-16 -4.5h-220v-253h280q12 0 16 -4.5t4 -19.5t-4 -19.5t-16 -4.5h-305q-16 0 -20.5 4t-4.5 16v180h-202l-59 -188
q-3 -12 -28 -12zM245 562l-100 -317h188v317h-88z" />
    <glyph glyph-name="Ccedilla" unicode="&#xc7;" horiz-adv-x="450" 
d="M257 -190q-25 0 -44 4q-23 4 -23 23q0 13 2.5 17t10.5 4q2 0 15 -1.5t28 -1.5q11 0 17 1t10.5 5.5t4.5 13.5q0 5 -0.5 8.5t-4 6.5t-5.5 4.5t-9 6t-11 7.5q-28 19 -28 51v32q-45 2 -72 11.5t-50 38t-33 84.5t-10 145v65q0 78 8 129t21.5 81.5t41.5 46t56 19.5t76 4
q63 0 128 -19q14 -4 19 -8.5t5 -17.5q0 -14 -2.5 -17.5t-10.5 -3.5q-3 0 -22 5.5t-49.5 10.5t-60.5 5q-44 0 -67 -4t-44.5 -16t-30 -40t-13.5 -71t-5 -114v-45q0 -70 6 -114t15.5 -71t31 -40t44 -16.5t63.5 -3.5q32 0 62.5 5.5t48.5 10.5t21 5q8 0 10.5 -3.5t2.5 -17.5
q0 -13 -5 -17.5t-19 -8.5q-65 -19 -128 -19v-19q0 -11 2.5 -16.5t13.5 -12.5q35 -23 44.5 -35t9.5 -40q0 -57 -71 -57z" />
    <glyph glyph-name="Egrave" unicode="&#xc8;" horiz-adv-x="455" 
d="M420 24q0 -15 -4 -19.5t-16 -4.5h-305q-16 0 -20.5 4t-4.5 16v570q0 12 4.5 16t20.5 4h295q12 0 16 -4.5t4 -19.5t-4 -19.5t-16 -4.5h-270v-215h220q12 0 16 -4.5t4 -18.5t-4 -18.5t-16 -4.5h-220v-253h280q12 0 16 -4.5t4 -19.5zM243 655q-15 0 -20.5 3t-11.5 11
l-70 103q-8 11 -8 19q0 10 29 10q26 0 33 -13l60 -105q7 -13 7 -18q0 -10 -19 -10z" />
    <glyph glyph-name="Eacute" unicode="&#xc9;" horiz-adv-x="455" 
d="M420 24q0 -15 -4 -19.5t-16 -4.5h-305q-16 0 -20.5 4t-4.5 16v570q0 12 4.5 16t20.5 4h295q12 0 16 -4.5t4 -19.5t-4 -19.5t-16 -4.5h-270v-215h220q12 0 16 -4.5t4 -18.5t-4 -18.5t-16 -4.5h-220v-253h280q12 0 16 -4.5t4 -19.5zM217 655q-19 0 -19 10q0 5 7 18l60 105
q7 13 33 13q29 0 29 -10q0 -8 -8 -19l-70 -103q-4 -6 -6.5 -8.5t-8.5 -4t-17 -1.5z" />
    <glyph glyph-name="Ecircumflex" unicode="&#xca;" horiz-adv-x="455" 
d="M420 24q0 -15 -4 -19.5t-16 -4.5h-305q-16 0 -20.5 4t-4.5 16v570q0 12 4.5 16t20.5 4h295q12 0 16 -4.5t4 -19.5t-4 -19.5t-16 -4.5h-270v-215h220q12 0 16 -4.5t4 -18.5t-4 -18.5t-16 -4.5h-220v-253h280q12 0 16 -4.5t4 -19.5zM242 759h-5l-56 -90q-9 -14 -32 -14
q-24 0 -24 10q0 5 7 18l65 105q7 13 33 13h19q26 0 33 -13l65 -105q7 -13 7 -18q0 -10 -24 -10q-23 0 -32 14z" />
    <glyph glyph-name="Edieresis" unicode="&#xcb;" horiz-adv-x="455" 
d="M420 24q0 -15 -4 -19.5t-16 -4.5h-305q-16 0 -20.5 4t-4.5 16v570q0 12 4.5 16t20.5 4h295q12 0 16 -4.5t4 -19.5t-4 -19.5t-16 -4.5h-270v-215h220q12 0 16 -4.5t4 -18.5t-4 -18.5t-16 -4.5h-220v-253h280q12 0 16 -4.5t4 -19.5zM177 699q-18 0 -23.5 3.5t-5.5 16.5v26
q0 13 5.5 16.5t23.5 3.5t23.5 -3.5t5.5 -16.5v-26q0 -13 -5.5 -16.5t-23.5 -3.5zM304 699q-18 0 -23.5 3.5t-5.5 16.5v26q0 13 5.5 16.5t23.5 3.5t23.5 -3.5t5.5 -16.5v-26q0 -13 -5.5 -16.5t-23.5 -3.5z" />
    <glyph glyph-name="Igrave" unicode="&#xcc;" horiz-adv-x="190" 
d="M95 0q-16 0 -20.5 4t-4.5 16v570q0 12 4.5 16t20.5 4t20.5 -4t4.5 -16v-570q0 -12 -4.5 -16t-20.5 -4zM101 655q-15 0 -20.5 3t-11.5 11l-70 103q-8 11 -8 19q0 10 29 10q26 0 33 -13l60 -105q7 -13 7 -18q0 -10 -19 -10z" />
    <glyph glyph-name="Iacute" unicode="&#xcd;" horiz-adv-x="190" 
d="M95 0q-16 0 -20.5 4t-4.5 16v570q0 12 4.5 16t20.5 4t20.5 -4t4.5 -16v-570q0 -12 -4.5 -16t-20.5 -4zM91 655q-19 0 -19 10q0 5 7 18l60 105q7 13 33 13q29 0 29 -10q0 -8 -8 -19l-70 -103q-4 -6 -6.5 -8.5t-8.5 -4t-17 -1.5z" />
    <glyph glyph-name="Icircumflex" unicode="&#xce;" horiz-adv-x="190" 
d="M95 0q-16 0 -20.5 4t-4.5 16v570q0 12 4.5 16t20.5 4t20.5 -4t4.5 -16v-570q0 -12 -4.5 -16t-20.5 -4zM98 759h-5l-56 -90q-9 -14 -32 -14q-24 0 -24 10q0 5 7 18l65 105q7 13 33 13h19q26 0 33 -13l65 -105q7 -13 7 -18q0 -10 -24 -10q-23 0 -32 14z" />
    <glyph glyph-name="Idieresis" unicode="&#xcf;" horiz-adv-x="190" 
d="M95 0q-16 0 -20.5 4t-4.5 16v570q0 12 4.5 16t20.5 4t20.5 -4t4.5 -16v-570q0 -12 -4.5 -16t-20.5 -4zM32 699q-18 0 -23.5 3.5t-5.5 16.5v26q0 13 5.5 16.5t23.5 3.5t23.5 -3.5t5.5 -16.5v-26q0 -13 -5.5 -16.5t-23.5 -3.5zM159 699q-18 0 -23.5 3.5t-5.5 16.5v26
q0 13 5.5 16.5t23.5 3.5t23.5 -3.5t5.5 -16.5v-26q0 -13 -5.5 -16.5t-23.5 -3.5z" />
    <glyph glyph-name="Eth" unicode="&#xd0;" horiz-adv-x="520" 
d="M11 310q0 15 4 19.5t16 4.5h39v246q0 22 25 26q66 9 145 9q46 0 74 -2.5t56.5 -12.5t44 -28.5t28 -51t17.5 -80t5 -115.5v-45q0 -67 -5.5 -115t-18.5 -80t-28 -51t-41.5 -28.5t-51.5 -12.5t-65 -3q-80 0 -153 8q-32 4 -32 27v261h-39q-12 0 -16 4.5t-4 19.5zM255 37
q52 0 77 5.5t47 29.5t29 72.5t7 135.5v45q0 69 -6.5 113.5t-17 71t-34.5 39t-48 16t-69 3.5q-60 0 -120 -6v-228h42q12 0 16 -4.5t4 -19.5t-4 -19.5t-16 -4.5h-42v-243q50 -6 135 -6z" />
    <glyph glyph-name="Ntilde" unicode="&#xd1;" horiz-adv-x="534" 
d="M95 0q-16 0 -20.5 4t-4.5 16v570q0 12 9 16t41 4q30 0 39.5 -3.5t15.5 -16.5l229 -540h10v540q0 12 4.5 16t20.5 4t20.5 -4t4.5 -16v-570q0 -12 -9 -16t-41 -4q-30 0 -39.5 3.5t-15.5 16.5l-229 540h-10v-540q0 -12 -4.5 -16t-20.5 -4zM147 715q0 11 4.5 16.5t17.5 13.5
q28 16 54 16q19 0 49 -10.5t44 -10.5q19 0 39 10.5t22 10.5q9 0 9 -20q0 -11 -4.5 -16.5t-17.5 -13.5q-28 -16 -54 -16q-19 0 -49 10.5t-44 10.5q-19 0 -39 -10.5t-22 -10.5q-9 0 -9 20z" />
    <glyph glyph-name="Ograve" unicode="&#xd2;" horiz-adv-x="520" 
d="M260 -10q-52 0 -83 5.5t-57.5 21.5t-39 49t-19 83.5t-6.5 130.5v45q0 80 8.5 133.5t22.5 85t42 47t56 20t76 4.5q52 0 83 -5.5t57.5 -21.5t39 -49t19 -83.5t6.5 -130.5v-45q0 -80 -8.5 -133.5t-22.5 -85t-42 -47t-56 -20t-76 -4.5zM260 35q41 0 64.5 4.5t43.5 18t29 41.5
t13.5 70.5t4.5 110.5v45q0 70 -3.5 110.5t-11.5 70t-27.5 42t-44 17.5t-68.5 5q-41 0 -64.5 -4.5t-43.5 -18t-29 -41.5t-13.5 -70.5t-4.5 -110.5v-45q0 -70 3.5 -110.5t11.5 -70t27.5 -42t44 -17.5t68.5 -5zM282 655q-15 0 -20.5 3t-11.5 11l-70 103q-8 11 -8 19q0 10 29 10
q26 0 33 -13l60 -105q7 -13 7 -18q0 -10 -19 -10z" />
    <glyph glyph-name="Oacute" unicode="&#xd3;" horiz-adv-x="520" 
d="M260 -10q-52 0 -83 5.5t-57.5 21.5t-39 49t-19 83.5t-6.5 130.5v45q0 80 8.5 133.5t22.5 85t42 47t56 20t76 4.5q52 0 83 -5.5t57.5 -21.5t39 -49t19 -83.5t6.5 -130.5v-45q0 -80 -8.5 -133.5t-22.5 -85t-42 -47t-56 -20t-76 -4.5zM260 35q41 0 64.5 4.5t43.5 18t29 41.5
t13.5 70.5t4.5 110.5v45q0 70 -3.5 110.5t-11.5 70t-27.5 42t-44 17.5t-68.5 5q-41 0 -64.5 -4.5t-43.5 -18t-29 -41.5t-13.5 -70.5t-4.5 -110.5v-45q0 -70 3.5 -110.5t11.5 -70t27.5 -42t44 -17.5t68.5 -5zM236 655q-19 0 -19 10q0 5 7 18l60 105q7 13 33 13q29 0 29 -10
q0 -8 -8 -19l-70 -103q-4 -6 -6.5 -8.5t-8.5 -4t-17 -1.5z" />
    <glyph glyph-name="Ocircumflex" unicode="&#xd4;" horiz-adv-x="520" 
d="M260 -10q-52 0 -83 5.5t-57.5 21.5t-39 49t-19 83.5t-6.5 130.5v45q0 80 8.5 133.5t22.5 85t42 47t56 20t76 4.5q52 0 83 -5.5t57.5 -21.5t39 -49t19 -83.5t6.5 -130.5v-45q0 -80 -8.5 -133.5t-22.5 -85t-42 -47t-56 -20t-76 -4.5zM260 35q41 0 64.5 4.5t43.5 18t29 41.5
t13.5 70.5t4.5 110.5v45q0 70 -3.5 110.5t-11.5 70t-27.5 42t-44 17.5t-68.5 5q-41 0 -64.5 -4.5t-43.5 -18t-29 -41.5t-13.5 -70.5t-4.5 -110.5v-45q0 -70 3.5 -110.5t11.5 -70t27.5 -42t44 -17.5t68.5 -5zM263 759h-5l-56 -90q-9 -14 -32 -14q-24 0 -24 10q0 5 7 18
l65 105q7 13 33 13h19q26 0 33 -13l65 -105q7 -13 7 -18q0 -10 -24 -10q-23 0 -32 14z" />
    <glyph glyph-name="Otilde" unicode="&#xd5;" horiz-adv-x="520" 
d="M260 -10q-52 0 -83 5.5t-57.5 21.5t-39 49t-19 83.5t-6.5 130.5v45q0 80 8.5 133.5t22.5 85t42 47t56 20t76 4.5q52 0 83 -5.5t57.5 -21.5t39 -49t19 -83.5t6.5 -130.5v-45q0 -80 -8.5 -133.5t-22.5 -85t-42 -47t-56 -20t-76 -4.5zM260 35q41 0 64.5 4.5t43.5 18t29 41.5
t13.5 70.5t4.5 110.5v45q0 70 -3.5 110.5t-11.5 70t-27.5 42t-44 17.5t-68.5 5q-41 0 -64.5 -4.5t-43.5 -18t-29 -41.5t-13.5 -70.5t-4.5 -110.5v-45q0 -70 3.5 -110.5t11.5 -70t27.5 -42t44 -17.5t68.5 -5zM141 705q0 11 4.5 16.5t17.5 13.5q28 16 54 16q19 0 49 -10.5
t44 -10.5q19 0 39 10.5t22 10.5q9 0 9 -20q0 -11 -4.5 -16.5t-17.5 -13.5q-28 -16 -54 -16q-19 0 -49 10.5t-44 10.5q-19 0 -39 -10.5t-22 -10.5q-9 0 -9 20z" />
    <glyph glyph-name="Odieresis" unicode="&#xd6;" horiz-adv-x="520" 
d="M260 -10q-52 0 -83 5.5t-57.5 21.5t-39 49t-19 83.5t-6.5 130.5v45q0 80 8.5 133.5t22.5 85t42 47t56 20t76 4.5q52 0 83 -5.5t57.5 -21.5t39 -49t19 -83.5t6.5 -130.5v-45q0 -80 -8.5 -133.5t-22.5 -85t-42 -47t-56 -20t-76 -4.5zM260 35q41 0 64.5 4.5t43.5 18t29 41.5
t13.5 70.5t4.5 110.5v45q0 70 -3.5 110.5t-11.5 70t-27.5 42t-44 17.5t-68.5 5q-41 0 -64.5 -4.5t-43.5 -18t-29 -41.5t-13.5 -70.5t-4.5 -110.5v-45q0 -70 3.5 -110.5t11.5 -70t27.5 -42t44 -17.5t68.5 -5zM197 699q-18 0 -23.5 3.5t-5.5 16.5v26q0 13 5.5 16.5t23.5 3.5
t23.5 -3.5t5.5 -16.5v-26q0 -13 -5.5 -16.5t-23.5 -3.5zM324 699q-18 0 -23.5 3.5t-5.5 16.5v26q0 13 5.5 16.5t23.5 3.5t23.5 -3.5t5.5 -16.5v-26q0 -13 -5.5 -16.5t-23.5 -3.5z" />
    <glyph glyph-name="multiply" unicode="&#xd7;" 
d="M92 134q0 6 12 20l92 116l-92 124q-12 14 -12 20q0 14 28 14q24 0 33 -12l73 -105l74 105q9 12 33 12q28 0 28 -14q0 -6 -12 -20l-93 -124l93 -116q12 -14 12 -20q0 -14 -28 -14q-24 0 -33 12l-74 98l-73 -98q-9 -12 -33 -12q-28 0 -28 14z" />
    <glyph glyph-name="Oslash" unicode="&#xd8;" horiz-adv-x="520" 
d="M260 -10q-48 0 -76 4.5t-56 20t-42 47t-22.5 85t-8.5 133.5v45q0 80 6.5 130.5t19 83.5t39 49t57.5 21.5t83 5.5t83 -5.5t57.5 -21.5t39 -49t19 -83.5t6.5 -130.5v-45q0 -80 -8.5 -133.5t-22.5 -85t-42 -47t-56 -20t-76 -4.5zM105 325v-45q0 -119 13 -167l271 415
q-16 25 -45 33.5t-84 8.5q-44 0 -68.5 -5t-44 -17.5t-27.5 -42t-11.5 -70t-3.5 -110.5zM260 35q41 0 64.5 4.5t43.5 18t29 41.5t13.5 70.5t4.5 110.5v45q0 104 -8 151l-266 -408q18 -20 45 -26.5t74 -6.5z" />
    <glyph glyph-name="Ugrave" unicode="&#xd9;" horiz-adv-x="516" 
d="M258 -10q-99 0 -143.5 42t-44.5 138v420q0 12 4.5 16t20.5 4t20.5 -4t4.5 -16v-420q0 -71 29 -100.5t109 -29.5t109 29.5t29 100.5v420q0 12 4.5 16t20.5 4t20.5 -4t4.5 -16v-420q0 -96 -44.5 -138t-143.5 -42zM283 655q-15 0 -20.5 3t-11.5 11l-70 103q-8 11 -8 19
q0 10 29 10q26 0 33 -13l60 -105q7 -13 7 -18q0 -10 -19 -10z" />
    <glyph glyph-name="Uacute" unicode="&#xda;" horiz-adv-x="516" 
d="M258 -10q-99 0 -143.5 42t-44.5 138v420q0 12 4.5 16t20.5 4t20.5 -4t4.5 -16v-420q0 -71 29 -100.5t109 -29.5t109 29.5t29 100.5v420q0 12 4.5 16t20.5 4t20.5 -4t4.5 -16v-420q0 -96 -44.5 -138t-143.5 -42zM232 655q-19 0 -19 10q0 5 7 18l60 105q7 13 33 13
q29 0 29 -10q0 -8 -8 -19l-70 -103q-4 -6 -6.5 -8.5t-8.5 -4t-17 -1.5z" />
    <glyph glyph-name="Ucircumflex" unicode="&#xdb;" horiz-adv-x="516" 
d="M258 -10q-99 0 -143.5 42t-44.5 138v420q0 12 4.5 16t20.5 4t20.5 -4t4.5 -16v-420q0 -71 29 -100.5t109 -29.5t109 29.5t29 100.5v420q0 12 4.5 16t20.5 4t20.5 -4t4.5 -16v-420q0 -96 -44.5 -138t-143.5 -42zM261 759h-5l-56 -90q-9 -14 -32 -14q-24 0 -24 10q0 5 7 18
l65 105q7 13 33 13h19q26 0 33 -13l65 -105q7 -13 7 -18q0 -10 -24 -10q-23 0 -32 14z" />
    <glyph glyph-name="Udieresis" unicode="&#xdc;" horiz-adv-x="516" 
d="M258 -10q-99 0 -143.5 42t-44.5 138v420q0 12 4.5 16t20.5 4t20.5 -4t4.5 -16v-420q0 -71 29 -100.5t109 -29.5t109 29.5t29 100.5v420q0 12 4.5 16t20.5 4t20.5 -4t4.5 -16v-420q0 -96 -44.5 -138t-143.5 -42zM195 699q-18 0 -23.5 3.5t-5.5 16.5v26q0 13 5.5 16.5
t23.5 3.5t23.5 -3.5t5.5 -16.5v-26q0 -13 -5.5 -16.5t-23.5 -3.5zM322 699q-18 0 -23.5 3.5t-5.5 16.5v26q0 13 5.5 16.5t23.5 3.5t23.5 -3.5t5.5 -16.5v-26q0 -13 -5.5 -16.5t-23.5 -3.5z" />
    <glyph glyph-name="Yacute" unicode="&#xdd;" horiz-adv-x="436" 
d="M218 0q-16 0 -20.5 4t-4.5 16v224l-167 335q-6 12 -6 18q0 13 25 13q27 0 33 -12l138 -296h4l138 296q6 12 33 12q25 0 25 -13q0 -6 -6 -18l-167 -335v-224q0 -12 -4.5 -16t-20.5 -4zM199 655q-19 0 -19 10q0 5 7 18l60 105q7 13 33 13q29 0 29 -10q0 -8 -8 -19l-70 -103
q-4 -6 -6.5 -8.5t-8.5 -4t-17 -1.5z" />
    <glyph glyph-name="Thorn" unicode="&#xde;" horiz-adv-x="464" 
d="M95 0q-16 0 -20.5 4t-4.5 16v570q0 12 4.5 16t20.5 4t20.5 -4t4.5 -16v-106q72 7 105 7q62 0 95.5 -5t59.5 -22t35 -49.5t9 -88.5q0 -106 -41.5 -150.5t-157.5 -44.5h-105v-111q0 -12 -4.5 -16t-20.5 -4zM120 438v-262h105q86 0 115.5 31t29.5 119q0 75 -26 96.5
t-119 21.5q-41 0 -105 -6z" />
    <glyph glyph-name="germandbls" unicode="&#xdf;" horiz-adv-x="451" 
d="M284 370q0 -27 7.5 -41t26.5 -27l68 -46q45 -30 45 -116q0 -76 -32 -113t-99 -37q-49 0 -89 14q-15 5 -19 10t-4 17q0 21 9 21q1 0 35.5 -8t66.5 -8q49 0 65 23.5t16 75.5q0 21 -0.5 30t-3 21t-9 19.5t-17.5 14.5l-62 40q-53 34 -53 101q0 40 25 102.5t25 89.5
q0 40 -21.5 51t-75.5 11q-46 0 -57 -13.5t-11 -71.5v-510q0 -13 -4.5 -16.5t-20.5 -3.5t-20.5 3.5t-4.5 16.5v520q0 65 23 92.5t95 27.5q76 0 111.5 -21.5t35.5 -76.5q0 -38 -25.5 -102.5t-25.5 -89.5z" />
    <glyph glyph-name="agrave" unicode="&#xe0;" horiz-adv-x="485" 
d="M179 -10q-67 0 -98 31.5t-31 105.5t38.5 104.5t133.5 30.5h128v103q0 55 -22.5 72.5t-81.5 17.5q-48 0 -101 -10.5t-54 -10.5q-11 0 -11 20q0 21 17 25q71 21 151 21q82 0 117 -26t35 -104v-213q0 -34 6 -67t12.5 -53.5t6.5 -23.5q0 -13 -24 -13q-14 0 -19 3t-8 13
l-18 73q-24 -49 -72 -74t-105 -25zM187 36q68 0 115.5 39t47.5 101v47l-134 -5q-70 -3 -93 -20t-23 -67q0 -59 19 -77t68 -18zM261 540q-15 0 -20.5 3t-11.5 11l-70 103q-8 11 -8 19q0 10 29 10q26 0 33 -13l60 -105q7 -13 7 -18q0 -10 -19 -10z" />
    <glyph glyph-name="aacute" unicode="&#xe1;" horiz-adv-x="485" 
d="M179 -10q-67 0 -98 31.5t-31 105.5t38.5 104.5t133.5 30.5h128v103q0 55 -22.5 72.5t-81.5 17.5q-48 0 -101 -10.5t-54 -10.5q-11 0 -11 20q0 21 17 25q71 21 151 21q82 0 117 -26t35 -104v-213q0 -34 6 -67t12.5 -53.5t6.5 -23.5q0 -13 -24 -13q-14 0 -19 3t-8 13
l-18 73q-24 -49 -72 -74t-105 -25zM187 36q68 0 115.5 39t47.5 101v47l-134 -5q-70 -3 -93 -20t-23 -67q0 -59 19 -77t68 -18zM220 540q-19 0 -19 10q0 5 7 18l60 105q7 13 33 13q29 0 29 -10q0 -8 -8 -19l-70 -103q-4 -6 -6.5 -8.5t-8.5 -4t-17 -1.5z" />
    <glyph glyph-name="acircumflex" unicode="&#xe2;" horiz-adv-x="485" 
d="M179 -10q-67 0 -98 31.5t-31 105.5t38.5 104.5t133.5 30.5h128v103q0 55 -22.5 72.5t-81.5 17.5q-48 0 -101 -10.5t-54 -10.5q-11 0 -11 20q0 21 17 25q71 21 151 21q82 0 117 -26t35 -104v-213q0 -34 6 -67t12.5 -53.5t6.5 -23.5q0 -13 -24 -13q-14 0 -19 3t-8 13
l-18 73q-24 -49 -72 -74t-105 -25zM187 36q68 0 115.5 39t47.5 101v47l-134 -5q-70 -3 -93 -20t-23 -67q0 -59 19 -77t68 -18zM234 644h-5l-56 -90q-9 -14 -32 -14q-24 0 -24 10q0 5 7 18l65 105q7 13 33 13h19q26 0 33 -13l65 -105q7 -13 7 -18q0 -10 -24 -10q-23 0 -32 14
z" />
    <glyph glyph-name="atilde" unicode="&#xe3;" horiz-adv-x="485" 
d="M179 -10q-67 0 -98 31.5t-31 105.5t38.5 104.5t133.5 30.5h128v103q0 55 -22.5 72.5t-81.5 17.5q-48 0 -101 -10.5t-54 -10.5q-11 0 -11 20q0 21 17 25q71 21 151 21q82 0 117 -26t35 -104v-213q0 -34 6 -67t12.5 -53.5t6.5 -23.5q0 -13 -24 -13q-14 0 -19 3t-8 13
l-18 73q-24 -49 -72 -74t-105 -25zM187 36q68 0 115.5 39t47.5 101v47l-134 -5q-70 -3 -93 -20t-23 -67q0 -59 19 -77t68 -18zM112 590q0 11 4.5 16.5t17.5 13.5q28 16 54 16q19 0 49 -10.5t44 -10.5q19 0 39 10.5t22 10.5q9 0 9 -20q0 -11 -4.5 -16.5t-17.5 -13.5
q-28 -16 -54 -16q-19 0 -49 10.5t-44 10.5q-19 0 -39 -10.5t-22 -10.5q-9 0 -9 20z" />
    <glyph glyph-name="adieresis" unicode="&#xe4;" horiz-adv-x="485" 
d="M179 -10q-67 0 -98 31.5t-31 105.5t38.5 104.5t133.5 30.5h128v103q0 55 -22.5 72.5t-81.5 17.5q-48 0 -101 -10.5t-54 -10.5q-11 0 -11 20q0 21 17 25q71 21 151 21q82 0 117 -26t35 -104v-213q0 -34 6 -67t12.5 -53.5t6.5 -23.5q0 -13 -24 -13q-14 0 -19 3t-8 13
l-18 73q-24 -49 -72 -74t-105 -25zM187 36q68 0 115.5 39t47.5 101v47l-134 -5q-70 -3 -93 -20t-23 -67q0 -59 19 -77t68 -18zM168 584q-18 0 -23.5 3.5t-5.5 16.5v26q0 13 5.5 16.5t23.5 3.5t23.5 -3.5t5.5 -16.5v-26q0 -13 -5.5 -16.5t-23.5 -3.5zM295 584
q-18 0 -23.5 3.5t-5.5 16.5v26q0 13 5.5 16.5t23.5 3.5t23.5 -3.5t5.5 -16.5v-26q0 -13 -5.5 -16.5t-23.5 -3.5z" />
    <glyph glyph-name="aring" unicode="&#xe5;" horiz-adv-x="485" 
d="M179 -10q-67 0 -98 31.5t-31 105.5t38.5 104.5t133.5 30.5h128v103q0 55 -22.5 72.5t-81.5 17.5q-48 0 -101 -10.5t-54 -10.5q-11 0 -11 20q0 21 17 25q71 21 151 21q82 0 117 -26t35 -104v-213q0 -34 6 -67t12.5 -53.5t6.5 -23.5q0 -13 -24 -13q-14 0 -19 3t-8 13
l-18 73q-24 -49 -72 -74t-105 -25zM187 36q68 0 115.5 39t47.5 101v47l-134 -5q-70 -3 -93 -20t-23 -67q0 -59 19 -77t68 -18zM231 558q-59 0 -74.5 17.5t-15.5 60.5t15.5 60.5t74.5 17.5t74.5 -17.5t15.5 -60.5t-15.5 -60.5t-74.5 -17.5zM231 597q30 0 38 7.5t8 31.5
t-8 31.5t-38 7.5t-38 -7.5t-8 -31.5t8 -31.5t38 -7.5z" />
    <glyph glyph-name="ae" unicode="&#xe6;" horiz-adv-x="748" 
d="M179 -10q-67 0 -98 31.5t-31 105.5t38.5 104.5t133.5 30.5h128v103q0 55 -22.5 72.5t-81.5 17.5q-48 0 -101 -10.5t-54 -10.5q-11 0 -11 20q0 21 17 25q71 21 151 21q59 0 92 -12t48 -45q22 35 56 46t90 11q45 0 75.5 -10t48 -26.5t26.5 -48.5t11.5 -63.5t2.5 -84.5
q0 -17 -5.5 -24.5t-22.5 -7.5h-269q0 -58 4.5 -93.5t11 -58t22.5 -32t32 -12.5t47 -3q45 0 82.5 6t58 12t24.5 6q9 0 9 -20q0 -13 -4.5 -18t-18.5 -10q-59 -22 -144 -22q-76 0 -113.5 20t-51.5 88q-22 -54 -71.5 -81t-109.5 -27zM532 456q-55 0 -80 -12t-37 -49t-14 -117
h245q0 38 -0.5 55.5t-3.5 43t-10 36t-19.5 23t-32.5 16.5t-48 4zM187 36q68 0 115.5 39t47.5 101v47l-134 -5q-70 -3 -93 -20t-23 -67q0 -59 19 -77t68 -18z" />
    <glyph glyph-name="ccedilla" unicode="&#xe7;" horiz-adv-x="426" 
d="M234 -190q-25 0 -44 4q-23 4 -23 23q0 13 2.5 17t10.5 4q2 0 15 -1.5t28 -1.5q11 0 17 1t10.5 5.5t4.5 13.5q0 5 -0.5 8.5t-4 6.5t-5.5 4.5t-9 6t-11 7.5q-28 19 -28 51v32q-53 4 -81 25t-42 73t-14 150q0 71 9.5 120.5t24.5 77t41 42t50 18t61 3.5q52 0 117 -17
q14 -4 18.5 -9t4.5 -19q0 -13 -2.5 -16.5t-8.5 -3.5l-48 11q-48 10 -83 10q-53 0 -78.5 -13.5t-39 -59t-13.5 -138.5q0 -137 22 -173t111 -36q42 0 86 12t45 12q9 0 9 -20q0 -13 -4.5 -18t-18.5 -10q-59 -22 -128 -22v-19q0 -11 2.5 -16.5t13.5 -12.5q35 -23 44.5 -35
t9.5 -40q0 -57 -71 -57z" />
    <glyph glyph-name="egrave" unicode="&#xe8;" 
d="M248 -10q-46 0 -74.5 5t-52.5 19t-36 42.5t-18.5 72t-6.5 110.5q0 71 9.5 120.5t24.5 77t41 42t50 18t61 3.5q45 0 75.5 -10t48 -26.5t26.5 -48.5t11.5 -63.5t2.5 -84.5q0 -17 -5.5 -24.5t-22.5 -7.5h-269q0 -130 24 -164.5t119 -34.5q34 0 65 6t50 12t24 6q9 0 9 -20
q0 -13 -4.5 -18t-18.5 -10q-59 -22 -133 -22zM244 456q-50 0 -75 -12t-39.5 -50.5t-16.5 -115.5h245q0 38 -0.5 55.5t-3.5 43t-10 36t-19.5 23t-32.5 16.5t-48 4zM267 540q-15 0 -20.5 3t-11.5 11l-70 103q-8 11 -8 19q0 10 29 10q26 0 33 -13l60 -105q7 -13 7 -18
q0 -10 -19 -10z" />
    <glyph glyph-name="eacute" unicode="&#xe9;" 
d="M248 -10q-46 0 -74.5 5t-52.5 19t-36 42.5t-18.5 72t-6.5 110.5q0 71 9.5 120.5t24.5 77t41 42t50 18t61 3.5q45 0 75.5 -10t48 -26.5t26.5 -48.5t11.5 -63.5t2.5 -84.5q0 -17 -5.5 -24.5t-22.5 -7.5h-269q0 -130 24 -164.5t119 -34.5q34 0 65 6t50 12t24 6q9 0 9 -20
q0 -13 -4.5 -18t-18.5 -10q-59 -22 -133 -22zM244 456q-50 0 -75 -12t-39.5 -50.5t-16.5 -115.5h245q0 38 -0.5 55.5t-3.5 43t-10 36t-19.5 23t-32.5 16.5t-48 4zM216 540q-19 0 -19 10q0 5 7 18l60 105q7 13 33 13q29 0 29 -10q0 -8 -8 -19l-70 -103q-4 -6 -6.5 -8.5
t-8.5 -4t-17 -1.5z" />
    <glyph glyph-name="ecircumflex" unicode="&#xea;" 
d="M248 -10q-46 0 -74.5 5t-52.5 19t-36 42.5t-18.5 72t-6.5 110.5q0 71 9.5 120.5t24.5 77t41 42t50 18t61 3.5q45 0 75.5 -10t48 -26.5t26.5 -48.5t11.5 -63.5t2.5 -84.5q0 -17 -5.5 -24.5t-22.5 -7.5h-269q0 -130 24 -164.5t119 -34.5q34 0 65 6t50 12t24 6q9 0 9 -20
q0 -13 -4.5 -18t-18.5 -10q-59 -22 -133 -22zM244 456q-50 0 -75 -12t-39.5 -50.5t-16.5 -115.5h245q0 38 -0.5 55.5t-3.5 43t-10 36t-19.5 23t-32.5 16.5t-48 4zM244 644h-5l-56 -90q-9 -14 -32 -14q-24 0 -24 10q0 5 7 18l65 105q7 13 33 13h19q26 0 33 -13l65 -105
q7 -13 7 -18q0 -10 -24 -10q-23 0 -32 14z" />
    <glyph glyph-name="edieresis" unicode="&#xeb;" 
d="M248 -10q-46 0 -74.5 5t-52.5 19t-36 42.5t-18.5 72t-6.5 110.5q0 71 9.5 120.5t24.5 77t41 42t50 18t61 3.5q45 0 75.5 -10t48 -26.5t26.5 -48.5t11.5 -63.5t2.5 -84.5q0 -17 -5.5 -24.5t-22.5 -7.5h-269q0 -130 24 -164.5t119 -34.5q34 0 65 6t50 12t24 6q9 0 9 -20
q0 -13 -4.5 -18t-18.5 -10q-59 -22 -133 -22zM244 456q-50 0 -75 -12t-39.5 -50.5t-16.5 -115.5h245q0 38 -0.5 55.5t-3.5 43t-10 36t-19.5 23t-32.5 16.5t-48 4zM178 584q-18 0 -23.5 3.5t-5.5 16.5v26q0 13 5.5 16.5t23.5 3.5t23.5 -3.5t5.5 -16.5v-26q0 -13 -5.5 -16.5
t-23.5 -3.5zM305 584q-18 0 -23.5 3.5t-5.5 16.5v26q0 13 5.5 16.5t23.5 3.5t23.5 -3.5t5.5 -16.5v-26q0 -13 -5.5 -16.5t-23.5 -3.5z" />
    <glyph glyph-name="igrave" unicode="&#xec;" horiz-adv-x="195" 
d="M108 540q-15 0 -20.5 3t-11.5 11l-70 103q-8 11 -8 19q0 10 29 10q26 0 33 -13l60 -105q7 -13 7 -18q0 -10 -19 -10zM95 0q-16 0 -20.5 3.5t-4.5 16.5v450q0 13 4.5 16.5t20.5 3.5t20.5 -3.5t4.5 -16.5v-450q0 -13 -4.5 -16.5t-20.5 -3.5z" />
    <glyph glyph-name="iacute" unicode="&#xed;" horiz-adv-x="195" 
d="M83 540q-19 0 -19 10q0 5 7 18l60 105q7 13 33 13q29 0 29 -10q0 -8 -8 -19l-70 -103q-4 -6 -6.5 -8.5t-8.5 -4t-17 -1.5zM95 0q-16 0 -20.5 3.5t-4.5 16.5v450q0 13 4.5 16.5t20.5 3.5t20.5 -3.5t4.5 -16.5v-450q0 -13 -4.5 -16.5t-20.5 -3.5z" />
    <glyph glyph-name="icircumflex" unicode="&#xee;" horiz-adv-x="195" 
d="M96 0q-16 0 -20.5 3.5t-4.5 16.5v450q0 13 4.5 16.5t20.5 3.5t20.5 -3.5t4.5 -16.5v-450q0 -13 -4.5 -16.5t-20.5 -3.5zM100 644h-5l-56 -90q-9 -14 -32 -14q-24 0 -24 10q0 5 7 18l65 105q7 13 33 13h19q26 0 33 -13l65 -105q7 -13 7 -18q0 -10 -24 -10q-23 0 -32 14z
" />
    <glyph glyph-name="idieresis" unicode="&#xef;" horiz-adv-x="195" 
d="M34 584q-18 0 -23.5 3.5t-5.5 16.5v26q0 13 5.5 16.5t23.5 3.5t23.5 -3.5t5.5 -16.5v-26q0 -13 -5.5 -16.5t-23.5 -3.5zM161 584q-18 0 -23.5 3.5t-5.5 16.5v26q0 13 5.5 16.5t23.5 3.5t23.5 -3.5t5.5 -16.5v-26q0 -13 -5.5 -16.5t-23.5 -3.5zM95 0q-16 0 -20.5 3.5
t-4.5 16.5v450q0 13 4.5 16.5t20.5 3.5t20.5 -3.5t4.5 -16.5v-450q0 -13 -4.5 -16.5t-20.5 -3.5z" />
    <glyph glyph-name="eth" unicode="&#xf0;" horiz-adv-x="492" 
d="M403 581q0 -8 -9 -11l-49 -12q87 -136 87 -308q0 -148 -43.5 -204t-150.5 -56q-73 0 -109.5 19t-52.5 71.5t-16 159.5q0 154 37.5 207t137.5 53q68 0 104 -26q-14 35 -38 73l-53 -13q-8 -2 -11 -2q-8 0 -11 12q-3 10 -3 15q0 8 9 11l46 11q-7 9 -18 21.5t-14.5 18
t-3.5 10.5q0 10 16 10q20 0 27 -7q18 -18 36 -42l57 14q8 2 11 2q8 0 11 -12q3 -10 3 -15zM239 35q87 0 114 39.5t27 165.5q0 92 -12.5 137.5t-38 61.5t-77.5 16q-93 0 -116.5 -35.5t-23.5 -169.5q0 -139 21 -177t106 -38z" />
    <glyph glyph-name="ntilde" unicode="&#xf1;" horiz-adv-x="505" 
d="M110 0q-16 0 -20.5 3.5t-4.5 16.5v313q0 34 -6.5 67t-12.5 53.5t-6 23.5q0 13 24 13q14 0 19 -3t8 -13l15 -64q20 48 62 69t113 21q79 0 106.5 -30.5t27.5 -94.5v-355q0 -13 -4.5 -16.5t-20.5 -3.5t-20.5 3.5t-4.5 16.5v345q0 52 -19.5 71t-79.5 19q-83 0 -117 -41.5
t-34 -133.5v-260q0 -13 -4.5 -16.5t-20.5 -3.5zM142 590q0 11 4.5 16.5t17.5 13.5q28 16 54 16q19 0 49 -10.5t44 -10.5q19 0 39 10.5t22 10.5q9 0 9 -20q0 -11 -4.5 -16.5t-17.5 -13.5q-28 -16 -54 -16q-19 0 -49 10.5t-44 10.5q-19 0 -39 -10.5t-22 -10.5q-9 0 -9 20z" />
    <glyph glyph-name="ograve" unicode="&#xf2;" horiz-adv-x="492" 
d="M238 -10q-73 0 -109.5 19t-52.5 71.5t-16 159.5q0 148 43.5 204t150.5 56q73 0 109.5 -19t52.5 -71.5t16 -159.5q0 -148 -43.5 -204t-150.5 -56zM239 35q87 0 114 39.5t27 165.5q0 139 -21.5 177t-106.5 38q-86 0 -113 -39.5t-27 -165.5q0 -139 21 -177t106 -38zM266 540
q-15 0 -20.5 3t-11.5 11l-70 103q-8 11 -8 19q0 10 29 10q26 0 33 -13l60 -105q7 -13 7 -18q0 -10 -19 -10z" />
    <glyph glyph-name="oacute" unicode="&#xf3;" horiz-adv-x="492" 
d="M238 -10q-73 0 -109.5 19t-52.5 71.5t-16 159.5q0 148 43.5 204t150.5 56q73 0 109.5 -19t52.5 -71.5t16 -159.5q0 -148 -43.5 -204t-150.5 -56zM239 35q87 0 114 39.5t27 165.5q0 139 -21.5 177t-106.5 38q-86 0 -113 -39.5t-27 -165.5q0 -139 21 -177t106 -38zM226 540
q-19 0 -19 10q0 5 7 18l60 105q7 13 33 13q29 0 29 -10q0 -8 -8 -19l-70 -103q-4 -6 -6.5 -8.5t-8.5 -4t-17 -1.5z" />
    <glyph glyph-name="ocircumflex" unicode="&#xf4;" horiz-adv-x="492" 
d="M238 -10q-73 0 -109.5 19t-52.5 71.5t-16 159.5q0 148 43.5 204t150.5 56q73 0 109.5 -19t52.5 -71.5t16 -159.5q0 -148 -43.5 -204t-150.5 -56zM239 35q87 0 114 39.5t27 165.5q0 139 -21.5 177t-106.5 38q-86 0 -113 -39.5t-27 -165.5q0 -139 21 -177t106 -38zM249 644
h-5l-56 -90q-9 -14 -32 -14q-24 0 -24 10q0 5 7 18l65 105q7 13 33 13h19q26 0 33 -13l65 -105q7 -13 7 -18q0 -10 -24 -10q-23 0 -32 14z" />
    <glyph glyph-name="otilde" unicode="&#xf5;" horiz-adv-x="492" 
d="M238 -10q-73 0 -109.5 19t-52.5 71.5t-16 159.5q0 148 43.5 204t150.5 56q73 0 109.5 -19t52.5 -71.5t16 -159.5q0 -148 -43.5 -204t-150.5 -56zM239 35q87 0 114 39.5t27 165.5q0 139 -21.5 177t-106.5 38q-86 0 -113 -39.5t-27 -165.5q0 -139 21 -177t106 -38zM127 590
q0 11 4.5 16.5t17.5 13.5q28 16 54 16q19 0 49 -10.5t44 -10.5q19 0 39 10.5t22 10.5q9 0 9 -20q0 -11 -4.5 -16.5t-17.5 -13.5q-28 -16 -54 -16q-19 0 -49 10.5t-44 10.5q-19 0 -39 -10.5t-22 -10.5q-9 0 -9 20z" />
    <glyph glyph-name="odieresis" unicode="&#xf6;" horiz-adv-x="492" 
d="M238 -10q-73 0 -109.5 19t-52.5 71.5t-16 159.5q0 148 43.5 204t150.5 56q73 0 109.5 -19t52.5 -71.5t16 -159.5q0 -148 -43.5 -204t-150.5 -56zM239 35q87 0 114 39.5t27 165.5q0 139 -21.5 177t-106.5 38q-86 0 -113 -39.5t-27 -165.5q0 -139 21 -177t106 -38zM183 584
q-18 0 -23.5 3.5t-5.5 16.5v26q0 13 5.5 16.5t23.5 3.5t23.5 -3.5t5.5 -16.5v-26q0 -13 -5.5 -16.5t-23.5 -3.5zM310 584q-18 0 -23.5 3.5t-5.5 16.5v26q0 13 5.5 16.5t23.5 3.5t23.5 -3.5t5.5 -16.5v-26q0 -13 -5.5 -16.5t-23.5 -3.5z" />
    <glyph glyph-name="divide" unicode="&#xf7;" 
d="M97 270q0 15 4 19.5t16 4.5h225q12 0 16 -4.5t4 -19.5t-4 -19.5t-16 -4.5h-225q-12 0 -16 4.5t-4 19.5zM227 80q-18 0 -24 4t-6 16v26q0 12 6 16t24 4t24 -4t6 -16v-26q0 -12 -6 -16t-24 -4zM227 374q-18 0 -24 4t-6 16v26q0 12 6 16t24 4t24 -4t6 -16v-26q0 -12 -6 -16
t-24 -4z" />
    <glyph glyph-name="oslash" unicode="&#xf8;" horiz-adv-x="492" 
d="M238 -10q-73 0 -109.5 19t-52.5 71.5t-16 159.5q0 148 43.5 204t150.5 56q73 0 109.5 -19t52.5 -71.5t16 -159.5q0 -148 -43.5 -204t-150.5 -56zM239 35q87 0 114 39.5t27 165.5q0 112 -11 152l-224 -335q25 -22 94 -22zM112 250q0 -112 9 -149l223 333q-25 21 -92 21
q-86 0 -113 -39.5t-27 -165.5z" />
    <glyph glyph-name="ugrave" unicode="&#xf9;" horiz-adv-x="495" 
d="M204 -10q-79 0 -106.5 30.5t-27.5 94.5v355q0 13 4.5 16.5t20.5 3.5t20.5 -3.5t4.5 -16.5v-345q0 -52 19.5 -71t79.5 -19q83 0 117 41.5t34 133.5v260q0 13 4.5 16.5t20.5 3.5t20.5 -3.5t4.5 -16.5v-313q0 -34 6 -67t12.5 -53.5t6.5 -23.5q0 -13 -24 -13q-14 0 -19 3
t-8 13l-16 63q-20 -48 -61.5 -68.5t-112.5 -20.5zM266 540q-15 0 -20.5 3t-11.5 11l-70 103q-8 11 -8 19q0 10 29 10q26 0 33 -13l60 -105q7 -13 7 -18q0 -10 -19 -10z" />
    <glyph glyph-name="uacute" unicode="&#xfa;" horiz-adv-x="495" 
d="M204 -10q-79 0 -106.5 30.5t-27.5 94.5v355q0 13 4.5 16.5t20.5 3.5t20.5 -3.5t4.5 -16.5v-345q0 -52 19.5 -71t79.5 -19q83 0 117 41.5t34 133.5v260q0 13 4.5 16.5t20.5 3.5t20.5 -3.5t4.5 -16.5v-313q0 -34 6 -67t12.5 -53.5t6.5 -23.5q0 -13 -24 -13q-14 0 -19 3
t-8 13l-16 63q-20 -48 -61.5 -68.5t-112.5 -20.5zM225 540q-19 0 -19 10q0 5 7 18l60 105q7 13 33 13q29 0 29 -10q0 -8 -8 -19l-70 -103q-4 -6 -6.5 -8.5t-8.5 -4t-17 -1.5z" />
    <glyph glyph-name="ucircumflex" unicode="&#xfb;" horiz-adv-x="495" 
d="M204 -10q-79 0 -106.5 30.5t-27.5 94.5v355q0 13 4.5 16.5t20.5 3.5t20.5 -3.5t4.5 -16.5v-345q0 -52 19.5 -71t79.5 -19q83 0 117 41.5t34 133.5v260q0 13 4.5 16.5t20.5 3.5t20.5 -3.5t4.5 -16.5v-313q0 -34 6 -67t12.5 -53.5t6.5 -23.5q0 -13 -24 -13q-14 0 -19 3
t-8 13l-16 63q-20 -48 -61.5 -68.5t-112.5 -20.5zM248 644h-5l-56 -90q-9 -14 -32 -14q-24 0 -24 10q0 5 7 18l65 105q7 13 33 13h19q26 0 33 -13l65 -105q7 -13 7 -18q0 -10 -24 -10q-23 0 -32 14z" />
    <glyph glyph-name="udieresis" unicode="&#xfc;" horiz-adv-x="495" 
d="M204 -10q-79 0 -106.5 30.5t-27.5 94.5v355q0 13 4.5 16.5t20.5 3.5t20.5 -3.5t4.5 -16.5v-345q0 -52 19.5 -71t79.5 -19q83 0 117 41.5t34 133.5v260q0 13 4.5 16.5t20.5 3.5t20.5 -3.5t4.5 -16.5v-313q0 -34 6 -67t12.5 -53.5t6.5 -23.5q0 -13 -24 -13q-14 0 -19 3
t-8 13l-16 63q-20 -48 -61.5 -68.5t-112.5 -20.5zM182 584q-18 0 -23.5 3.5t-5.5 16.5v26q0 13 5.5 16.5t23.5 3.5t23.5 -3.5t5.5 -16.5v-26q0 -13 -5.5 -16.5t-23.5 -3.5zM309 584q-18 0 -23.5 3.5t-5.5 16.5v26q0 13 5.5 16.5t23.5 3.5t23.5 -3.5t5.5 -16.5v-26
q0 -13 -5.5 -16.5t-23.5 -3.5z" />
    <glyph glyph-name="yacute" unicode="&#xfd;" horiz-adv-x="437" 
d="M30 475q0 8 5 11.5t21 3.5q24 0 27 -12l135 -430h4l132 430q3 12 27 12q27 0 27 -14q0 -8 -7 -28l-164 -504q-11 -35 -17 -50t-16 -35.5t-20 -28.5t-26 -14t-37 -6q-38 0 -64 7q-23 6 -23 23q0 14 2.5 17.5t10.5 3.5q2 0 24 -3t45 -3q29 0 42 13t26 56l24 77
q-22 5 -35 43l-131 387q-12 35 -12 44zM199 540q-19 0 -19 10q0 5 7 18l60 105q7 13 33 13q29 0 29 -10q0 -8 -8 -19l-70 -103q-4 -6 -6.5 -8.5t-8.5 -4t-17 -1.5z" />
    <glyph glyph-name="thorn" unicode="&#xfe;" horiz-adv-x="525" 
d="M135 630v-204q43 74 158 74q107 0 139.5 -53t32.5 -207q0 -78 -11 -127.5t-36.5 -76.5t-58.5 -36.5t-85 -9.5q-104 0 -139 56v-216q0 -13 -4.5 -16.5t-20.5 -3.5t-20.5 3.5t-4.5 16.5v800q0 13 4.5 16.5t20.5 3.5t20.5 -3.5t4.5 -16.5zM272 35q60 0 88.5 16.5t40.5 61
t12 137.5q0 127 -22.5 166t-98.5 39q-83 0 -120 -37t-37 -142v-76q0 -92 27 -128.5t110 -36.5z" />
    <glyph glyph-name="ydieresis" unicode="&#xff;" horiz-adv-x="437" 
d="M30 475q0 8 5 11.5t21 3.5q24 0 27 -12l135 -430h4l132 430q3 12 27 12q27 0 27 -14q0 -8 -7 -28l-164 -504q-11 -35 -17 -50t-16 -35.5t-20 -28.5t-26 -14t-37 -6q-38 0 -64 7q-23 6 -23 23q0 14 2.5 17.5t10.5 3.5q2 0 24 -3t45 -3q29 0 42 13t26 56l24 77
q-22 5 -35 43l-131 387q-12 35 -12 44zM157 584q-18 0 -23.5 3.5t-5.5 16.5v26q0 13 5.5 16.5t23.5 3.5t23.5 -3.5t5.5 -16.5v-26q0 -13 -5.5 -16.5t-23.5 -3.5zM284 584q-18 0 -23.5 3.5t-5.5 16.5v26q0 13 5.5 16.5t23.5 3.5t23.5 -3.5t5.5 -16.5v-26q0 -13 -5.5 -16.5
t-23.5 -3.5z" />
    <glyph glyph-name="Amacron" unicode="&#x100;" horiz-adv-x="502" 
d="M44 0q-24 0 -24 12q0 4 4 16l180 562q4 13 12 16.5t35 3.5t35 -3.5t12 -16.5l180 -562q4 -12 4 -16q0 -12 -24 -12q-25 0 -28 12l-60 188h-239l-59 -188q-3 -12 -28 -12zM245 562l-100 -317h211l-99 317h-12zM158 725q0 15 4 19.5t16 4.5h145q12 0 16 -4.5t4 -19.5
t-4 -19.5t-16 -4.5h-145q-12 0 -16 4.5t-4 19.5z" />
    <glyph glyph-name="amacron" unicode="&#x101;" horiz-adv-x="485" 
d="M179 -10q-67 0 -98 31.5t-31 105.5t38.5 104.5t133.5 30.5h128v103q0 55 -22.5 72.5t-81.5 17.5q-48 0 -101 -10.5t-54 -10.5q-11 0 -11 20q0 21 17 25q71 21 151 21q82 0 117 -26t35 -104v-213q0 -34 6 -67t12.5 -53.5t6.5 -23.5q0 -13 -24 -13q-14 0 -19 3t-8 13
l-18 73q-24 -49 -72 -74t-105 -25zM187 36q68 0 115.5 39t47.5 101v47l-134 -5q-70 -3 -93 -20t-23 -67q0 -59 19 -77t68 -18zM139 610q0 15 4 19.5t16 4.5h145q12 0 16 -4.5t4 -19.5t-4 -19.5t-16 -4.5h-145q-12 0 -16 4.5t-4 19.5z" />
    <glyph glyph-name="Abreve" unicode="&#x102;" horiz-adv-x="502" 
d="M44 0q-24 0 -24 12q0 4 4 16l180 562q4 13 12 16.5t35 3.5t35 -3.5t12 -16.5l180 -562q4 -12 4 -16q0 -12 -24 -12q-25 0 -28 12l-60 188h-239l-59 -188q-3 -12 -28 -12zM245 562l-100 -317h211l-99 317h-12zM251 675q-59 0 -74.5 16.5t-15.5 59.5q0 13 4 16.5t19 3.5
t19 -3.5t4 -16.5q0 -24 7 -30t37 -6t37 6t7 30q0 13 4 16.5t19 3.5t19 -3.5t4 -16.5q0 -43 -15.5 -59.5t-74.5 -16.5z" />
    <glyph glyph-name="abreve" unicode="&#x103;" horiz-adv-x="485" 
d="M179 -10q-67 0 -98 31.5t-31 105.5t38.5 104.5t133.5 30.5h128v103q0 55 -22.5 72.5t-81.5 17.5q-48 0 -101 -10.5t-54 -10.5q-11 0 -11 20q0 21 17 25q71 21 151 21q82 0 117 -26t35 -104v-213q0 -34 6 -67t12.5 -53.5t6.5 -23.5q0 -13 -24 -13q-14 0 -19 3t-8 13
l-18 73q-24 -49 -72 -74t-105 -25zM187 36q68 0 115.5 39t47.5 101v47l-134 -5q-70 -3 -93 -20t-23 -67q0 -59 19 -77t68 -18zM231 560q-59 0 -74.5 16.5t-15.5 59.5q0 13 4 16.5t19 3.5t19 -3.5t4 -16.5q0 -24 7 -30t37 -6t37 6t7 30q0 13 4 16.5t19 3.5t19 -3.5t4 -16.5
q0 -43 -15.5 -59.5t-74.5 -16.5z" />
    <glyph glyph-name="Aogonek" unicode="&#x104;" horiz-adv-x="502" 
d="M44 0q-24 0 -24 12q0 4 4 16l180 562q4 13 12 16.5t35 3.5t35 -3.5t12 -16.5l180 -562q4 -12 4 -16q0 -18 -27 -51q-41 -51 -41 -79q0 -17 4.5 -22t17.5 -5q12 0 20.5 1.5t12.5 1.5q8 0 10.5 -4t2.5 -17q0 -11 -5 -15.5t-18 -7.5q-17 -4 -34 -4q-61 0 -61 66q0 51 75 126
q-7 2 -9 10l-60 188h-239l-59 -188q-3 -12 -28 -12zM245 562l-100 -317h211l-99 317h-12z" />
    <glyph glyph-name="aogonek" unicode="&#x105;" horiz-adv-x="485" 
d="M368 -190q-61 0 -61 66q0 30 16 58t56 70q-4 6 -5 12l-18 73q-24 -49 -72 -74t-105 -25q-67 0 -98 31.5t-31 105.5t38.5 104.5t133.5 30.5h128v103q0 55 -22.5 72.5t-81.5 17.5q-48 0 -101 -10.5t-54 -10.5q-11 0 -11 20q0 21 17 25q71 21 151 21q82 0 117 -26t35 -104
v-213q0 -34 6 -67t12.5 -53.5t6.5 -23.5q0 -15 -30 -52q-38 -46 -38 -79q0 -17 4.5 -22t17.5 -5q12 0 20.5 1.5t12.5 1.5q8 0 10.5 -4t2.5 -17q0 -11 -5 -15.5t-18 -7.5q-17 -4 -34 -4zM187 36q68 0 115.5 39t47.5 101v47l-134 -5q-70 -3 -93 -20t-23 -67q0 -59 19 -77
t68 -18z" />
    <glyph glyph-name="Cacute" unicode="&#x106;" horiz-adv-x="450" 
d="M257 -10q-33 0 -52.5 1.5t-44 7t-38 16.5t-28.5 31.5t-22 50t-12 73t-5 100.5v65q0 78 8 129t21.5 81.5t41.5 46t56 19.5t76 4q63 0 128 -19q14 -4 19 -8.5t5 -17.5q0 -14 -2.5 -17.5t-10.5 -3.5q-3 0 -22 5.5t-49.5 10.5t-60.5 5q-44 0 -67 -4t-44.5 -16t-30 -40
t-13.5 -71t-5 -114v-45q0 -70 6 -114t15.5 -71t31 -40t44 -16.5t63.5 -3.5q32 0 62.5 5.5t48.5 10.5t21 5q8 0 10.5 -3.5t2.5 -17.5q0 -13 -5 -17.5t-19 -8.5q-65 -19 -129 -19zM240 655q-19 0 -19 10q0 5 7 18l60 105q7 13 33 13q29 0 29 -10q0 -8 -8 -19l-70 -103
q-4 -6 -6.5 -8.5t-8.5 -4t-17 -1.5z" />
    <glyph glyph-name="cacute" unicode="&#x107;" horiz-adv-x="426" 
d="M238 -10q-54 0 -84.5 8t-53.5 34t-31.5 75t-8.5 132q0 71 9.5 120.5t24.5 77t41 42t50 18t61 3.5q52 0 117 -17q14 -4 18.5 -9t4.5 -19q0 -13 -2.5 -16.5t-8.5 -3.5l-48 11q-48 10 -83 10q-53 0 -78.5 -13.5t-39 -59t-13.5 -138.5q0 -137 22 -173t111 -36q42 0 86 12
t45 12q9 0 9 -20q0 -13 -4.5 -18t-18.5 -10q-59 -22 -125 -22zM221 540q-19 0 -19 10q0 5 7 18l60 105q7 13 33 13q29 0 29 -10q0 -8 -8 -19l-70 -103q-4 -6 -6.5 -8.5t-8.5 -4t-17 -1.5z" />
    <glyph glyph-name="Ccircumflex" unicode="&#x108;" horiz-adv-x="450" 
d="M257 -10q-33 0 -52.5 1.5t-44 7t-38 16.5t-28.5 31.5t-22 50t-12 73t-5 100.5v65q0 78 8 129t21.5 81.5t41.5 46t56 19.5t76 4q63 0 128 -19q14 -4 19 -8.5t5 -17.5q0 -14 -2.5 -17.5t-10.5 -3.5q-3 0 -22 5.5t-49.5 10.5t-60.5 5q-44 0 -67 -4t-44.5 -16t-30 -40
t-13.5 -71t-5 -114v-45q0 -70 6 -114t15.5 -71t31 -40t44 -16.5t63.5 -3.5q32 0 62.5 5.5t48.5 10.5t21 5q8 0 10.5 -3.5t2.5 -17.5q0 -13 -5 -17.5t-19 -8.5q-65 -19 -129 -19zM243 759h-5l-56 -90q-9 -14 -32 -14q-24 0 -24 10q0 5 7 18l65 105q7 13 33 13h19q26 0 33 -13
l65 -105q7 -13 7 -18q0 -10 -24 -10q-23 0 -32 14z" />
    <glyph glyph-name="ccircumflex" unicode="&#x109;" horiz-adv-x="426" 
d="M238 -10q-54 0 -84.5 8t-53.5 34t-31.5 75t-8.5 132q0 71 9.5 120.5t24.5 77t41 42t50 18t61 3.5q52 0 117 -17q14 -4 18.5 -9t4.5 -19q0 -13 -2.5 -16.5t-8.5 -3.5l-48 11q-48 10 -83 10q-53 0 -78.5 -13.5t-39 -59t-13.5 -138.5q0 -137 22 -173t111 -36q42 0 86 12
t45 12q9 0 9 -20q0 -13 -4.5 -18t-18.5 -10q-59 -22 -125 -22zM244 644h-5l-56 -90q-9 -14 -32 -14q-24 0 -24 10q0 5 7 18l65 105q7 13 33 13h19q26 0 33 -13l65 -105q7 -13 7 -18q0 -10 -24 -10q-23 0 -32 14z" />
    <glyph glyph-name="Cdotaccent" unicode="&#x10a;" horiz-adv-x="450" 
d="M257 -10q-33 0 -52.5 1.5t-44 7t-38 16.5t-28.5 31.5t-22 50t-12 73t-5 100.5v65q0 78 8 129t21.5 81.5t41.5 46t56 19.5t76 4q63 0 128 -19q14 -4 19 -8.5t5 -17.5q0 -14 -2.5 -17.5t-10.5 -3.5q-3 0 -22 5.5t-49.5 10.5t-60.5 5q-44 0 -67 -4t-44.5 -16t-30 -40
t-13.5 -71t-5 -114v-45q0 -70 6 -114t15.5 -71t31 -40t44 -16.5t63.5 -3.5q32 0 62.5 5.5t48.5 10.5t21 5q8 0 10.5 -3.5t2.5 -17.5q0 -13 -5 -17.5t-19 -8.5q-65 -19 -129 -19zM240 699q-18 0 -24 4t-6 16v26q0 12 6 16t24 4t24 -4t6 -16v-26q0 -12 -6 -16t-24 -4z" />
    <glyph glyph-name="cdotaccent" unicode="&#x10b;" horiz-adv-x="426" 
d="M238 -10q-54 0 -84.5 8t-53.5 34t-31.5 75t-8.5 132q0 71 9.5 120.5t24.5 77t41 42t50 18t61 3.5q52 0 117 -17q14 -4 18.5 -9t4.5 -19q0 -13 -2.5 -16.5t-8.5 -3.5l-48 11q-48 10 -83 10q-53 0 -78.5 -13.5t-39 -59t-13.5 -138.5q0 -137 22 -173t111 -36q42 0 86 12
t45 12q9 0 9 -20q0 -13 -4.5 -18t-18.5 -10q-59 -22 -125 -22zM241 584q-18 0 -24 4t-6 16v26q0 12 6 16t24 4t24 -4t6 -16v-26q0 -12 -6 -16t-24 -4z" />
    <glyph glyph-name="Ccaron" unicode="&#x10c;" horiz-adv-x="450" 
d="M257 -10q-33 0 -52.5 1.5t-44 7t-38 16.5t-28.5 31.5t-22 50t-12 73t-5 100.5v65q0 78 8 129t21.5 81.5t41.5 46t56 19.5t76 4q63 0 128 -19q14 -4 19 -8.5t5 -17.5q0 -14 -2.5 -17.5t-10.5 -3.5q-3 0 -22 5.5t-49.5 10.5t-60.5 5q-44 0 -67 -4t-44.5 -16t-30 -40
t-13.5 -71t-5 -114v-45q0 -70 6 -114t15.5 -71t31 -40t44 -16.5t63.5 -3.5q32 0 62.5 5.5t48.5 10.5t21 5q8 0 10.5 -3.5t2.5 -17.5q0 -13 -5 -17.5t-19 -8.5q-65 -19 -129 -19zM125 791q0 10 24 10q23 0 32 -14l56 -90h5l56 90q9 14 32 14q24 0 24 -10q0 -5 -7 -18
l-65 -105q-7 -13 -33 -13h-19q-26 0 -33 13l-65 105q-7 13 -7 18z" />
    <glyph glyph-name="ccaron" unicode="&#x10d;" horiz-adv-x="426" 
d="M238 -10q-54 0 -84.5 8t-53.5 34t-31.5 75t-8.5 132q0 71 9.5 120.5t24.5 77t41 42t50 18t61 3.5q52 0 117 -17q14 -4 18.5 -9t4.5 -19q0 -13 -2.5 -16.5t-8.5 -3.5l-48 11q-48 10 -83 10q-53 0 -78.5 -13.5t-39 -59t-13.5 -138.5q0 -137 22 -173t111 -36q42 0 86 12
t45 12q9 0 9 -20q0 -13 -4.5 -18t-18.5 -10q-59 -22 -125 -22zM127 676q0 10 24 10q23 0 32 -14l56 -90h5l56 90q9 14 32 14q24 0 24 -10q0 -5 -7 -18l-65 -105q-7 -13 -33 -13h-19q-26 0 -33 13l-65 105q-7 13 -7 18z" />
    <glyph glyph-name="Dcaron" unicode="&#x10e;" horiz-adv-x="520" 
d="M255 -10q-80 0 -153 8q-32 4 -32 27v555q0 22 25 26q66 9 145 9q46 0 74 -2.5t56.5 -12.5t44 -28.5t28 -51t17.5 -80t5 -115.5v-45q0 -67 -5.5 -115t-18.5 -80t-28 -51t-41.5 -28.5t-51.5 -12.5t-65 -3zM255 37q52 0 77 5.5t47 29.5t29 72.5t7 135.5v45q0 69 -6.5 113.5
t-17 71t-34.5 39t-48 16t-69 3.5q-60 0 -120 -6v-519q50 -6 135 -6zM141 791q0 10 24 10q23 0 32 -14l56 -90h5l56 90q9 14 32 14q24 0 24 -10q0 -5 -7 -18l-65 -105q-7 -13 -33 -13h-19q-26 0 -33 13l-65 105q-7 13 -7 18z" />
    <glyph glyph-name="dcaron" unicode="&#x10f;" horiz-adv-x="619" 
d="M232 -10q-107 0 -139.5 53t-32.5 207q0 78 11 127.5t36.5 76.5t58.5 36.5t85 9.5q102 0 139 -56v186q0 13 4.5 16.5t20.5 3.5t20.5 -3.5t4.5 -16.5v-473q0 -34 6 -67t12.5 -53.5t6.5 -23.5q0 -13 -24 -13q-14 0 -19 3t-8 13l-14 57q-38 -83 -168 -83zM233 35q85 0 121 31
t36 128v96q0 92 -27 128.5t-110 36.5q-60 0 -88.5 -16.5t-40.5 -61t-12 -137.5q0 -127 22.5 -166t98.5 -39zM551 650q17 0 22 -4t5 -16v-28q0 -30 -9 -66l-18 -69q-4 -14 -23 -14q-11 0 -14.5 2t-3.5 9q0 4 7 48t7 76v42q0 12 5 16t22 4z" />
    <glyph glyph-name="Dcroat" unicode="&#x110;" horiz-adv-x="520" 
d="M12 310q0 15 4 19.5t16 4.5h190q12 0 16 -4.5t4 -19.5t-4 -19.5t-16 -4.5h-190q-12 0 -16 4.5t-4 19.5zM255 -10q-80 0 -153 8q-32 4 -32 27v555q0 22 25 26q66 9 145 9q46 0 74 -2.5t56.5 -12.5t44 -28.5t28 -51t17.5 -80t5 -115.5v-45q0 -67 -5.5 -115t-18.5 -80
t-28 -51t-41.5 -28.5t-51.5 -12.5t-65 -3zM255 37q52 0 77 5.5t47 29.5t29 72.5t7 135.5v45q0 69 -6.5 113.5t-17 71t-34.5 39t-48 16t-69 3.5q-60 0 -120 -6v-519q50 -6 135 -6z" />
    <glyph glyph-name="dcroat" unicode="&#x111;" horiz-adv-x="515" 
d="M232 -10q-107 0 -139.5 53t-32.5 207q0 78 11 127.5t36.5 76.5t58.5 36.5t85 9.5q102 0 139 -56v100h-43q-10 0 -14 4.5t-4 17.5q0 14 4 18t14 4h43v42q0 13 4.5 16.5t20.5 3.5t20.5 -3.5t4.5 -16.5v-42h49q11 0 14.5 -4t3.5 -18q0 -13 -3.5 -17.5t-14.5 -4.5h-49v-387
q0 -34 6 -67t12.5 -53.5t6.5 -23.5q0 -13 -24 -13q-14 0 -19 3t-8 13l-14 57q-38 -83 -168 -83zM233 35q85 0 121 31t36 128v96q0 92 -27 128.5t-110 36.5q-60 0 -88.5 -16.5t-40.5 -61t-12 -137.5q0 -127 22.5 -166t98.5 -39z" />
    <glyph glyph-name="Emacron" unicode="&#x112;" horiz-adv-x="455" 
d="M420 24q0 -15 -4 -19.5t-16 -4.5h-305q-16 0 -20.5 4t-4.5 16v570q0 12 4.5 16t20.5 4h295q12 0 16 -4.5t4 -19.5t-4 -19.5t-16 -4.5h-270v-215h220q12 0 16 -4.5t4 -18.5t-4 -18.5t-16 -4.5h-220v-253h280q12 0 16 -4.5t4 -19.5zM148 725q0 15 4 19.5t16 4.5h145
q12 0 16 -4.5t4 -19.5t-4 -19.5t-16 -4.5h-145q-12 0 -16 4.5t-4 19.5z" />
    <glyph glyph-name="emacron" unicode="&#x113;" 
d="M248 -10q-46 0 -74.5 5t-52.5 19t-36 42.5t-18.5 72t-6.5 110.5q0 71 9.5 120.5t24.5 77t41 42t50 18t61 3.5q45 0 75.5 -10t48 -26.5t26.5 -48.5t11.5 -63.5t2.5 -84.5q0 -17 -5.5 -24.5t-22.5 -7.5h-269q0 -130 24 -164.5t119 -34.5q34 0 65 6t50 12t24 6q9 0 9 -20
q0 -13 -4.5 -18t-18.5 -10q-59 -22 -133 -22zM244 456q-50 0 -75 -12t-39.5 -50.5t-16.5 -115.5h245q0 38 -0.5 55.5t-3.5 43t-10 36t-19.5 23t-32.5 16.5t-48 4zM149 610q0 15 4 19.5t16 4.5h145q12 0 16 -4.5t4 -19.5t-4 -19.5t-16 -4.5h-145q-12 0 -16 4.5t-4 19.5z" />
    <glyph glyph-name="Ebreve" unicode="&#x114;" horiz-adv-x="455" 
d="M420 24q0 -15 -4 -19.5t-16 -4.5h-305q-16 0 -20.5 4t-4.5 16v570q0 12 4.5 16t20.5 4h295q12 0 16 -4.5t4 -19.5t-4 -19.5t-16 -4.5h-270v-215h220q12 0 16 -4.5t4 -18.5t-4 -18.5t-16 -4.5h-220v-253h280q12 0 16 -4.5t4 -19.5zM240 685q-59 0 -74.5 16.5t-15.5 59.5
q0 13 4 16.5t19 3.5t19 -3.5t4 -16.5q0 -24 7 -30t37 -6t37 6t7 30q0 13 4 16.5t19 3.5t19 -3.5t4 -16.5q0 -43 -15.5 -59.5t-74.5 -16.5z" />
    <glyph glyph-name="ebreve" unicode="&#x115;" 
d="M248 -10q-46 0 -74.5 5t-52.5 19t-36 42.5t-18.5 72t-6.5 110.5q0 71 9.5 120.5t24.5 77t41 42t50 18t61 3.5q45 0 75.5 -10t48 -26.5t26.5 -48.5t11.5 -63.5t2.5 -84.5q0 -17 -5.5 -24.5t-22.5 -7.5h-269q0 -130 24 -164.5t119 -34.5q34 0 65 6t50 12t24 6q9 0 9 -20
q0 -13 -4.5 -18t-18.5 -10q-59 -22 -133 -22zM244 456q-50 0 -75 -12t-39.5 -50.5t-16.5 -115.5h245q0 38 -0.5 55.5t-3.5 43t-10 36t-19.5 23t-32.5 16.5t-48 4zM241 560q-59 0 -74.5 16.5t-15.5 59.5q0 13 4 16.5t19 3.5t19 -3.5t4 -16.5q0 -24 7 -30t37 -6t37 6t7 30
q0 13 4 16.5t19 3.5t19 -3.5t4 -16.5q0 -43 -15.5 -59.5t-74.5 -16.5z" />
    <glyph glyph-name="Edotaccent" unicode="&#x116;" horiz-adv-x="455" 
d="M420 24q0 -15 -4 -19.5t-16 -4.5h-305q-16 0 -20.5 4t-4.5 16v570q0 12 4.5 16t20.5 4h295q12 0 16 -4.5t4 -19.5t-4 -19.5t-16 -4.5h-270v-215h220q12 0 16 -4.5t4 -18.5t-4 -18.5t-16 -4.5h-220v-253h280q12 0 16 -4.5t4 -19.5zM240 699q-18 0 -24 4t-6 16v26
q0 12 6 16t24 4t24 -4t6 -16v-26q0 -12 -6 -16t-24 -4z" />
    <glyph glyph-name="edotaccent" unicode="&#x117;" 
d="M248 -10q-46 0 -74.5 5t-52.5 19t-36 42.5t-18.5 72t-6.5 110.5q0 71 9.5 120.5t24.5 77t41 42t50 18t61 3.5q45 0 75.5 -10t48 -26.5t26.5 -48.5t11.5 -63.5t2.5 -84.5q0 -17 -5.5 -24.5t-22.5 -7.5h-269q0 -130 24 -164.5t119 -34.5q34 0 65 6t50 12t24 6q9 0 9 -20
q0 -13 -4.5 -18t-18.5 -10q-59 -22 -133 -22zM244 456q-50 0 -75 -12t-39.5 -50.5t-16.5 -115.5h245q0 38 -0.5 55.5t-3.5 43t-10 36t-19.5 23t-32.5 16.5t-48 4zM241 584q-18 0 -24 4t-6 16v26q0 12 6 16t24 4t24 -4t6 -16v-26q0 -12 -6 -16t-24 -4z" />
    <glyph glyph-name="Eogonek" unicode="&#x118;" horiz-adv-x="455" 
d="M363 -190q-61 0 -61 66q0 21 9 41.5t19.5 35t37.5 47.5h-273q-16 0 -20.5 4t-4.5 16v570q0 12 4.5 16t20.5 4h295q12 0 16 -4.5t4 -19.5t-4 -19.5t-16 -4.5h-270v-215h220q12 0 16 -4.5t4 -18.5t-4 -18.5t-16 -4.5h-220v-253h280q12 0 16 -4.5t4 -19.5q0 -21 -27 -58
q-41 -56 -41 -84q0 -17 4.5 -22t17.5 -5q12 0 20.5 1.5t12.5 1.5q8 0 10.5 -4t2.5 -17q0 -11 -5 -15.5t-18 -7.5q-17 -4 -34 -4z" />
    <glyph glyph-name="eogonek" unicode="&#x119;" 
d="M347 -190q-61 0 -61 66q0 31 15.5 58t52.5 69q-58 -13 -106 -13q-46 0 -74.5 5t-52.5 19t-36 42.5t-18.5 72t-6.5 110.5q0 71 9.5 120.5t24.5 77t41 42t50 18t61 3.5q45 0 75.5 -10t48 -26.5t26.5 -48.5t11.5 -63.5t2.5 -84.5q0 -17 -5.5 -24.5t-22.5 -7.5h-269
q0 -130 24 -164.5t119 -34.5q34 0 65 6t50 12t24 6q9 0 9 -20q0 -28 -31 -74q-37 -55 -37 -84q0 -17 4.5 -22t17.5 -5q12 0 20.5 1.5t12.5 1.5q8 0 10.5 -4t2.5 -17q0 -11 -5 -15.5t-18 -7.5q-17 -4 -34 -4zM244 456q-50 0 -75 -12t-39.5 -50.5t-16.5 -115.5h245
q0 38 -0.5 55.5t-3.5 43t-10 36t-19.5 23t-32.5 16.5t-48 4z" />
    <glyph glyph-name="Ecaron" unicode="&#x11a;" horiz-adv-x="455" 
d="M420 24q0 -15 -4 -19.5t-16 -4.5h-305q-16 0 -20.5 4t-4.5 16v570q0 12 4.5 16t20.5 4h295q12 0 16 -4.5t4 -19.5t-4 -19.5t-16 -4.5h-270v-215h220q12 0 16 -4.5t4 -18.5t-4 -18.5t-16 -4.5h-220v-253h280q12 0 16 -4.5t4 -19.5zM126 791q0 10 24 10q23 0 32 -14l56 -90
h5l56 90q9 14 32 14q24 0 24 -10q0 -5 -7 -18l-65 -105q-7 -13 -33 -13h-19q-26 0 -33 13l-65 105q-7 13 -7 18z" />
    <glyph glyph-name="ecaron" unicode="&#x11b;" 
d="M248 -10q-46 0 -74.5 5t-52.5 19t-36 42.5t-18.5 72t-6.5 110.5q0 71 9.5 120.5t24.5 77t41 42t50 18t61 3.5q45 0 75.5 -10t48 -26.5t26.5 -48.5t11.5 -63.5t2.5 -84.5q0 -17 -5.5 -24.5t-22.5 -7.5h-269q0 -130 24 -164.5t119 -34.5q34 0 65 6t50 12t24 6q9 0 9 -20
q0 -13 -4.5 -18t-18.5 -10q-59 -22 -133 -22zM244 456q-50 0 -75 -12t-39.5 -50.5t-16.5 -115.5h245q0 38 -0.5 55.5t-3.5 43t-10 36t-19.5 23t-32.5 16.5t-48 4zM127 676q0 10 24 10q23 0 32 -14l56 -90h5l56 90q9 14 32 14q24 0 24 -10q0 -5 -7 -18l-65 -105
q-7 -13 -33 -13h-19q-26 0 -33 13l-65 105q-7 13 -7 18z" />
    <glyph glyph-name="Gcircumflex" unicode="&#x11c;" horiz-adv-x="485" 
d="M242 -10q-43 0 -67 3t-51.5 18t-41 44t-23 82.5t-9.5 132.5v65q0 78 8 129t21.5 81.5t41.5 46t56 19.5t76 4q73 0 138 -19q14 -4 19 -8.5t5 -17.5q0 -14 -2.5 -17.5t-10.5 -3.5q-3 0 -24.5 5.5t-54.5 10.5t-63 5q-44 0 -67 -4t-44.5 -16t-30 -40t-13.5 -71t-5 -114v-45
q0 -69 5.5 -114t15 -71.5t30 -39.5t41 -16.5t58.5 -3.5q78 0 104 33t26 142v62h-120q-12 0 -16 4.5t-4 19.5t4 19.5t16 4.5h140q18 0 24 -4t6 -16v-90q0 -132 -40 -176t-148 -44zM243 759h-5l-56 -90q-9 -14 -32 -14q-24 0 -24 10q0 5 7 18l65 105q7 13 33 13h19
q26 0 33 -13l65 -105q7 -13 7 -18q0 -10 -24 -10q-23 0 -32 14z" />
    <glyph glyph-name="gcircumflex" unicode="&#x11d;" horiz-adv-x="508" 
d="M60 250q0 78 11 127.5t36.5 76.5t58.5 36.5t85 9.5q112 0 146 -69l10 43q2 10 7 13t20 3q24 0 24 -13q0 -3 -6 -23.5t-12.5 -53.5t-6.5 -67v-305q0 -123 -51 -170.5t-149 -47.5q-68 0 -131 9q-9 2 -13.5 4t-7.5 8t-3 17q0 13 2.5 17t10.5 4q5 0 24 -2.5t53 -5.5t75 -3
q77 0 108.5 38t31.5 122v27q-43 -55 -151 -55q-107 0 -139.5 53t-32.5 207zM112 240q0 -127 22.5 -166t98.5 -39q85 0 121 31t36 128v96q0 92 -27 128.5t-110 36.5q-60 0 -88.5 -16.5t-40.5 -61t-12 -137.5zM256 644h-5l-56 -90q-9 -14 -32 -14q-24 0 -24 10q0 5 7 18
l65 105q7 13 33 13h19q26 0 33 -13l65 -105q7 -13 7 -18q0 -10 -24 -10q-23 0 -32 14z" />
    <glyph glyph-name="Gbreve" unicode="&#x11e;" horiz-adv-x="485" 
d="M242 -10q-43 0 -67 3t-51.5 18t-41 44t-23 82.5t-9.5 132.5v65q0 78 8 129t21.5 81.5t41.5 46t56 19.5t76 4q73 0 138 -19q14 -4 19 -8.5t5 -17.5q0 -14 -2.5 -17.5t-10.5 -3.5q-3 0 -24.5 5.5t-54.5 10.5t-63 5q-44 0 -67 -4t-44.5 -16t-30 -40t-13.5 -71t-5 -114v-45
q0 -69 5.5 -114t15 -71.5t30 -39.5t41 -16.5t58.5 -3.5q78 0 104 33t26 142v62h-120q-12 0 -16 4.5t-4 19.5t4 19.5t16 4.5h140q18 0 24 -4t6 -16v-90q0 -132 -40 -176t-148 -44zM240 675q-59 0 -74.5 16.5t-15.5 59.5q0 13 4 16.5t19 3.5t19 -3.5t4 -16.5q0 -24 7 -30
t37 -6t37 6t7 30q0 13 4 16.5t19 3.5t19 -3.5t4 -16.5q0 -43 -15.5 -59.5t-74.5 -16.5z" />
    <glyph glyph-name="gbreve" unicode="&#x11f;" horiz-adv-x="508" 
d="M60 250q0 78 11 127.5t36.5 76.5t58.5 36.5t85 9.5q112 0 146 -69l10 43q2 10 7 13t20 3q24 0 24 -13q0 -3 -6 -23.5t-12.5 -53.5t-6.5 -67v-305q0 -123 -51 -170.5t-149 -47.5q-68 0 -131 9q-9 2 -13.5 4t-7.5 8t-3 17q0 13 2.5 17t10.5 4q5 0 24 -2.5t53 -5.5t75 -3
q77 0 108.5 38t31.5 122v27q-43 -55 -151 -55q-107 0 -139.5 53t-32.5 207zM112 240q0 -127 22.5 -166t98.5 -39q85 0 121 31t36 128v96q0 92 -27 128.5t-110 36.5q-60 0 -88.5 -16.5t-40.5 -61t-12 -137.5zM253 560q-59 0 -74.5 16.5t-15.5 59.5q0 13 4 16.5t19 3.5
t19 -3.5t4 -16.5q0 -24 7 -30t37 -6t37 6t7 30q0 13 4 16.5t19 3.5t19 -3.5t4 -16.5q0 -43 -15.5 -59.5t-74.5 -16.5z" />
    <glyph glyph-name="Gdotaccent" unicode="&#x120;" horiz-adv-x="485" 
d="M242 -10q-43 0 -67 3t-51.5 18t-41 44t-23 82.5t-9.5 132.5v65q0 78 8 129t21.5 81.5t41.5 46t56 19.5t76 4q73 0 138 -19q14 -4 19 -8.5t5 -17.5q0 -14 -2.5 -17.5t-10.5 -3.5q-3 0 -24.5 5.5t-54.5 10.5t-63 5q-44 0 -67 -4t-44.5 -16t-30 -40t-13.5 -71t-5 -114v-45
q0 -69 5.5 -114t15 -71.5t30 -39.5t41 -16.5t58.5 -3.5q78 0 104 33t26 142v62h-120q-12 0 -16 4.5t-4 19.5t4 19.5t16 4.5h140q18 0 24 -4t6 -16v-90q0 -132 -40 -176t-148 -44zM240 699q-18 0 -24 4t-6 16v26q0 12 6 16t24 4t24 -4t6 -16v-26q0 -12 -6 -16t-24 -4z" />
    <glyph glyph-name="gdotaccent" unicode="&#x121;" horiz-adv-x="508" 
d="M60 250q0 78 11 127.5t36.5 76.5t58.5 36.5t85 9.5q112 0 146 -69l10 43q2 10 7 13t20 3q24 0 24 -13q0 -3 -6 -23.5t-12.5 -53.5t-6.5 -67v-305q0 -123 -51 -170.5t-149 -47.5q-68 0 -131 9q-9 2 -13.5 4t-7.5 8t-3 17q0 13 2.5 17t10.5 4q5 0 24 -2.5t53 -5.5t75 -3
q77 0 108.5 38t31.5 122v27q-43 -55 -151 -55q-107 0 -139.5 53t-32.5 207zM112 240q0 -127 22.5 -166t98.5 -39q85 0 121 31t36 128v96q0 92 -27 128.5t-110 36.5q-60 0 -88.5 -16.5t-40.5 -61t-12 -137.5zM253 584q-18 0 -24 4t-6 16v26q0 12 6 16t24 4t24 -4t6 -16v-26
q0 -12 -6 -16t-24 -4z" />
    <glyph glyph-name="Gcommaaccent" unicode="&#x122;" horiz-adv-x="485" 
d="M242 -10q-43 0 -67 3t-51.5 18t-41 44t-23 82.5t-9.5 132.5v65q0 78 8 129t21.5 81.5t41.5 46t56 19.5t76 4q73 0 138 -19q14 -4 19 -8.5t5 -17.5q0 -14 -2.5 -17.5t-10.5 -3.5q-3 0 -24.5 5.5t-54.5 10.5t-63 5q-44 0 -67 -4t-44.5 -16t-30 -40t-13.5 -71t-5 -114v-45
q0 -69 5.5 -114t15 -71.5t30 -39.5t41 -16.5t58.5 -3.5q78 0 104 33t26 142v62h-120q-12 0 -16 4.5t-4 19.5t4 19.5t16 4.5h140q18 0 24 -4t6 -16v-90q0 -132 -40 -176t-148 -44zM237 -221q-11 0 -14.5 2t-3.5 9q0 1 5.5 47.5t5.5 94.5q0 15 5 19.5t22 4.5t22 -4t5 -16
q0 -52 -6 -74l-18 -69q-4 -14 -23 -14z" />
    <glyph glyph-name="gcommaaccent" unicode="&#x123;" horiz-adv-x="508" 
d="M60 250q0 78 11 127.5t36.5 76.5t58.5 36.5t85 9.5q112 0 146 -69l10 43q2 10 7 13t20 3q24 0 24 -13q0 -3 -6 -23.5t-12.5 -53.5t-6.5 -67v-305q0 -123 -51 -170.5t-149 -47.5q-68 0 -131 9q-9 2 -13.5 4t-7.5 8t-3 17q0 13 2.5 17t10.5 4q5 0 24 -2.5t53 -5.5t75 -3
q77 0 108.5 38t31.5 122v27q-43 -55 -151 -55q-107 0 -139.5 53t-32.5 207zM112 240q0 -127 22.5 -166t98.5 -39q85 0 121 31t36 128v96q0 92 -27 128.5t-110 36.5q-60 0 -88.5 -16.5t-40.5 -61t-12 -137.5zM267 717q11 0 14.5 -2t3.5 -9q0 -1 -5.5 -47.5t-5.5 -94.5
q0 -15 -5 -19.5t-22 -4.5t-22 4t-5 16q0 52 6 74l18 69q4 14 23 14z" />
    <glyph glyph-name="Hcircumflex" unicode="&#x124;" horiz-adv-x="508" 
d="M120 344h268v246q0 12 4.5 16t20.5 4t20.5 -4t4.5 -16v-570q0 -12 -4.5 -16t-20.5 -4t-20.5 4t-4.5 16v276h-268v-276q0 -12 -4.5 -16t-20.5 -4t-20.5 4t-4.5 16v570q0 12 4.5 16t20.5 4t20.5 -4t4.5 -16v-246zM256 759h-5l-56 -90q-9 -14 -32 -14q-24 0 -24 10q0 5 7 18
l65 105q7 13 33 13h19q26 0 33 -13l65 -105q7 -13 7 -18q0 -10 -24 -10q-23 0 -32 14z" />
    <glyph glyph-name="hcircumflex" unicode="&#x125;" horiz-adv-x="490" 
d="M95 0q-16 0 -20.5 3.5t-4.5 16.5v610q0 13 4.5 16.5t20.5 3.5t20.5 -3.5t4.5 -16.5v-212q19 44 59 63t107 19q79 0 106.5 -30.5t27.5 -94.5v-355q0 -13 -4.5 -16.5t-20.5 -3.5t-20.5 3.5t-4.5 16.5v345q0 52 -19.5 71t-79.5 19q-83 0 -117 -41.5t-34 -133.5v-260
q0 -13 -4.5 -16.5t-20.5 -3.5zM269 770h-5l-56 -90q-9 -14 -32 -14q-24 0 -24 10q0 5 7 18l65 105q7 13 33 13h19q26 0 33 -13l65 -105q7 -13 7 -18q0 -10 -24 -10q-23 0 -32 14z" />
    <glyph glyph-name="Hbar" unicode="&#x126;" horiz-adv-x="508" 
d="M15 477q0 15 4 19.5t16 4.5h434q12 0 16 -4.5t4 -19.5t-4 -19.5t-16 -4.5h-434q-12 0 -16 4.5t-4 19.5zM120 344h268v246q0 12 4.5 16t20.5 4t20.5 -4t4.5 -16v-570q0 -12 -4.5 -16t-20.5 -4t-20.5 4t-4.5 16v276h-268v-276q0 -12 -4.5 -16t-20.5 -4t-20.5 4t-4.5 16v570
q0 12 4.5 16t20.5 4t20.5 -4t4.5 -16v-246z" />
    <glyph glyph-name="hbar" unicode="&#x127;" horiz-adv-x="490" 
d="M95 0q-16 0 -20.5 3.5t-4.5 16.5v524h-49q-10 0 -14 4.5t-4 17.5t4 17.5t14 4.5h49v42q0 13 4.5 16.5t20.5 3.5t20.5 -3.5t4.5 -16.5v-42h50q10 0 14 -4.5t4 -17.5t-4 -17.5t-14 -4.5h-50v-126q19 44 59 63t107 19q79 0 106.5 -30.5t27.5 -94.5v-355q0 -13 -4.5 -16.5
t-20.5 -3.5t-20.5 3.5t-4.5 16.5v345q0 52 -19.5 71t-79.5 19q-83 0 -117 -41.5t-34 -133.5v-260q0 -13 -4.5 -16.5t-20.5 -3.5z" />
    <glyph glyph-name="Itilde" unicode="&#x128;" horiz-adv-x="190" 
d="M95 0q-16 0 -20.5 4t-4.5 16v570q0 12 4.5 16t20.5 4t20.5 -4t4.5 -16v-570q0 -12 -4.5 -16t-20.5 -4zM-24 705q0 11 4.5 16.5t17.5 13.5q28 16 54 16q19 0 49 -10.5t44 -10.5q19 0 39 10.5t22 10.5q9 0 9 -20q0 -11 -4.5 -16.5t-17.5 -13.5q-28 -16 -54 -16
q-19 0 -49 10.5t-44 10.5q-19 0 -39 -10.5t-22 -10.5q-9 0 -9 20z" />
    <glyph glyph-name="itilde" unicode="&#x129;" horiz-adv-x="195" 
d="M-22 590q0 11 4.5 16.5t17.5 13.5q28 16 54 16q19 0 49 -10.5t44 -10.5q19 0 39 10.5t22 10.5q9 0 9 -20q0 -11 -4.5 -16.5t-17.5 -13.5q-28 -16 -54 -16q-19 0 -49 10.5t-44 10.5q-19 0 -39 -10.5t-22 -10.5q-9 0 -9 20zM95 0q-16 0 -20.5 3.5t-4.5 16.5v450
q0 13 4.5 16.5t20.5 3.5t20.5 -3.5t4.5 -16.5v-450q0 -13 -4.5 -16.5t-20.5 -3.5z" />
    <glyph glyph-name="Imacron" unicode="&#x12a;" horiz-adv-x="190" 
d="M95 0q-16 0 -20.5 4t-4.5 16v570q0 12 4.5 16t20.5 4t20.5 -4t4.5 -16v-570q0 -12 -4.5 -16t-20.5 -4zM3 725q0 15 4 19.5t16 4.5h145q12 0 16 -4.5t4 -19.5t-4 -19.5t-16 -4.5h-145q-12 0 -16 4.5t-4 19.5z" />
    <glyph glyph-name="imacron" unicode="&#x12b;" horiz-adv-x="195" 
d="M5 610q0 15 4 19.5t16 4.5h145q12 0 16 -4.5t4 -19.5t-4 -19.5t-16 -4.5h-145q-12 0 -16 4.5t-4 19.5zM95 0q-16 0 -20.5 3.5t-4.5 16.5v450q0 13 4.5 16.5t20.5 3.5t20.5 -3.5t4.5 -16.5v-450q0 -13 -4.5 -16.5t-20.5 -3.5z" />
    <glyph glyph-name="Ibreve" unicode="&#x12c;" horiz-adv-x="190" 
d="M95 0q-16 0 -20.5 4t-4.5 16v570q0 12 4.5 16t20.5 4t20.5 -4t4.5 -16v-570q0 -12 -4.5 -16t-20.5 -4zM95 675q-59 0 -74.5 16.5t-15.5 59.5q0 13 4 16.5t19 3.5t19 -3.5t4 -16.5q0 -24 7 -30t37 -6t37 6t7 30q0 13 4 16.5t19 3.5t19 -3.5t4 -16.5q0 -43 -15.5 -59.5
t-74.5 -16.5z" />
    <glyph glyph-name="ibreve" unicode="&#x12d;" horiz-adv-x="195" 
d="M98 560q-59 0 -74.5 16.5t-15.5 59.5q0 13 4 16.5t19 3.5t19 -3.5t4 -16.5q0 -24 7 -30t37 -6t37 6t7 30q0 13 4 16.5t19 3.5t19 -3.5t4 -16.5q0 -43 -15.5 -59.5t-74.5 -16.5zM95 0q-16 0 -20.5 3.5t-4.5 16.5v450q0 13 4.5 16.5t20.5 3.5t20.5 -3.5t4.5 -16.5v-450
q0 -13 -4.5 -16.5t-20.5 -3.5z" />
    <glyph glyph-name="Iogonek" unicode="&#x12e;" horiz-adv-x="190" 
d="M120 24q0 -21 -27 -58q-41 -56 -41 -84q0 -17 4.5 -22t17.5 -5q12 0 20.5 1.5t12.5 1.5q8 0 10.5 -4t2.5 -17q0 -11 -5 -15.5t-18 -7.5q-17 -4 -34 -4q-61 0 -61 66q0 21 10 42.5t21.5 36.5t40.5 49q-4 3 -4 16v570q0 12 4.5 16t20.5 4t20.5 -4t4.5 -16v-566z" />
    <glyph glyph-name="iogonek" unicode="&#x12f;" horiz-adv-x="195" 
d="M63 -190q-61 0 -61 66q0 51 71 128q-3 3 -3 16v450q0 13 4.5 16.5t20.5 3.5t20.5 -3.5t4.5 -16.5v-450q0 -22 -30 -59q-38 -46 -38 -79q0 -17 4.5 -22t17.5 -5q12 0 20.5 1.5t12.5 1.5q8 0 10.5 -4t2.5 -17q0 -11 -5 -15.5t-18 -7.5q-17 -4 -34 -4zM95 584q-18 0 -24 4
t-6 16v26q0 12 6 16t24 4t24 -4t6 -16v-26q0 -12 -6 -16t-24 -4z" />
    <glyph glyph-name="Idotaccent" unicode="&#x130;" horiz-adv-x="190" 
d="M95 0q-16 0 -20.5 4t-4.5 16v570q0 12 4.5 16t20.5 4t20.5 -4t4.5 -16v-570q0 -12 -4.5 -16t-20.5 -4zM95 699q-18 0 -24 4t-6 16v26q0 12 6 16t24 4t24 -4t6 -16v-26q0 -12 -6 -16t-24 -4z" />
    <glyph glyph-name="dotlessi" unicode="&#x131;" horiz-adv-x="195" 
d="M95 0q-16 0 -20.5 3.5t-4.5 16.5v450q0 13 4.5 16.5t20.5 3.5t20.5 -3.5t4.5 -16.5v-450q0 -13 -4.5 -16.5t-20.5 -3.5z" />
    <glyph glyph-name="IJ" unicode="&#x132;" horiz-adv-x="512" 
d="M95 0q-16 0 -20.5 4t-4.5 16v570q0 12 4.5 16t20.5 4t20.5 -4t4.5 -16v-570q0 -12 -4.5 -16t-20.5 -4zM307 -10q-45 0 -84 11q-23 6 -23 24q0 14 2.5 17.5t10.5 3.5q1 0 32 -5.5t57 -5.5q54 0 72 21.5t18 83.5v450q0 12 4.5 16t20.5 4t20.5 -4t4.5 -16v-460
q0 -140 -135 -140z" />
    <glyph glyph-name="ij" unicode="&#x133;" horiz-adv-x="390" 
d="M95 0q-16 0 -20.5 3.5t-4.5 16.5v450q0 13 4.5 16.5t20.5 3.5t20.5 -3.5t4.5 -16.5v-450q0 -13 -4.5 -16.5t-20.5 -3.5zM95 584q-18 0 -24 4t-6 16v26q0 12 6 16t24 4t24 -4t6 -16v-26q0 -12 -6 -16t-24 -4zM290 490q16 0 20.5 -3.5t4.5 -16.5v-540q0 -64 -20.5 -92
t-74.5 -28q-31 0 -57 8q-10 3 -13.5 4.5t-6.5 6t-3 11.5q0 13 2.5 17t10.5 4q3 0 24 -3t38 -3q32 0 41 14t9 71v530q0 13 4.5 16.5t20.5 3.5zM290 584q-18 0 -24 4t-6 16v26q0 12 6 16t24 4t24 -4t6 -16v-26q0 -12 -6 -16t-24 -4z" />
    <glyph glyph-name="Jcircumflex" unicode="&#x134;" horiz-adv-x="322" 
d="M117 -10q-45 0 -84 11q-23 6 -23 24q0 14 2.5 17.5t10.5 3.5q1 0 32 -5.5t57 -5.5q54 0 72 21.5t18 83.5v450q0 12 4.5 16t20.5 4t20.5 -4t4.5 -16v-460q0 -140 -135 -140zM229 759h-5l-56 -90q-9 -14 -32 -14q-24 0 -24 10q0 5 7 18l65 105q7 13 33 13h19q26 0 33 -13
l65 -105q7 -13 7 -18q0 -10 -24 -10q-23 0 -32 14z" />
    <glyph glyph-name="jcircumflex" unicode="&#x135;" horiz-adv-x="195" 
d="M95 490q16 0 20.5 -3.5t4.5 -16.5v-540q0 -64 -20.5 -92t-74.5 -28q-31 0 -57 8q-10 3 -13.5 4.5t-6.5 6t-3 11.5q0 13 2.5 17t10.5 4q2 0 23 -3t39 -3q32 0 41 14t9 71v530q0 13 4.5 16.5t20.5 3.5zM98 644h-5l-56 -90q-9 -14 -32 -14q-24 0 -24 10q0 5 7 18l65 105
q7 13 33 13h19q26 0 33 -13l65 -105q7 -13 7 -18q0 -10 -24 -10q-23 0 -32 14z" />
    <glyph glyph-name="Kcommaaccent" unicode="&#x136;" horiz-adv-x="434" 
d="M95 0q-16 0 -20.5 4t-4.5 16v570q0 12 4.5 16t20.5 4t20.5 -4t4.5 -16v-255h11l216 264q9 11 34 11q26 0 26 -12q0 -8 -12 -24l-220 -260l234 -283q10 -12 10 -20q0 -11 -23 -11q-27 0 -36 11l-230 285h-10v-276q0 -12 -4.5 -16t-20.5 -4zM202 -221q-11 0 -14.5 2t-3.5 9
q0 1 5.5 47.5t5.5 94.5q0 15 5 19.5t22 4.5t22 -4t5 -16q0 -52 -6 -74l-18 -69q-4 -14 -23 -14z" />
    <glyph glyph-name="kcommaaccent" unicode="&#x137;" horiz-adv-x="401" 
d="M95 0q-16 0 -20.5 3.5t-4.5 16.5v610q0 13 4.5 16.5t20.5 3.5t20.5 -3.5t4.5 -16.5v-355h7l191 202q12 13 36 13t24 -10q0 -8 -14 -22l-192 -202l204 -225q12 -14 12 -21q0 -10 -25 -10q-15 0 -20.5 2t-13.5 11l-203 223h-6v-216q0 -13 -4.5 -16.5t-20.5 -3.5zM186 -221
q-11 0 -14.5 2t-3.5 9q0 1 5.5 47.5t5.5 94.5q0 15 5 19.5t22 4.5t22 -4t5 -16q0 -52 -6 -74l-18 -69q-4 -14 -23 -14z" />
    <glyph glyph-name="Lacute" unicode="&#x139;" horiz-adv-x="420" 
d="M120 48h260q12 0 16 -4.5t4 -19.5t-4 -19.5t-16 -4.5h-285q-16 0 -20.5 4t-4.5 16v570q0 12 4.5 16t20.5 4t20.5 -4t4.5 -16v-542zM102 655q-19 0 -19 10q0 5 7 18l60 105q7 13 33 13q29 0 29 -10q0 -8 -8 -19l-70 -103q-4 -6 -6.5 -8.5t-8.5 -4t-17 -1.5z" />
    <glyph glyph-name="lacute" unicode="&#x13a;" horiz-adv-x="190" 
d="M95 0q-16 0 -20.5 3.5t-4.5 16.5v610q0 13 4.5 16.5t20.5 3.5t20.5 -3.5t4.5 -16.5v-610q0 -13 -4.5 -16.5t-20.5 -3.5zM83 691q-19 0 -19 10q0 5 7 18l60 105q7 13 33 13q29 0 29 -10q0 -8 -8 -19l-70 -103q-4 -6 -6.5 -8.5t-8.5 -4t-17 -1.5z" />
    <glyph glyph-name="Lcommaaccent" unicode="&#x13b;" horiz-adv-x="420" 
d="M120 48h260q12 0 16 -4.5t4 -19.5t-4 -19.5t-16 -4.5h-285q-16 0 -20.5 4t-4.5 16v570q0 12 4.5 16t20.5 4t20.5 -4t4.5 -16v-542zM218 -221q-11 0 -14.5 2t-3.5 9q0 1 5.5 47.5t5.5 94.5q0 15 5 19.5t22 4.5t22 -4t5 -16q0 -52 -6 -74l-18 -69q-4 -14 -23 -14z" />
    <glyph glyph-name="lcommaaccent" unicode="&#x13c;" horiz-adv-x="190" 
d="M95 0q-16 0 -20.5 3.5t-4.5 16.5v610q0 13 4.5 16.5t20.5 3.5t20.5 -3.5t4.5 -16.5v-610q0 -13 -4.5 -16.5t-20.5 -3.5zM75 -221q-11 0 -14.5 2t-3.5 9q0 1 5.5 47.5t5.5 94.5q0 15 5 19.5t22 4.5t22 -4t5 -16q0 -52 -6 -74l-18 -69q-4 -14 -23 -14z" />
    <glyph glyph-name="Lcaron" unicode="&#x13d;" horiz-adv-x="420" 
d="M120 48h260q12 0 16 -4.5t4 -19.5t-4 -19.5t-16 -4.5h-285q-16 0 -20.5 4t-4.5 16v570q0 12 4.5 16t20.5 4t20.5 -4t4.5 -16v-542zM259 610q17 0 22 -4t5 -16v-28q0 -30 -9 -66l-18 -69q-4 -14 -23 -14q-11 0 -14.5 2t-3.5 9q0 4 7 48t7 76v42q0 12 5 16t22 4z" />
    <glyph glyph-name="lcaron" unicode="&#x13e;" horiz-adv-x="299" 
d="M231 650q17 0 22 -4t5 -16v-28q0 -30 -9 -66l-18 -69q-4 -14 -23 -14q-11 0 -14.5 2t-3.5 9q0 4 7 48t7 76v42q0 12 5 16t22 4zM95 0q-16 0 -20.5 3.5t-4.5 16.5v610q0 13 4.5 16.5t20.5 3.5t20.5 -3.5t4.5 -16.5v-610q0 -13 -4.5 -16.5t-20.5 -3.5z" />
    <glyph glyph-name="Ldot" unicode="&#x13f;" horiz-adv-x="420" 
d="M120 48h260q12 0 16 -4.5t4 -19.5t-4 -19.5t-16 -4.5h-285q-16 0 -20.5 4t-4.5 16v570q0 12 4.5 16t20.5 4t20.5 -4t4.5 -16v-542zM241 284q-18 0 -24 4t-6 16v26q0 12 6 16t24 4t24 -4t6 -16v-26q0 -12 -6 -16t-24 -4z" />
    <glyph glyph-name="ldot" unicode="&#x140;" horiz-adv-x="259" 
d="M95 0q-16 0 -20.5 3.5t-4.5 16.5v610q0 13 4.5 16.5t20.5 3.5t20.5 -3.5t4.5 -16.5v-610q0 -13 -4.5 -16.5t-20.5 -3.5zM204 234q-18 0 -24 4t-6 16v26q0 12 6 16t24 4t24 -4t6 -16v-26q0 -12 -6 -16t-24 -4z" />
    <glyph glyph-name="Lslash" unicode="&#x141;" horiz-adv-x="420" 
d="M120 48h260q12 0 16 -4.5t4 -19.5t-4 -19.5t-16 -4.5h-285q-16 0 -20.5 4t-4.5 16v218l-35 -23q-11 -7 -15 -7q-11 0 -11 20q0 23 15 33l46 31v298q0 12 4.5 16t20.5 4t20.5 -4t4.5 -16v-265l138 93q10 7 15 7q11 0 11 -20q0 -23 -15 -33l-149 -100v-224z" />
    <glyph glyph-name="lslash" unicode="&#x142;" horiz-adv-x="190" 
d="M95 0q-16 0 -20.5 3.5t-4.5 16.5v247l-44 -30q-10 -6 -14 -6q-10 0 -10 18q0 22 14 32l54 37v312q0 13 4.5 16.5t20.5 3.5t20.5 -3.5t4.5 -16.5v-277l45 31q10 6 14 6q10 0 10 -18q0 -22 -14 -32l-55 -38v-282q0 -13 -4.5 -16.5t-20.5 -3.5z" />
    <glyph glyph-name="Nacute" unicode="&#x143;" horiz-adv-x="534" 
d="M95 0q-16 0 -20.5 4t-4.5 16v570q0 12 9 16t41 4q30 0 39.5 -3.5t15.5 -16.5l229 -540h10v540q0 12 4.5 16t20.5 4t20.5 -4t4.5 -16v-570q0 -12 -9 -16t-41 -4q-30 0 -39.5 3.5t-15.5 16.5l-229 540h-10v-540q0 -12 -4.5 -16t-20.5 -4zM250 655q-19 0 -19 10q0 5 7 18
l60 105q7 13 33 13q29 0 29 -10q0 -8 -8 -19l-70 -103q-4 -6 -6.5 -8.5t-8.5 -4t-17 -1.5z" />
    <glyph glyph-name="nacute" unicode="&#x144;" horiz-adv-x="505" 
d="M110 0q-16 0 -20.5 3.5t-4.5 16.5v313q0 34 -6.5 67t-12.5 53.5t-6 23.5q0 13 24 13q14 0 19 -3t8 -13l15 -64q20 48 62 69t113 21q79 0 106.5 -30.5t27.5 -94.5v-355q0 -13 -4.5 -16.5t-20.5 -3.5t-20.5 3.5t-4.5 16.5v345q0 52 -19.5 71t-79.5 19q-83 0 -117 -41.5
t-34 -133.5v-260q0 -13 -4.5 -16.5t-20.5 -3.5zM241 540q-19 0 -19 10q0 5 7 18l60 105q7 13 33 13q29 0 29 -10q0 -8 -8 -19l-70 -103q-4 -6 -6.5 -8.5t-8.5 -4t-17 -1.5z" />
    <glyph glyph-name="Ncommaaccent" unicode="&#x145;" horiz-adv-x="534" 
d="M95 0q-16 0 -20.5 4t-4.5 16v570q0 12 9 16t41 4q30 0 39.5 -3.5t15.5 -16.5l229 -540h10v540q0 12 4.5 16t20.5 4t20.5 -4t4.5 -16v-570q0 -12 -9 -16t-41 -4q-30 0 -39.5 3.5t-15.5 16.5l-229 540h-10v-540q0 -12 -4.5 -16t-20.5 -4zM250 -221q-11 0 -14.5 2t-3.5 9
q0 1 5.5 47.5t5.5 94.5q0 15 5 19.5t22 4.5t22 -4t5 -16q0 -52 -6 -74l-18 -69q-4 -14 -23 -14z" />
    <glyph glyph-name="ncommaaccent" unicode="&#x146;" horiz-adv-x="505" 
d="M110 0q-16 0 -20.5 3.5t-4.5 16.5v313q0 34 -6.5 67t-12.5 53.5t-6 23.5q0 13 24 13q14 0 19 -3t8 -13l15 -64q20 48 62 69t113 21q79 0 106.5 -30.5t27.5 -94.5v-355q0 -13 -4.5 -16.5t-20.5 -3.5t-20.5 3.5t-4.5 16.5v345q0 52 -19.5 71t-79.5 19q-83 0 -117 -41.5
t-34 -133.5v-260q0 -13 -4.5 -16.5t-20.5 -3.5zM243 -221q-11 0 -14.5 2t-3.5 9q0 1 5.5 47.5t5.5 94.5q0 15 5 19.5t22 4.5t22 -4t5 -16q0 -52 -6 -74l-18 -69q-4 -14 -23 -14z" />
    <glyph glyph-name="Ncaron" unicode="&#x147;" horiz-adv-x="534" 
d="M95 0q-16 0 -20.5 4t-4.5 16v570q0 12 9 16t41 4q30 0 39.5 -3.5t15.5 -16.5l229 -540h10v540q0 12 4.5 16t20.5 4t20.5 -4t4.5 -16v-570q0 -12 -9 -16t-41 -4q-30 0 -39.5 3.5t-15.5 16.5l-229 540h-10v-540q0 -12 -4.5 -16t-20.5 -4zM157 791q0 10 24 10q23 0 32 -14
l56 -90h5l56 90q9 14 32 14q24 0 24 -10q0 -5 -7 -18l-65 -105q-7 -13 -33 -13h-19q-26 0 -33 13l-65 105q-7 13 -7 18z" />
    <glyph glyph-name="ncaron" unicode="&#x148;" horiz-adv-x="505" 
d="M110 0q-16 0 -20.5 3.5t-4.5 16.5v313q0 34 -6.5 67t-12.5 53.5t-6 23.5q0 13 24 13q14 0 19 -3t8 -13l15 -64q20 48 62 69t113 21q79 0 106.5 -30.5t27.5 -94.5v-355q0 -13 -4.5 -16.5t-20.5 -3.5t-20.5 3.5t-4.5 16.5v345q0 52 -19.5 71t-79.5 19q-83 0 -117 -41.5
t-34 -133.5v-260q0 -13 -4.5 -16.5t-20.5 -3.5zM147 676q0 10 24 10q23 0 32 -14l56 -90h5l56 90q9 14 32 14q24 0 24 -10q0 -5 -7 -18l-65 -105q-7 -13 -33 -13h-19q-26 0 -33 13l-65 105q-7 13 -7 18z" />
    <glyph glyph-name="Eng" unicode="&#x14a;" horiz-adv-x="534" 
d="M369 -190q-31 0 -57 8q-10 3 -13.5 4.5t-6.5 6t-3 11.5q0 13 2.5 17t10.5 4q2 0 23 -3t39 -3q32 0 41 14t9 71v60q-30 0 -39.5 3.5t-15.5 16.5l-229 540h-10v-540q0 -12 -4.5 -16t-20.5 -4t-20.5 4t-4.5 16v570q0 12 9 16t41 4q30 0 39.5 -3.5t15.5 -16.5l229 -540h10
v540q0 12 4.5 16t20.5 4t20.5 -4t4.5 -16v-660q0 -64 -20.5 -92t-74.5 -28z" />
    <glyph glyph-name="eng" unicode="&#x14b;" horiz-adv-x="505" 
d="M340 -190q-31 0 -57 8q-10 3 -13.5 4.5t-6.5 6t-3 11.5q0 13 2.5 17t10.5 4q3 0 24 -3t38 -3q32 0 41 14t9 71v425q0 52 -19.5 71t-79.5 19q-83 0 -117 -41.5t-34 -133.5v-260q0 -13 -4.5 -16.5t-20.5 -3.5t-20.5 3.5t-4.5 16.5v313q0 34 -6.5 67t-12.5 53.5t-6 23.5
q0 13 24 13q14 0 19 -3t8 -13l15 -64q20 48 62 69t113 21q79 0 106.5 -30.5t27.5 -94.5v-445q0 -64 -20.5 -92t-74.5 -28z" />
    <glyph glyph-name="Omacron" unicode="&#x14c;" horiz-adv-x="520" 
d="M260 -10q-52 0 -83 5.5t-57.5 21.5t-39 49t-19 83.5t-6.5 130.5v45q0 80 8.5 133.5t22.5 85t42 47t56 20t76 4.5q52 0 83 -5.5t57.5 -21.5t39 -49t19 -83.5t6.5 -130.5v-45q0 -80 -8.5 -133.5t-22.5 -85t-42 -47t-56 -20t-76 -4.5zM260 35q41 0 64.5 4.5t43.5 18t29 41.5
t13.5 70.5t4.5 110.5v45q0 70 -3.5 110.5t-11.5 70t-27.5 42t-44 17.5t-68.5 5q-41 0 -64.5 -4.5t-43.5 -18t-29 -41.5t-13.5 -70.5t-4.5 -110.5v-45q0 -70 3.5 -110.5t11.5 -70t27.5 -42t44 -17.5t68.5 -5zM168 725q0 15 4 19.5t16 4.5h145q12 0 16 -4.5t4 -19.5t-4 -19.5
t-16 -4.5h-145q-12 0 -16 4.5t-4 19.5z" />
    <glyph glyph-name="omacron" unicode="&#x14d;" horiz-adv-x="492" 
d="M238 -10q-73 0 -109.5 19t-52.5 71.5t-16 159.5q0 148 43.5 204t150.5 56q73 0 109.5 -19t52.5 -71.5t16 -159.5q0 -148 -43.5 -204t-150.5 -56zM239 35q87 0 114 39.5t27 165.5q0 139 -21.5 177t-106.5 38q-86 0 -113 -39.5t-27 -165.5q0 -139 21 -177t106 -38zM154 610
q0 15 4 19.5t16 4.5h145q12 0 16 -4.5t4 -19.5t-4 -19.5t-16 -4.5h-145q-12 0 -16 4.5t-4 19.5z" />
    <glyph glyph-name="Obreve" unicode="&#x14e;" horiz-adv-x="520" 
d="M260 -10q-52 0 -83 5.5t-57.5 21.5t-39 49t-19 83.5t-6.5 130.5v45q0 80 8.5 133.5t22.5 85t42 47t56 20t76 4.5q52 0 83 -5.5t57.5 -21.5t39 -49t19 -83.5t6.5 -130.5v-45q0 -80 -8.5 -133.5t-22.5 -85t-42 -47t-56 -20t-76 -4.5zM260 35q41 0 64.5 4.5t43.5 18t29 41.5
t13.5 70.5t4.5 110.5v45q0 70 -3.5 110.5t-11.5 70t-27.5 42t-44 17.5t-68.5 5q-41 0 -64.5 -4.5t-43.5 -18t-29 -41.5t-13.5 -70.5t-4.5 -110.5v-45q0 -70 3.5 -110.5t11.5 -70t27.5 -42t44 -17.5t68.5 -5zM260 675q-59 0 -74.5 16.5t-15.5 59.5q0 13 4 16.5t19 3.5
t19 -3.5t4 -16.5q0 -24 7 -30t37 -6t37 6t7 30q0 13 4 16.5t19 3.5t19 -3.5t4 -16.5q0 -43 -15.5 -59.5t-74.5 -16.5z" />
    <glyph glyph-name="obreve" unicode="&#x14f;" horiz-adv-x="492" 
d="M238 -10q-73 0 -109.5 19t-52.5 71.5t-16 159.5q0 148 43.5 204t150.5 56q73 0 109.5 -19t52.5 -71.5t16 -159.5q0 -148 -43.5 -204t-150.5 -56zM239 35q87 0 114 39.5t27 165.5q0 139 -21.5 177t-106.5 38q-86 0 -113 -39.5t-27 -165.5q0 -139 21 -177t106 -38zM246 560
q-59 0 -74.5 16.5t-15.5 59.5q0 13 4 16.5t19 3.5t19 -3.5t4 -16.5q0 -24 7 -30t37 -6t37 6t7 30q0 13 4 16.5t19 3.5t19 -3.5t4 -16.5q0 -43 -15.5 -59.5t-74.5 -16.5z" />
    <glyph glyph-name="Ohungarumlaut" unicode="&#x150;" horiz-adv-x="520" 
d="M260 -10q-52 0 -83 5.5t-57.5 21.5t-39 49t-19 83.5t-6.5 130.5v45q0 80 8.5 133.5t22.5 85t42 47t56 20t76 4.5q52 0 83 -5.5t57.5 -21.5t39 -49t19 -83.5t6.5 -130.5v-45q0 -80 -8.5 -133.5t-22.5 -85t-42 -47t-56 -20t-76 -4.5zM260 35q41 0 64.5 4.5t43.5 18t29 41.5
t13.5 70.5t4.5 110.5v45q0 70 -3.5 110.5t-11.5 70t-27.5 42t-44 17.5t-68.5 5q-41 0 -64.5 -4.5t-43.5 -18t-29 -41.5t-13.5 -70.5t-4.5 -110.5v-45q0 -70 3.5 -110.5t11.5 -70t27.5 -42t44 -17.5t68.5 -5zM173 665q0 7 57 123q6 13 33 13q13 0 21 -2q7 -1 7 -8
q0 -10 -67 -122q-5 -9 -10.5 -11.5t-21.5 -2.5q-19 0 -19 10zM273 665q0 8 72 123q5 8 10.5 10.5t22.5 2.5q13 0 21 -2t8 -8q0 -11 -82 -122q-4 -6 -6.5 -8.5t-8.5 -4t-17 -1.5q-20 0 -20 10z" />
    <glyph glyph-name="ohungarumlaut" unicode="&#x151;" horiz-adv-x="492" 
d="M238 -10q-73 0 -109.5 19t-52.5 71.5t-16 159.5q0 148 43.5 204t150.5 56q73 0 109.5 -19t52.5 -71.5t16 -159.5q0 -148 -43.5 -204t-150.5 -56zM239 35q87 0 114 39.5t27 165.5q0 139 -21.5 177t-106.5 38q-86 0 -113 -39.5t-27 -165.5q0 -139 21 -177t106 -38zM156 550
q0 7 57 123q6 13 33 13q13 0 21 -2q7 -1 7 -8q0 -10 -67 -122q-5 -9 -10.5 -11.5t-21.5 -2.5q-19 0 -19 10zM256 550q0 8 72 123q5 8 10.5 10.5t22.5 2.5q13 0 21 -2t8 -8q0 -11 -82 -122q-4 -6 -6.5 -8.5t-8.5 -4t-17 -1.5q-20 0 -20 10z" />
    <glyph glyph-name="OE" unicode="&#x152;" horiz-adv-x="800" 
d="M260 -10q-48 0 -76 4.5t-56 20t-42 47t-22.5 85t-8.5 133.5v45q0 80 6.5 130.5t19 83.5t39 49t57.5 21.5t83 5.5q116 0 155 -41v16q0 12 4.5 16t20.5 4h295q12 0 16 -4.5t4 -19.5t-4 -19.5t-16 -4.5h-270v-215h220q12 0 16 -4.5t4 -18.5t-4 -18.5t-16 -4.5h-220v-253h280
q12 0 16 -4.5t4 -19.5t-4 -19.5t-16 -4.5h-305q-16 0 -20.5 4t-4.5 16v17q-23 -28 -59 -37.5t-96 -9.5zM260 35q68 0 98 15t43.5 61.5t13.5 149.5v67q0 57 -2 92.5t-8.5 65t-16 44t-28.5 25t-41.5 13t-58.5 2.5q-44 0 -68.5 -5t-44 -17.5t-27.5 -42t-11.5 -70t-3.5 -110.5
v-45q0 -68 4.5 -110.5t13.5 -70.5t29 -41.5t43.5 -18t64.5 -4.5z" />
    <glyph glyph-name="oe" unicode="&#x153;" horiz-adv-x="780" 
d="M238 -10q-73 0 -109.5 19t-52.5 71.5t-16 159.5q0 148 43.5 204t150.5 56q66 0 102.5 -15.5t53.5 -57.5q22 45 59 59t97 14q45 0 75.5 -10t48 -26.5t26.5 -48.5t11.5 -63.5t2.5 -84.5q0 -17 -5.5 -24.5t-22.5 -7.5h-269q0 -130 24 -164.5t119 -34.5q34 0 65 6t50 12t24 6
q9 0 9 -20q0 -13 -4.5 -18t-18.5 -10q-59 -22 -133 -22t-111.5 15t-55.5 61q-22 -41 -61 -58.5t-102 -17.5zM239 35q87 0 114 39.5t27 165.5q0 139 -21.5 177t-106.5 38q-86 0 -113 -39.5t-27 -165.5q0 -139 21 -177t106 -38zM564 456q-50 0 -75 -12t-39.5 -50.5
t-16.5 -115.5h245q0 38 -0.5 55.5t-3.5 43t-10 36t-19.5 23t-32.5 16.5t-48 4z" />
    <glyph glyph-name="Racute" unicode="&#x154;" horiz-adv-x="491" 
d="M95 0q-16 0 -20.5 4t-4.5 16v560q0 22 25 26q66 9 140 9q62 0 95.5 -4.5t59.5 -20.5t35 -46.5t9 -83.5q0 -79 -24 -121t-85 -56l118 -255q5 -12 5 -15q0 -13 -26 -13q-24 0 -29 12l-116 264q-13 -1 -42 -1h-115v-255q0 -12 -4.5 -16t-20.5 -4zM120 562v-242h115
q87 0 116 28t29 112q0 68 -26 88t-119 20q-55 0 -115 -6zM211 655q-19 0 -19 10q0 5 7 18l60 105q7 13 33 13q29 0 29 -10q0 -8 -8 -19l-70 -103q-4 -6 -6.5 -8.5t-8.5 -4t-17 -1.5z" />
    <glyph glyph-name="racute" unicode="&#x155;" horiz-adv-x="324" 
d="M110 0q-16 0 -20.5 3.5t-4.5 16.5v313q0 34 -6.5 67t-12.5 53.5t-6 23.5q0 13 24 13q14 0 19 -3t8 -13l16 -66q36 92 125 92q29 0 45 -7q12 -5 12 -24q0 -20 -12 -20q-2 0 -20 3t-33 3q-109 0 -109 -210v-225q0 -13 -4.5 -16.5t-20.5 -3.5zM129 540q-19 0 -19 10
q0 5 7 18l60 105q7 13 33 13q29 0 29 -10q0 -8 -8 -19l-70 -103q-4 -6 -6.5 -8.5t-8.5 -4t-17 -1.5z" />
    <glyph glyph-name="Rcommaaccent" unicode="&#x156;" horiz-adv-x="491" 
d="M95 0q-16 0 -20.5 4t-4.5 16v560q0 22 25 26q66 9 140 9q62 0 95.5 -4.5t59.5 -20.5t35 -46.5t9 -83.5q0 -79 -24 -121t-85 -56l118 -255q5 -12 5 -15q0 -13 -26 -13q-24 0 -29 12l-116 264q-13 -1 -42 -1h-115v-255q0 -12 -4.5 -16t-20.5 -4zM120 562v-242h115
q87 0 116 28t29 112q0 68 -26 88t-119 20q-55 0 -115 -6zM231 -221q-11 0 -14.5 2t-3.5 9q0 1 5.5 47.5t5.5 94.5q0 15 5 19.5t22 4.5t22 -4t5 -16q0 -52 -6 -74l-18 -69q-4 -14 -23 -14z" />
    <glyph glyph-name="rcommaaccent" unicode="&#x157;" horiz-adv-x="324" 
d="M110 0q-16 0 -20.5 3.5t-4.5 16.5v313q0 34 -6.5 67t-12.5 53.5t-6 23.5q0 13 24 13q14 0 19 -3t8 -13l16 -66q36 92 125 92q29 0 45 -7q12 -5 12 -24q0 -20 -12 -20q-2 0 -20 3t-33 3q-109 0 -109 -210v-225q0 -13 -4.5 -16.5t-20.5 -3.5zM93 -231q-11 0 -14.5 2t-3.5 9
q0 1 5.5 47.5t5.5 94.5q0 15 5 19.5t22 4.5t22 -4t5 -16q0 -51 -6 -74l-18 -69q-4 -14 -23 -14z" />
    <glyph glyph-name="Rcaron" unicode="&#x158;" horiz-adv-x="491" 
d="M95 0q-16 0 -20.5 4t-4.5 16v560q0 22 25 26q66 9 140 9q62 0 95.5 -4.5t59.5 -20.5t35 -46.5t9 -83.5q0 -79 -24 -121t-85 -56l118 -255q5 -12 5 -15q0 -13 -26 -13q-24 0 -29 12l-116 264q-13 -1 -42 -1h-115v-255q0 -12 -4.5 -16t-20.5 -4zM120 562v-242h115
q87 0 116 28t29 112q0 68 -26 88t-119 20q-55 0 -115 -6zM134 791q0 10 24 10q23 0 32 -14l56 -90h5l56 90q9 14 32 14q24 0 24 -10q0 -5 -7 -18l-65 -105q-7 -13 -33 -13h-19q-26 0 -33 13l-65 105q-7 13 -7 18z" />
    <glyph glyph-name="rcaron" unicode="&#x159;" horiz-adv-x="324" 
d="M110 0q-16 0 -20.5 3.5t-4.5 16.5v313q0 34 -6.5 67t-12.5 53.5t-6 23.5q0 13 24 13q14 0 19 -3t8 -13l16 -66q36 92 125 92q29 0 45 -7q12 -5 12 -24q0 -20 -12 -20q-2 0 -20 3t-33 3q-109 0 -109 -210v-225q0 -13 -4.5 -16.5t-20.5 -3.5zM53 676q0 10 24 10
q23 0 32 -14l56 -90h5l56 90q9 14 32 14q24 0 24 -10q0 -5 -7 -18l-65 -105q-7 -13 -33 -13h-19q-26 0 -33 13l-65 105q-7 13 -7 18z" />
    <glyph glyph-name="Sacute" unicode="&#x15a;" 
d="M225 -10q-86 0 -151 19q-24 8 -24 27q0 14 3 18t11 4l52 -10q53 -11 99 -11q78 0 110.5 26t32.5 87q0 47 -11 70.5t-41 36.5l-142 64q-60 27 -79.5 54.5t-19.5 89.5q0 50 12 82t37 46t49 18t62 4q84 0 147 -20q23 -6 23 -26q0 -14 -2.5 -18t-10.5 -4q-3 0 -25 5.5
t-56 10.5t-66 5q-74 0 -96 -17.5t-22 -85.5q0 -41 13 -59.5t49 -34.5l144 -65q53 -23 70 -56.5t17 -94.5q0 -91 -49 -128t-136 -37zM214 655q-19 0 -19 10q0 5 7 18l60 105q7 13 33 13q29 0 29 -10q0 -8 -8 -19l-70 -103q-4 -6 -6.5 -8.5t-8.5 -4t-17 -1.5z" />
    <glyph glyph-name="sacute" unicode="&#x15b;" horiz-adv-x="421" 
d="M196 -10q-66 0 -123 18q-14 5 -18.5 9.5t-4.5 17.5q0 21 9 21q1 0 47.5 -10t88.5 -10q68 0 96.5 24t28.5 75q0 28 -10 43t-33 24l-151 63q-65 28 -65 112q0 69 38.5 96t106.5 27q62 0 127 -17q14 -4 18.5 -9t4.5 -19q0 -13 -2.5 -16.5t-8.5 -3.5q-4 0 -25.5 5.5t-53 10.5
t-59.5 5q-55 0 -75 -17.5t-20 -58.5q0 -31 9 -47t35 -27l147 -60q37 -15 52.5 -39.5t15.5 -66.5q0 -150 -175 -150zM183 540q-19 0 -19 10q0 5 7 18l60 105q7 13 33 13q29 0 29 -10q0 -8 -8 -19l-70 -103q-4 -6 -6.5 -8.5t-8.5 -4t-17 -1.5z" />
    <glyph glyph-name="Scircumflex" unicode="&#x15c;" 
d="M225 -10q-86 0 -151 19q-24 8 -24 27q0 14 3 18t11 4l52 -10q53 -11 99 -11q78 0 110.5 26t32.5 87q0 47 -11 70.5t-41 36.5l-142 64q-60 27 -79.5 54.5t-19.5 89.5q0 50 12 82t37 46t49 18t62 4q84 0 147 -20q23 -6 23 -26q0 -14 -2.5 -18t-10.5 -4q-3 0 -25 5.5
t-56 10.5t-66 5q-74 0 -96 -17.5t-22 -85.5q0 -41 13 -59.5t49 -34.5l144 -65q53 -23 70 -56.5t17 -94.5q0 -91 -49 -128t-136 -37zM242 759h-5l-56 -90q-9 -14 -32 -14q-24 0 -24 10q0 5 7 18l65 105q7 13 33 13h19q26 0 33 -13l65 -105q7 -13 7 -18q0 -10 -24 -10
q-23 0 -32 14z" />
    <glyph glyph-name="scircumflex" unicode="&#x15d;" horiz-adv-x="421" 
d="M196 -10q-66 0 -123 18q-14 5 -18.5 9.5t-4.5 17.5q0 21 9 21q1 0 47.5 -10t88.5 -10q68 0 96.5 24t28.5 75q0 28 -10 43t-33 24l-151 63q-65 28 -65 112q0 69 38.5 96t106.5 27q62 0 127 -17q14 -4 18.5 -9t4.5 -19q0 -13 -2.5 -16.5t-8.5 -3.5q-4 0 -25.5 5.5t-53 10.5
t-59.5 5q-55 0 -75 -17.5t-20 -58.5q0 -31 9 -47t35 -27l147 -60q37 -15 52.5 -39.5t15.5 -66.5q0 -150 -175 -150zM206 644h-5l-56 -90q-9 -14 -32 -14q-24 0 -24 10q0 5 7 18l65 105q7 13 33 13h19q26 0 33 -13l65 -105q7 -13 7 -18q0 -10 -24 -10q-23 0 -32 14z" />
    <glyph glyph-name="Scedilla" unicode="&#x15e;" 
d="M239 -190q-25 0 -44 4q-23 4 -23 23q0 13 2.5 17t10.5 4q2 0 15 -1.5t28 -1.5q11 0 17 1t10.5 5.5t4.5 13.5q0 5 -0.5 8.5t-4 6.5t-5.5 4.5t-9 6t-11 7.5q-28 19 -28 51v32q-70 2 -128 18q-24 8 -24 27q0 14 3 18t11 4l52 -10q53 -11 99 -11q78 0 110.5 26t32.5 87
q0 47 -11 70.5t-41 36.5l-142 64q-60 27 -79.5 54.5t-19.5 89.5q0 50 12 82t37 46t49 18t62 4q84 0 147 -20q23 -6 23 -26q0 -14 -2.5 -18t-10.5 -4q-3 0 -25 5.5t-56 10.5t-66 5q-74 0 -96 -17.5t-22 -85.5q0 -41 13 -59.5t49 -34.5l144 -65q53 -23 70 -56.5t17 -94.5
q0 -87 -45 -124.5t-125 -40.5v-19q0 -11 2.5 -16.5t13.5 -12.5q35 -23 44.5 -35t9.5 -40q0 -57 -71 -57z" />
    <glyph glyph-name="scedilla" unicode="&#x15f;" horiz-adv-x="421" 
d="M216 -190q-25 0 -44 4q-23 4 -23 23q0 13 2.5 17t10.5 4q2 0 15 -1.5t28 -1.5q11 0 17 1t10.5 5.5t4.5 13.5q0 5 -0.5 8.5t-4 6.5t-5.5 4.5t-9 6t-11 7.5q-28 19 -28 51v31q-55 3 -106 18q-14 5 -18.5 9.5t-4.5 17.5q0 21 9 21q1 0 47.5 -10t88.5 -10q68 0 96.5 24
t28.5 75q0 28 -10 43t-33 24l-151 63q-65 28 -65 112q0 69 38.5 96t106.5 27q62 0 127 -17q14 -4 18.5 -9t4.5 -19q0 -13 -2.5 -16.5t-8.5 -3.5q-4 0 -25.5 5.5t-53 10.5t-59.5 5q-55 0 -75 -17.5t-20 -58.5q0 -31 9 -47t35 -27l147 -60q37 -15 52.5 -39.5t15.5 -66.5
q0 -140 -154 -149v-20q0 -11 2.5 -16.5t13.5 -12.5q35 -23 44.5 -35t9.5 -40q0 -57 -71 -57z" />
    <glyph glyph-name="Scaron" unicode="&#x160;" 
d="M225 -10q-86 0 -151 19q-24 8 -24 27q0 14 3 18t11 4l52 -10q53 -11 99 -11q78 0 110.5 26t32.5 87q0 47 -11 70.5t-41 36.5l-142 64q-60 27 -79.5 54.5t-19.5 89.5q0 50 12 82t37 46t49 18t62 4q84 0 147 -20q23 -6 23 -26q0 -14 -2.5 -18t-10.5 -4q-3 0 -25 5.5
t-56 10.5t-66 5q-74 0 -96 -17.5t-22 -85.5q0 -41 13 -59.5t49 -34.5l144 -65q53 -23 70 -56.5t17 -94.5q0 -91 -49 -128t-136 -37zM130 791q0 10 24 10q23 0 32 -14l56 -90h5l56 90q9 14 32 14q24 0 24 -10q0 -5 -7 -18l-65 -105q-7 -13 -33 -13h-19q-26 0 -33 13l-65 105
q-7 13 -7 18z" />
    <glyph glyph-name="scaron" unicode="&#x161;" horiz-adv-x="421" 
d="M196 -10q-66 0 -123 18q-14 5 -18.5 9.5t-4.5 17.5q0 21 9 21q1 0 47.5 -10t88.5 -10q68 0 96.5 24t28.5 75q0 28 -10 43t-33 24l-151 63q-65 28 -65 112q0 69 38.5 96t106.5 27q62 0 127 -17q14 -4 18.5 -9t4.5 -19q0 -13 -2.5 -16.5t-8.5 -3.5q-4 0 -25.5 5.5t-53 10.5
t-59.5 5q-55 0 -75 -17.5t-20 -58.5q0 -31 9 -47t35 -27l147 -60q37 -15 52.5 -39.5t15.5 -66.5q0 -150 -175 -150zM89 676q0 10 24 10q23 0 32 -14l56 -90h5l56 90q9 14 32 14q24 0 24 -10q0 -5 -7 -18l-65 -105q-7 -13 -33 -13h-19q-26 0 -33 13l-65 105q-7 13 -7 18z" />
    <glyph glyph-name="Tcommaaccent" unicode="&#x162;" horiz-adv-x="418" 
d="M209 0q-16 0 -20.5 4t-4.5 16v542h-154q-12 0 -16 4.5t-4 19.5t4 19.5t16 4.5h358q12 0 16 -4.5t4 -19.5t-4 -19.5t-16 -4.5h-154v-542q0 -12 -4.5 -16t-20.5 -4zM190 -221q-11 0 -14.5 2t-3.5 9q0 1 5.5 47.5t5.5 94.5q0 15 5 19.5t22 4.5t22 -4t5 -16q0 -52 -6 -74
l-18 -69q-4 -14 -23 -14z" />
    <glyph glyph-name="tcommaaccent" unicode="&#x163;" horiz-adv-x="305" 
d="M205 -10q-54 0 -74.5 28t-20.5 92v336h-60q-11 0 -15.5 4.5t-4.5 17.5t4.5 17.5t15.5 4.5h60v80q0 13 4.5 16.5t20.5 3.5t20.5 -3.5t4.5 -16.5v-80h100q11 0 15.5 -4.5t4.5 -17.5t-4.5 -17.5t-15.5 -4.5h-100v-326q0 -57 9 -71t41 -14q17 0 38.5 3t23.5 3q8 0 10.5 -4
t2.5 -17q0 -10 -4.5 -14t-18.5 -8q-26 -8 -57 -8zM172 -221q-11 0 -14.5 2t-3.5 9q0 1 5.5 47.5t5.5 94.5q0 15 5 19.5t22 4.5t22 -4t5 -16q0 -52 -6 -74l-18 -69q-4 -14 -23 -14z" />
    <glyph glyph-name="Tcaron" unicode="&#x164;" horiz-adv-x="418" 
d="M209 0q-16 0 -20.5 4t-4.5 16v542h-154q-12 0 -16 4.5t-4 19.5t4 19.5t16 4.5h358q12 0 16 -4.5t4 -19.5t-4 -19.5t-16 -4.5h-154v-542q0 -12 -4.5 -16t-20.5 -4zM94 791q0 10 24 10q23 0 32 -14l56 -90h5l56 90q9 14 32 14q24 0 24 -10q0 -5 -7 -18l-65 -105
q-7 -13 -33 -13h-19q-26 0 -33 13l-65 105q-7 13 -7 18z" />
    <glyph glyph-name="tcaron" unicode="&#x165;" horiz-adv-x="423" 
d="M355 650q17 0 22 -4t5 -16v-28q0 -30 -9 -66l-18 -69q-4 -14 -23 -14q-11 0 -14.5 2t-3.5 9q0 4 7 48t7 76v42q0 12 5 16t22 4zM205 -10q-54 0 -74.5 28t-20.5 92v336h-60q-11 0 -15.5 4.5t-4.5 17.5t4.5 17.5t15.5 4.5h60v80q0 13 4.5 16.5t20.5 3.5t20.5 -3.5
t4.5 -16.5v-80h100q11 0 15.5 -4.5t4.5 -17.5t-4.5 -17.5t-15.5 -4.5h-100v-326q0 -57 9 -71t41 -14q17 0 38.5 3t23.5 3q8 0 10.5 -4t2.5 -17q0 -10 -4.5 -14t-18.5 -8q-26 -8 -57 -8z" />
    <glyph glyph-name="Tbar" unicode="&#x166;" horiz-adv-x="418" 
d="M209 0q-16 0 -20.5 4t-4.5 16v281h-138q-12 0 -16 4.5t-4 19.5t4 19.5t16 4.5h138v213h-154q-12 0 -16 4.5t-4 19.5t4 19.5t16 4.5h358q12 0 16 -4.5t4 -19.5t-4 -19.5t-16 -4.5h-154v-213h137q12 0 16 -4.5t4 -19.5t-4 -19.5t-16 -4.5h-137v-281q0 -12 -4.5 -16
t-20.5 -4z" />
    <glyph glyph-name="tbar" unicode="&#x167;" horiz-adv-x="305" 
d="M34 248q0 13 4 17.5t14 4.5h205q11 0 15 -4.5t4 -17.5t-4 -17.5t-15 -4.5h-205q-10 0 -14 4.5t-4 17.5zM205 -10q-54 0 -74.5 28t-20.5 92v336h-60q-11 0 -15.5 4.5t-4.5 17.5t4.5 17.5t15.5 4.5h60v80q0 13 4.5 16.5t20.5 3.5t20.5 -3.5t4.5 -16.5v-80h100
q11 0 15.5 -4.5t4.5 -17.5t-4.5 -17.5t-15.5 -4.5h-100v-326q0 -57 9 -71t41 -14q17 0 38.5 3t23.5 3q8 0 10.5 -4t2.5 -17q0 -10 -4.5 -14t-18.5 -8q-26 -8 -57 -8z" />
    <glyph glyph-name="Utilde" unicode="&#x168;" horiz-adv-x="516" 
d="M258 -10q-99 0 -143.5 42t-44.5 138v420q0 12 4.5 16t20.5 4t20.5 -4t4.5 -16v-420q0 -71 29 -100.5t109 -29.5t109 29.5t29 100.5v420q0 12 4.5 16t20.5 4t20.5 -4t4.5 -16v-420q0 -96 -44.5 -138t-143.5 -42zM139 705q0 11 4.5 16.5t17.5 13.5q28 16 54 16
q19 0 49 -10.5t44 -10.5q19 0 39 10.5t22 10.5q9 0 9 -20q0 -11 -4.5 -16.5t-17.5 -13.5q-28 -16 -54 -16q-19 0 -49 10.5t-44 10.5q-19 0 -39 -10.5t-22 -10.5q-9 0 -9 20z" />
    <glyph glyph-name="utilde" unicode="&#x169;" horiz-adv-x="495" 
d="M204 -10q-79 0 -106.5 30.5t-27.5 94.5v355q0 13 4.5 16.5t20.5 3.5t20.5 -3.5t4.5 -16.5v-345q0 -52 19.5 -71t79.5 -19q83 0 117 41.5t34 133.5v260q0 13 4.5 16.5t20.5 3.5t20.5 -3.5t4.5 -16.5v-313q0 -34 6 -67t12.5 -53.5t6.5 -23.5q0 -13 -24 -13q-14 0 -19 3
t-8 13l-16 63q-20 -48 -61.5 -68.5t-112.5 -20.5zM126 590q0 11 4.5 16.5t17.5 13.5q28 16 54 16q19 0 49 -10.5t44 -10.5q19 0 39 10.5t22 10.5q9 0 9 -20q0 -11 -4.5 -16.5t-17.5 -13.5q-28 -16 -54 -16q-19 0 -49 10.5t-44 10.5q-19 0 -39 -10.5t-22 -10.5q-9 0 -9 20z
" />
    <glyph glyph-name="Umacron" unicode="&#x16a;" horiz-adv-x="516" 
d="M258 -10q-99 0 -143.5 42t-44.5 138v420q0 12 4.5 16t20.5 4t20.5 -4t4.5 -16v-420q0 -71 29 -100.5t109 -29.5t109 29.5t29 100.5v420q0 12 4.5 16t20.5 4t20.5 -4t4.5 -16v-420q0 -96 -44.5 -138t-143.5 -42zM165 725q0 15 4 19.5t16 4.5h145q12 0 16 -4.5t4 -19.5
t-4 -19.5t-16 -4.5h-145q-12 0 -16 4.5t-4 19.5z" />
    <glyph glyph-name="umacron" unicode="&#x16b;" horiz-adv-x="495" 
d="M204 -10q-79 0 -106.5 30.5t-27.5 94.5v355q0 13 4.5 16.5t20.5 3.5t20.5 -3.5t4.5 -16.5v-345q0 -52 19.5 -71t79.5 -19q83 0 117 41.5t34 133.5v260q0 13 4.5 16.5t20.5 3.5t20.5 -3.5t4.5 -16.5v-313q0 -34 6 -67t12.5 -53.5t6.5 -23.5q0 -13 -24 -13q-14 0 -19 3
t-8 13l-16 63q-20 -48 -61.5 -68.5t-112.5 -20.5zM153 610q0 15 4 19.5t16 4.5h145q12 0 16 -4.5t4 -19.5t-4 -19.5t-16 -4.5h-145q-12 0 -16 4.5t-4 19.5z" />
    <glyph glyph-name="Ubreve" unicode="&#x16c;" horiz-adv-x="516" 
d="M258 -10q-99 0 -143.5 42t-44.5 138v420q0 12 4.5 16t20.5 4t20.5 -4t4.5 -16v-420q0 -71 29 -100.5t109 -29.5t109 29.5t29 100.5v420q0 12 4.5 16t20.5 4t20.5 -4t4.5 -16v-420q0 -96 -44.5 -138t-143.5 -42zM258 675q-59 0 -74.5 16.5t-15.5 59.5q0 13 4 16.5t19 3.5
t19 -3.5t4 -16.5q0 -24 7 -30t37 -6t37 6t7 30q0 13 4 16.5t19 3.5t19 -3.5t4 -16.5q0 -43 -15.5 -59.5t-74.5 -16.5z" />
    <glyph glyph-name="ubreve" unicode="&#x16d;" horiz-adv-x="495" 
d="M204 -10q-79 0 -106.5 30.5t-27.5 94.5v355q0 13 4.5 16.5t20.5 3.5t20.5 -3.5t4.5 -16.5v-345q0 -52 19.5 -71t79.5 -19q83 0 117 41.5t34 133.5v260q0 13 4.5 16.5t20.5 3.5t20.5 -3.5t4.5 -16.5v-313q0 -34 6 -67t12.5 -53.5t6.5 -23.5q0 -13 -24 -13q-14 0 -19 3
t-8 13l-16 63q-20 -48 -61.5 -68.5t-112.5 -20.5zM245 560q-59 0 -74.5 16.5t-15.5 59.5q0 13 4 16.5t19 3.5t19 -3.5t4 -16.5q0 -24 7 -30t37 -6t37 6t7 30q0 13 4 16.5t19 3.5t19 -3.5t4 -16.5q0 -43 -15.5 -59.5t-74.5 -16.5z" />
    <glyph glyph-name="Uring" unicode="&#x16e;" horiz-adv-x="516" 
d="M258 -10q-99 0 -143.5 42t-44.5 138v420q0 12 4.5 16t20.5 4t20.5 -4t4.5 -16v-420q0 -71 29 -100.5t109 -29.5t109 29.5t29 100.5v420q0 12 4.5 16t20.5 4t20.5 -4t4.5 -16v-420q0 -96 -44.5 -138t-143.5 -42zM258 673q-59 0 -74.5 17.5t-15.5 60.5t15.5 60.5t74.5 17.5
t74.5 -17.5t15.5 -60.5t-15.5 -60.5t-74.5 -17.5zM258 712q30 0 38 7.5t8 31.5t-8 31.5t-38 7.5t-38 -7.5t-8 -31.5t8 -31.5t38 -7.5z" />
    <glyph glyph-name="uring" unicode="&#x16f;" horiz-adv-x="495" 
d="M204 -10q-79 0 -106.5 30.5t-27.5 94.5v355q0 13 4.5 16.5t20.5 3.5t20.5 -3.5t4.5 -16.5v-345q0 -52 19.5 -71t79.5 -19q83 0 117 41.5t34 133.5v260q0 13 4.5 16.5t20.5 3.5t20.5 -3.5t4.5 -16.5v-313q0 -34 6 -67t12.5 -53.5t6.5 -23.5q0 -13 -24 -13q-14 0 -19 3
t-8 13l-16 63q-20 -48 -61.5 -68.5t-112.5 -20.5zM245 558q-59 0 -74.5 17.5t-15.5 60.5t15.5 60.5t74.5 17.5t74.5 -17.5t15.5 -60.5t-15.5 -60.5t-74.5 -17.5zM245 597q30 0 38 7.5t8 31.5t-8 31.5t-38 7.5t-38 -7.5t-8 -31.5t8 -31.5t38 -7.5z" />
    <glyph glyph-name="Uhungarumlaut" unicode="&#x170;" horiz-adv-x="516" 
d="M258 -10q-99 0 -143.5 42t-44.5 138v420q0 12 4.5 16t20.5 4t20.5 -4t4.5 -16v-420q0 -71 29 -100.5t109 -29.5t109 29.5t29 100.5v420q0 12 4.5 16t20.5 4t20.5 -4t4.5 -16v-420q0 -96 -44.5 -138t-143.5 -42zM167 665q0 7 57 123q6 13 33 13q13 0 21 -2q7 -1 7 -8
q0 -10 -67 -122q-5 -9 -10.5 -11.5t-21.5 -2.5q-19 0 -19 10zM267 665q0 8 72 123q5 8 10.5 10.5t22.5 2.5q13 0 21 -2t8 -8q0 -11 -82 -122q-4 -6 -6.5 -8.5t-8.5 -4t-17 -1.5q-20 0 -20 10z" />
    <glyph glyph-name="uhungarumlaut" unicode="&#x171;" horiz-adv-x="495" 
d="M204 -10q-79 0 -106.5 30.5t-27.5 94.5v355q0 13 4.5 16.5t20.5 3.5t20.5 -3.5t4.5 -16.5v-345q0 -52 19.5 -71t79.5 -19q83 0 117 41.5t34 133.5v260q0 13 4.5 16.5t20.5 3.5t20.5 -3.5t4.5 -16.5v-313q0 -34 6 -67t12.5 -53.5t6.5 -23.5q0 -13 -24 -13q-14 0 -19 3
t-8 13l-16 63q-20 -48 -61.5 -68.5t-112.5 -20.5zM156 550q0 7 57 123q6 13 33 13q13 0 21 -2q7 -1 7 -8q0 -10 -67 -122q-5 -9 -10.5 -11.5t-21.5 -2.5q-19 0 -19 10zM256 550q0 8 72 123q5 8 10.5 10.5t22.5 2.5q13 0 21 -2t8 -8q0 -11 -82 -122q-4 -6 -6.5 -8.5t-8.5 -4
t-17 -1.5q-20 0 -20 10z" />
    <glyph glyph-name="Uogonek" unicode="&#x172;" horiz-adv-x="516" 
d="M264 -190q-61 0 -61 66q0 69 66 114h-11q-99 0 -143.5 42t-44.5 138v420q0 12 4.5 16t20.5 4t20.5 -4t4.5 -16v-420q0 -71 29 -100.5t109 -29.5t109 29.5t29 100.5v420q0 12 4.5 16t20.5 4t20.5 -4t4.5 -16v-420q0 -68 -23 -110t-88 -73q-82 -39 -82 -105q0 -17 4.5 -22
t17.5 -5q12 0 20.5 1.5t12.5 1.5q8 0 10.5 -4t2.5 -17q0 -11 -5 -15.5t-18 -7.5q-17 -4 -34 -4z" />
    <glyph glyph-name="uogonek" unicode="&#x173;" horiz-adv-x="495" 
d="M388 -190q-61 0 -61 66q0 30 16.5 57.5t57.5 71.5l-23 74q-20 -48 -61.5 -68.5t-112.5 -20.5q-79 0 -106.5 30.5t-27.5 94.5v355q0 13 4.5 16.5t20.5 3.5t20.5 -3.5t4.5 -16.5v-345q0 -52 19.5 -71t79.5 -19q83 0 117 41.5t34 133.5v260q0 13 4.5 16.5t20.5 3.5
t20.5 -3.5t4.5 -16.5v-313q0 -34 6 -67t12.5 -53.5t6.5 -23.5q0 -15 -30 -52q-38 -46 -38 -79q0 -17 4.5 -22t17.5 -5q12 0 20.5 1.5t12.5 1.5q8 0 10.5 -4t2.5 -17q0 -11 -5 -15.5t-18 -7.5q-17 -4 -34 -4z" />
    <glyph glyph-name="Wcircumflex" unicode="&#x174;" horiz-adv-x="788" 
d="M210 0q-27 0 -35 3.5t-12 16.5l-141 562q-2 10 -2 15q0 13 24 13q25 0 28 -12l132 -550h12l130 532q3 12 13.5 16t34.5 4t34.5 -4t13.5 -16l130 -532h12l132 550q3 12 28 12q24 0 24 -13q0 -5 -2 -15l-141 -562q-4 -13 -12 -16.5t-35 -3.5t-35 3.5t-12 16.5l-132 528h-10
l-132 -528q-4 -13 -12 -16.5t-35 -3.5zM396 759h-5l-56 -90q-9 -14 -32 -14q-24 0 -24 10q0 5 7 18l65 105q7 13 33 13h19q26 0 33 -13l65 -105q7 -13 7 -18q0 -10 -24 -10q-23 0 -32 14z" />
    <glyph glyph-name="wcircumflex" unicode="&#x175;" horiz-adv-x="689" 
d="M188 0q-21 0 -30.5 3.5t-13.5 16.5l-108 425q-6 24 -6 30q0 15 24 15q18 0 23.5 -4t9.5 -19l99 -421h10l103 404q5 18 13.5 24t32.5 6q23 0 31.5 -6t13.5 -24l103 -404h10l99 421q4 15 9.5 19t23.5 4q24 0 24 -15q0 -6 -6 -30l-108 -425q-4 -13 -13.5 -16.5t-30.5 -3.5
q-25 0 -37 3.5t-15 16.5l-102 403h-5l-102 -403q-3 -13 -15 -16.5t-37 -3.5zM347 644h-5l-56 -90q-9 -14 -32 -14q-24 0 -24 10q0 5 7 18l65 105q7 13 33 13h19q26 0 33 -13l65 -105q7 -13 7 -18q0 -10 -24 -10q-23 0 -32 14z" />
    <glyph glyph-name="Ycircumflex" unicode="&#x176;" horiz-adv-x="436" 
d="M218 0q-16 0 -20.5 4t-4.5 16v224l-167 335q-6 12 -6 18q0 13 25 13q27 0 33 -12l138 -296h4l138 296q6 12 33 12q25 0 25 -13q0 -6 -6 -18l-167 -335v-224q0 -12 -4.5 -16t-20.5 -4zM222 759h-5l-56 -90q-9 -14 -32 -14q-24 0 -24 10q0 5 7 18l65 105q7 13 33 13h19
q26 0 33 -13l65 -105q7 -13 7 -18q0 -10 -24 -10q-23 0 -32 14z" />
    <glyph glyph-name="ycircumflex" unicode="&#x177;" horiz-adv-x="437" 
d="M30 475q0 8 5 11.5t21 3.5q24 0 27 -12l135 -430h4l132 430q3 12 27 12q27 0 27 -14q0 -8 -7 -28l-164 -504q-11 -35 -17 -50t-16 -35.5t-20 -28.5t-26 -14t-37 -6q-38 0 -64 7q-23 6 -23 23q0 14 2.5 17.5t10.5 3.5q2 0 24 -3t45 -3q29 0 42 13t26 56l24 77
q-22 5 -35 43l-131 387q-12 35 -12 44zM223 644h-5l-56 -90q-9 -14 -32 -14q-24 0 -24 10q0 5 7 18l65 105q7 13 33 13h19q26 0 33 -13l65 -105q7 -13 7 -18q0 -10 -24 -10q-23 0 -32 14z" />
    <glyph glyph-name="Ydieresis" unicode="&#x178;" horiz-adv-x="436" 
d="M218 0q-16 0 -20.5 4t-4.5 16v224l-167 335q-6 12 -6 18q0 13 25 13q27 0 33 -12l138 -296h4l138 296q6 12 33 12q25 0 25 -13q0 -6 -6 -18l-167 -335v-224q0 -12 -4.5 -16t-20.5 -4zM156 699q-18 0 -23.5 3.5t-5.5 16.5v26q0 13 5.5 16.5t23.5 3.5t23.5 -3.5t5.5 -16.5
v-26q0 -13 -5.5 -16.5t-23.5 -3.5zM283 699q-18 0 -23.5 3.5t-5.5 16.5v26q0 13 5.5 16.5t23.5 3.5t23.5 -3.5t5.5 -16.5v-26q0 -13 -5.5 -16.5t-23.5 -3.5z" />
    <glyph glyph-name="Zacute" unicode="&#x179;" horiz-adv-x="402" 
d="M323 562h-261q-12 0 -16 4.5t-4 19.5t4 19.5t16 4.5h300q11 0 15.5 -5.5t4.5 -20.5q0 -19 -12 -38l-291 -498h281q12 0 16 -4.5t4 -19.5t-4 -19.5t-16 -4.5h-320q-11 0 -15.5 5.5t-4.5 20.5q0 17 12 38zM187 655q-19 0 -19 10q0 5 7 18l60 105q7 13 33 13q29 0 29 -10
q0 -8 -8 -19l-70 -103q-4 -6 -6.5 -8.5t-8.5 -4t-17 -1.5z" />
    <glyph glyph-name="zacute" unicode="&#x17a;" horiz-adv-x="392" 
d="M357 23q0 -14 -4 -18.5t-16 -4.5h-282q-12 0 -16 4.5t-4 18.5q0 25 10 41l258 380h-228q-12 0 -16 4.5t-4 18.5t4 18.5t16 4.5h262q12 0 16 -4.5t4 -18.5q0 -23 -12 -41l-257 -380h249q12 0 16 -4.5t4 -18.5zM179 540q-19 0 -19 10q0 5 7 18l60 105q7 13 33 13
q29 0 29 -10q0 -8 -8 -19l-70 -103q-4 -6 -6.5 -8.5t-8.5 -4t-17 -1.5z" />
    <glyph glyph-name="Zdotaccent" unicode="&#x17b;" horiz-adv-x="402" 
d="M323 562h-261q-12 0 -16 4.5t-4 19.5t4 19.5t16 4.5h300q11 0 15.5 -5.5t4.5 -20.5q0 -19 -12 -38l-291 -498h281q12 0 16 -4.5t4 -19.5t-4 -19.5t-16 -4.5h-320q-11 0 -15.5 5.5t-4.5 20.5q0 17 12 38zM211 699q-18 0 -24 4t-6 16v26q0 12 6 16t24 4t24 -4t6 -16v-26
q0 -12 -6 -16t-24 -4z" />
    <glyph glyph-name="zdotaccent" unicode="&#x17c;" horiz-adv-x="392" 
d="M357 23q0 -14 -4 -18.5t-16 -4.5h-282q-12 0 -16 4.5t-4 18.5q0 25 10 41l258 380h-228q-12 0 -16 4.5t-4 18.5t4 18.5t16 4.5h262q12 0 16 -4.5t4 -18.5q0 -23 -12 -41l-257 -380h249q12 0 16 -4.5t4 -18.5zM199 584q-18 0 -24 4t-6 16v26q0 12 6 16t24 4t24 -4t6 -16
v-26q0 -12 -6 -16t-24 -4z" />
    <glyph glyph-name="Zcaron" unicode="&#x17d;" horiz-adv-x="402" 
d="M323 562h-261q-12 0 -16 4.5t-4 19.5t4 19.5t16 4.5h300q11 0 15.5 -5.5t4.5 -20.5q0 -19 -12 -38l-291 -498h281q12 0 16 -4.5t4 -19.5t-4 -19.5t-16 -4.5h-320q-11 0 -15.5 5.5t-4.5 20.5q0 17 12 38zM97 791q0 10 24 10q23 0 32 -14l56 -90h5l56 90q9 14 32 14
q24 0 24 -10q0 -5 -7 -18l-65 -105q-7 -13 -33 -13h-19q-26 0 -33 13l-65 105q-7 13 -7 18z" />
    <glyph glyph-name="zcaron" unicode="&#x17e;" horiz-adv-x="392" 
d="M357 23q0 -14 -4 -18.5t-16 -4.5h-282q-12 0 -16 4.5t-4 18.5q0 25 10 41l258 380h-228q-12 0 -16 4.5t-4 18.5t4 18.5t16 4.5h262q12 0 16 -4.5t4 -18.5q0 -23 -12 -41l-257 -380h249q12 0 16 -4.5t4 -18.5zM85 676q0 10 24 10q23 0 32 -14l56 -90h5l56 90q9 14 32 14
q24 0 24 -10q0 -5 -7 -18l-65 -105q-7 -13 -33 -13h-19q-26 0 -33 13l-65 105q-7 13 -7 18z" />
    <glyph glyph-name="florin" unicode="&#x192;" 
d="M129 403q0 13 4.5 17.5t15.5 4.5h65l7 70q6 66 26.5 93t73.5 27q31 0 57 -8q10 -3 13.5 -4.5t6.5 -6t3 -11.5q0 -13 -2.5 -17t-10.5 -4q-2 0 -23 3t-39 3q-32 0 -41 -13.5t-14 -71.5l-6 -60h74q11 0 15.5 -4.5t4.5 -17.5t-4.5 -17.5t-15.5 -4.5h-78l-26 -271
q-6 -66 -26.5 -93t-73.5 -27q-31 0 -57 8q-10 3 -13.5 4.5t-6.5 6t-3 11.5q0 13 2.5 17t10.5 4q2 0 23.5 -3t38.5 -3q32 0 41 13.5t14 71.5l25 261h-61q-11 0 -15.5 4.5t-4.5 17.5z" />
    <glyph glyph-name="AEacute" unicode="&#x1fc;" horiz-adv-x="718" 
d="M44 0q-24 0 -24 12q0 4 4 16l180 562q4 13 12 16.5t35 3.5h402q12 0 16 -4.5t4 -19.5t-4 -19.5t-16 -4.5h-270v-215h220q12 0 16 -4.5t4 -18.5t-4 -18.5t-16 -4.5h-220v-253h280q12 0 16 -4.5t4 -19.5t-4 -19.5t-16 -4.5h-305q-16 0 -20.5 4t-4.5 16v180h-202l-59 -188
q-3 -12 -28 -12zM245 562l-100 -317h188v317h-88zM388 655q-19 0 -19 10q0 5 7 18l60 105q7 13 33 13q29 0 29 -10q0 -8 -8 -19l-70 -103q-4 -6 -6.5 -8.5t-8.5 -4t-17 -1.5z" />
    <glyph glyph-name="aeacute" unicode="&#x1fd;" horiz-adv-x="748" 
d="M179 -10q-67 0 -98 31.5t-31 105.5t38.5 104.5t133.5 30.5h128v103q0 55 -22.5 72.5t-81.5 17.5q-48 0 -101 -10.5t-54 -10.5q-11 0 -11 20q0 21 17 25q71 21 151 21q59 0 92 -12t48 -45q22 35 56 46t90 11q45 0 75.5 -10t48 -26.5t26.5 -48.5t11.5 -63.5t2.5 -84.5
q0 -17 -5.5 -24.5t-22.5 -7.5h-269q0 -58 4.5 -93.5t11 -58t22.5 -32t32 -12.5t47 -3q45 0 82.5 6t58 12t24.5 6q9 0 9 -20q0 -13 -4.5 -18t-18.5 -10q-59 -22 -144 -22q-76 0 -113.5 20t-51.5 88q-22 -54 -71.5 -81t-109.5 -27zM532 456q-55 0 -80 -12t-37 -49t-14 -117
h245q0 38 -0.5 55.5t-3.5 43t-10 36t-19.5 23t-32.5 16.5t-48 4zM187 36q68 0 115.5 39t47.5 101v47l-134 -5q-70 -3 -93 -20t-23 -67q0 -59 19 -77t68 -18zM382 540q-19 0 -19 10q0 5 7 18l60 105q7 13 33 13q29 0 29 -10q0 -8 -8 -19l-70 -103q-4 -6 -6.5 -8.5t-8.5 -4
t-17 -1.5z" />
    <glyph glyph-name="Oslashacute" unicode="&#x1fe;" horiz-adv-x="520" 
d="M239 655q-19 0 -19 10q0 5 7 18l60 105q7 13 33 13q29 0 29 -10q0 -8 -8 -19l-70 -103q-4 -6 -6.5 -8.5t-8.5 -4t-17 -1.5zM260 -10q-48 0 -76 4.5t-56 20t-42 47t-22.5 85t-8.5 133.5v45q0 80 6.5 130.5t19 83.5t39 49t57.5 21.5t83 5.5t83 -5.5t57.5 -21.5t39 -49
t19 -83.5t6.5 -130.5v-45q0 -80 -8.5 -133.5t-22.5 -85t-42 -47t-56 -20t-76 -4.5zM105 325v-45q0 -119 13 -167l271 415q-16 25 -45 33.5t-84 8.5q-44 0 -68.5 -5t-44 -17.5t-27.5 -42t-11.5 -70t-3.5 -110.5zM260 35q41 0 64.5 4.5t43.5 18t29 41.5t13.5 70.5t4.5 110.5
v45q0 104 -8 151l-266 -408q18 -20 45 -26.5t74 -6.5z" />
    <glyph glyph-name="oslashacute" unicode="&#x1ff;" horiz-adv-x="492" 
d="M226 540q-19 0 -19 10q0 5 7 18l60 105q7 13 33 13q29 0 29 -10q0 -8 -8 -19l-70 -103q-4 -6 -6.5 -8.5t-8.5 -4t-17 -1.5zM238 -10q-73 0 -109.5 19t-52.5 71.5t-16 159.5q0 148 43.5 204t150.5 56q73 0 109.5 -19t52.5 -71.5t16 -159.5q0 -148 -43.5 -204t-150.5 -56z
M239 35q87 0 114 39.5t27 165.5q0 112 -11 152l-224 -335q25 -22 94 -22zM112 250q0 -112 9 -149l223 333q-25 21 -92 21q-86 0 -113 -39.5t-27 -165.5z" />
    <glyph glyph-name="Scommaaccent" unicode="&#x218;" 
d="M225 -10q-86 0 -151 19q-24 8 -24 27q0 14 3 18t11 4l52 -10q53 -11 99 -11q78 0 110.5 26t32.5 87q0 47 -11 70.5t-41 36.5l-142 64q-60 27 -79.5 54.5t-19.5 89.5q0 50 12 82t37 46t49 18t62 4q84 0 147 -20q23 -6 23 -26q0 -14 -2.5 -18t-10.5 -4q-3 0 -25 5.5
t-56 10.5t-66 5q-74 0 -96 -17.5t-22 -85.5q0 -41 13 -59.5t49 -34.5l144 -65q53 -23 70 -56.5t17 -94.5q0 -91 -49 -128t-136 -37zM223 -221q-11 0 -14.5 2t-3.5 9q0 1 5.5 47.5t5.5 94.5q0 15 5 19.5t22 4.5t22 -4t5 -16q0 -52 -6 -74l-18 -69q-4 -14 -23 -14z" />
    <glyph glyph-name="scommaaccent" unicode="&#x219;" horiz-adv-x="421" 
d="M196 -10q-66 0 -123 18q-14 5 -18.5 9.5t-4.5 17.5q0 21 9 21q1 0 47.5 -10t88.5 -10q68 0 96.5 24t28.5 75q0 28 -10 43t-33 24l-151 63q-65 28 -65 112q0 69 38.5 96t106.5 27q62 0 127 -17q14 -4 18.5 -9t4.5 -19q0 -13 -2.5 -16.5t-8.5 -3.5q-4 0 -25.5 5.5t-53 10.5
t-59.5 5q-55 0 -75 -17.5t-20 -58.5q0 -31 9 -47t35 -27l147 -60q37 -15 52.5 -39.5t15.5 -66.5q0 -150 -175 -150zM196 -221q-11 0 -14.5 2t-3.5 9q0 1 5.5 47.5t5.5 94.5q0 15 5 19.5t22 4.5t22 -4t5 -16q0 -52 -6 -74l-18 -69q-4 -14 -23 -14z" />
    <glyph glyph-name="dotlessj" unicode="&#x237;" horiz-adv-x="195" 
d="M95 490q16 0 20.5 -3.5t4.5 -16.5v-540q0 -64 -20.5 -92t-74.5 -28q-31 0 -57 8q-10 3 -13.5 4.5t-6.5 6t-3 11.5q0 13 2.5 17t10.5 4q2 0 23 -3t39 -3q32 0 41 14t9 71v530q0 13 4.5 16.5t20.5 3.5z" />
    <glyph glyph-name="circumflex" unicode="&#x2c6;" horiz-adv-x="289" 
d="M147 644h-5l-56 -90q-9 -14 -32 -14q-24 0 -24 10q0 5 7 18l65 105q7 13 33 13h19q26 0 33 -13l65 -105q7 -13 7 -18q0 -10 -24 -10q-23 0 -32 14z" />
    <glyph glyph-name="caron" unicode="&#x2c7;" horiz-adv-x="289" 
d="M30 676q0 10 24 10q23 0 32 -14l56 -90h5l56 90q9 14 32 14q24 0 24 -10q0 -5 -7 -18l-65 -105q-7 -13 -33 -13h-19q-26 0 -33 13l-65 105q-7 13 -7 18z" />
    <glyph glyph-name="breve" unicode="&#x2d8;" horiz-adv-x="240" 
d="M120 560q-59 0 -74.5 16.5t-15.5 59.5q0 13 4 16.5t19 3.5t19 -3.5t4 -16.5q0 -24 7 -30t37 -6t37 6t7 30q0 13 4 16.5t19 3.5t19 -3.5t4 -16.5q0 -43 -15.5 -59.5t-74.5 -16.5z" />
    <glyph glyph-name="dotaccent" unicode="&#x2d9;" horiz-adv-x="120" 
d="M59 584q-18 0 -24 4t-6 16v26q0 12 6 16t24 4t24 -4t6 -16v-26q0 -12 -6 -16t-24 -4z" />
    <glyph glyph-name="ring" unicode="&#x2da;" horiz-adv-x="240" 
d="M120 558q-59 0 -74.5 17.5t-15.5 60.5t15.5 60.5t74.5 17.5t74.5 -17.5t15.5 -60.5t-15.5 -60.5t-74.5 -17.5zM120 597q30 0 38 7.5t8 31.5t-8 31.5t-38 7.5t-38 -7.5t-8 -31.5t8 -31.5t38 -7.5z" />
    <glyph glyph-name="ogonek" unicode="&#x2db;" horiz-adv-x="178" 
d="M91 -190q-61 0 -61 66q0 36 20.5 66.5t79.5 97.5h18q0 -28 -31 -74q-37 -56 -37 -84q0 -17 4.5 -22t17.5 -5q12 0 20.5 1.5t12.5 1.5q8 0 10.5 -4t2.5 -17q0 -11 -5 -15.5t-18 -7.5q-17 -4 -34 -4z" />
    <glyph glyph-name="tilde" unicode="&#x2dc;" horiz-adv-x="299" 
d="M30 590q0 11 4.5 16.5t17.5 13.5q28 16 54 16q19 0 49 -10.5t44 -10.5q19 0 39 10.5t22 10.5q9 0 9 -20q0 -11 -4.5 -16.5t-17.5 -13.5q-28 -16 -54 -16q-19 0 -49 10.5t-44 10.5q-19 0 -39 -10.5t-22 -10.5q-9 0 -9 20z" />
    <glyph glyph-name="hungarumlaut" unicode="&#x2dd;" horiz-adv-x="294" 
d="M30 550q0 7 57 123q6 13 33 13q13 0 21 -2q7 -1 7 -8q0 -10 -67 -122q-5 -9 -10.5 -11.5t-21.5 -2.5q-19 0 -19 10zM130 550q0 8 72 123q5 8 10.5 10.5t22.5 2.5q13 0 21 -2t8 -8q0 -11 -82 -122q-4 -6 -6.5 -8.5t-8.5 -4t-17 -1.5q-20 0 -20 10z" />
    <glyph glyph-name="commaaccent" unicode="&#x326;" horiz-adv-x="127" 
d="M50 -221q-11 0 -14.5 2t-3.5 9q0 1 5.5 47.5t5.5 94.5q0 15 5 19.5t22 4.5t22 -4t5 -16q0 -52 -6 -74l-18 -69q-4 -14 -23 -14z" />
    <glyph glyph-name="afii10023" unicode="&#x401;" horiz-adv-x="455" 
d="M420 24q0 -15 -4 -19.5t-16 -4.5h-305q-16 0 -20.5 4t-4.5 16v570q0 12 4.5 16t20.5 4h295q12 0 16 -4.5t4 -19.5t-4 -19.5t-16 -4.5h-270v-215h220q12 0 16 -4.5t4 -18.5t-4 -18.5t-16 -4.5h-220v-253h280q12 0 16 -4.5t4 -19.5zM164 704q-18 0 -23.5 3.5t-5.5 16.5v26
q0 13 5.5 16.5t23.5 3.5t23.5 -3.5t5.5 -16.5v-26q0 -13 -5.5 -16.5t-23.5 -3.5zM291 704q-18 0 -23.5 3.5t-5.5 16.5v26q0 13 5.5 16.5t23.5 3.5t23.5 -3.5t5.5 -16.5v-26q0 -13 -5.5 -16.5t-23.5 -3.5z" />
    <glyph glyph-name="afii10051" unicode="&#x402;" horiz-adv-x="574" 
d="M199 0q-16 0 -20.5 3.5t-4.5 16.5v542h-144q-12 0 -16 4.5t-4 19.5t4 19.5t16 4.5h338q12 0 16 -4.5t4 -19.5t-4 -19.5t-16 -4.5h-144v-172q33 80 146 80q79 0 106.5 -30.5t27.5 -94.5v-230q0 -64 -20.5 -92t-74.5 -28q-31 0 -57 8q-10 3 -13.5 4.5t-6.5 6t-3 11.5
q0 13 2.5 17t10.5 4q2 0 23 -3t39 -3q32 0 41 14t9 71v210q0 52 -19.5 71t-79.5 19q-69 0 -100 -42t-31 -133v-230q0 -13 -4.5 -16.5t-20.5 -3.5z" />
    <glyph glyph-name="afii10052" unicode="&#x403;" horiz-adv-x="400" 
d="M183 675q-19 0 -19 10q0 5 7 18l60 105q7 13 33 13q29 0 29 -10q0 -8 -8 -19l-70 -103q-4 -6 -6.5 -8.5t-8.5 -4t-17 -1.5zM95 0q-16 0 -20.5 4t-4.5 16v570q0 12 4.5 16t20.5 4h265q12 0 16 -4.5t4 -19.5t-4 -19.5t-16 -4.5h-240v-542q0 -12 -4.5 -16t-20.5 -4z" />
    <glyph glyph-name="afii10053" unicode="&#x404;" horiz-adv-x="450" 
d="M346 320q0 -15 -4 -19.5t-16 -4.5h-221v-16q0 -69 5.5 -114t14.5 -71.5t28 -39.5t38 -16.5t53 -3.5q38 0 73.5 4.5t56.5 9t23 4.5q8 0 10.5 -3.5t2.5 -17.5q0 -12 -5.5 -17t-18.5 -8q-68 -17 -140 -17q-33 0 -53 2t-45 10.5t-39.5 26.5t-28 48t-19.5 78.5t-6 114.5v65
q0 77 8.5 129t22 82t41 45.5t54.5 19.5t73 4q67 0 132 -17q14 -3 19 -7.5t5 -15.5q0 -14 -2.5 -17.5t-10.5 -3.5q-3 0 -22 4t-49.5 8t-60.5 4q-36 0 -56.5 -2t-41 -10t-30.5 -22t-18 -40t-11 -62t-3 -90h221q12 0 16 -4.5t4 -19.5z" />
    <glyph glyph-name="afii10054" unicode="&#x405;" 
d="M225 -10q-86 0 -151 19q-24 8 -24 27q0 14 3 18t11 4l52 -10q53 -11 99 -11q78 0 110.5 26t32.5 87q0 47 -11 70.5t-41 36.5l-142 64q-60 27 -79.5 54.5t-19.5 89.5q0 50 12 82t37 46t49 18t62 4q84 0 147 -20q23 -6 23 -26q0 -14 -2.5 -18t-10.5 -4q-3 0 -25 5.5
t-56 10.5t-66 5q-74 0 -96 -17.5t-22 -85.5q0 -41 13 -59.5t49 -34.5l144 -65q53 -23 70 -56.5t17 -94.5q0 -91 -49 -128t-136 -37z" />
    <glyph glyph-name="afii10055" unicode="&#x406;" horiz-adv-x="190" 
d="M95 0q-16 0 -20.5 4t-4.5 16v570q0 12 4.5 16t20.5 4t20.5 -4t4.5 -16v-570q0 -12 -4.5 -16t-20.5 -4z" />
    <glyph glyph-name="afii10056" unicode="&#x407;" horiz-adv-x="190" 
d="M95 0q-16 0 -20.5 4t-4.5 16v570q0 12 4.5 16t20.5 4t20.5 -4t4.5 -16v-570q0 -12 -4.5 -16t-20.5 -4zM32 699q-18 0 -23.5 3.5t-5.5 16.5v26q0 13 5.5 16.5t23.5 3.5t23.5 -3.5t5.5 -16.5v-26q0 -13 -5.5 -16.5t-23.5 -3.5zM159 699q-18 0 -23.5 3.5t-5.5 16.5v26
q0 13 5.5 16.5t23.5 3.5t23.5 -3.5t5.5 -16.5v-26q0 -13 -5.5 -16.5t-23.5 -3.5z" />
    <glyph glyph-name="afii10057" unicode="&#x408;" horiz-adv-x="322" 
d="M117 -10q-45 0 -84 11q-23 6 -23 24q0 14 2.5 17.5t10.5 3.5q1 0 32 -5.5t57 -5.5q54 0 72 21.5t18 83.5v450q0 12 4.5 16t20.5 4t20.5 -4t4.5 -16v-460q0 -140 -135 -140z" />
    <glyph glyph-name="afii10058" unicode="&#x409;" horiz-adv-x="857" 
d="M77 -10q-22 0 -44 5q-13 3 -18 7.5t-5 15.5q0 13 2.5 17t10.5 4q6 0 20 -2t25 -2q20 0 26 9.5t10 44.5l50 501q1 12 5 16t20 4h266q16 0 20.5 -4t4.5 -16v-254q82 10 160 10q106 0 139 -39.5t33 -141.5q0 -101 -37.5 -138t-154.5 -37q-86 0 -159 8q-19 2 -25 8t-6 19v537
h-218l-49 -486q-2 -22 -5 -34.5t-10.5 -26t-22.5 -19.5t-38 -6zM610 299q-59 0 -140 -6v-250q50 -6 140 -6q93 0 116 22t23 106q0 88 -25.5 111t-113.5 23z" />
    <glyph glyph-name="afii10059" unicode="&#x40a;" horiz-adv-x="825" 
d="M95 0q-16 0 -20.5 4t-4.5 16v570q0 12 4.5 16t20.5 4t20.5 -4t4.5 -16v-246h268v246q0 12 4.5 16t20.5 4t20.5 -4t4.5 -16v-254q82 10 160 10q106 0 139 -39.5t33 -141.5q0 -101 -37.5 -138t-154.5 -37q-86 0 -159 8q-19 2 -25 8t-6 19v271h-268v-276q0 -12 -4.5 -16
t-20.5 -4zM578 299q-59 0 -140 -6v-250q50 -6 140 -6q93 0 116 22t23 106q0 88 -25.5 111t-113.5 23z" />
    <glyph glyph-name="afii10060" unicode="&#x40b;" horiz-adv-x="574" 
d="M199 0q-16 0 -20.5 3.5t-4.5 16.5v542h-144q-12 0 -16 4.5t-4 19.5t4 19.5t16 4.5h338q12 0 16 -4.5t4 -19.5t-4 -19.5t-16 -4.5h-144v-172q33 80 146 80q79 0 106.5 -30.5t27.5 -94.5v-325q0 -13 -4.5 -16.5t-20.5 -3.5t-20.5 3.5t-4.5 16.5v315q0 52 -19.5 71t-79.5 19
q-69 0 -100 -42t-31 -133v-230q0 -13 -4.5 -16.5t-20.5 -3.5z" />
    <glyph glyph-name="afii10061" unicode="&#x40c;" horiz-adv-x="434" 
d="M95 0q-16 0 -20.5 4t-4.5 16v570q0 12 4.5 16t20.5 4t20.5 -4t4.5 -16v-255h11l216 264q9 11 34 11q26 0 26 -12q0 -8 -12 -24l-220 -260l234 -283q10 -12 10 -20q0 -11 -23 -11q-27 0 -36 11l-230 285h-10v-276q0 -12 -4.5 -16t-20.5 -4zM190 675q-19 0 -19 10q0 5 7 18
l60 105q7 13 33 13q29 0 29 -10q0 -8 -8 -19l-70 -103q-4 -6 -6.5 -8.5t-8.5 -4t-17 -1.5z" />
    <glyph glyph-name="afii10062" unicode="&#x40e;" horiz-adv-x="462" 
d="M232 695q-59 0 -74.5 16.5t-15.5 59.5q0 13 4 16.5t19 3.5t19 -3.5t4 -16.5q0 -24 7 -30t37 -6t37 6t7 30q0 13 4 16.5t19 3.5t19 -3.5t4 -16.5q0 -43 -15.5 -59.5t-74.5 -16.5zM20 600q0 10 25 10q24 0 28 -12l157 -405h13l144 405q4 12 28 12q27 0 27 -10t-9 -32
l-184 -487q-11 -28 -20 -43.5t-31.5 -29t-56.5 -13.5q-39 0 -74 7q-23 5 -23 24q0 14 2.5 17.5t10.5 3.5q2 0 29.5 -3.5t49.5 -3.5q35 0 49 13t29 56l14 41h-8q-24 0 -32 22l-161 403q-7 17 -7 25z" />
    <glyph glyph-name="afii10145" unicode="&#x40f;" horiz-adv-x="508" 
d="M254 -113q-14 0 -17.5 2.5t-3.5 11.5l-4 99h-134q-16 0 -20.5 4t-4.5 16v570q0 12 4.5 16t20.5 4t20.5 -4t4.5 -16v-542h268v542q0 12 4.5 16t20.5 4t20.5 -4t4.5 -16v-570q0 -12 -4.5 -16t-20.5 -4h-134l-4 -99q0 -9 -3.5 -11.5t-17.5 -2.5z" />
    <glyph glyph-name="afii10017" unicode="&#x410;" horiz-adv-x="502" 
d="M44 0q-24 0 -24 12q0 4 4 16l180 562q4 13 12 16.5t35 3.5t35 -3.5t12 -16.5l180 -562q4 -12 4 -16q0 -12 -24 -12q-25 0 -28 12l-60 188h-239l-59 -188q-3 -12 -28 -12zM245 562l-100 -317h211l-99 317h-12z" />
    <glyph glyph-name="afii10018" unicode="&#x411;" horiz-adv-x="507" 
d="M260 -10q-86 0 -159 8q-19 2 -25 8t-6 19v565q0 12 4.5 16t20.5 4h300q12 0 16 -4.5t4 -19.5t-4 -19.5t-16 -4.5h-275v-226q82 10 160 10q106 0 139 -39.5t33 -141.5q0 -101 -37.5 -138t-154.5 -37zM260 299q-59 0 -140 -6v-250q50 -6 140 -6q93 0 116 22t23 106
q0 88 -25.5 111t-113.5 23z" />
    <glyph glyph-name="afii10019" unicode="&#x412;" horiz-adv-x="507" 
d="M260 -10q-86 0 -159 8q-19 2 -25 8t-6 19v555q0 23 25 26q76 9 143 9q47 0 71.5 -1.5t52 -9t39.5 -23t20.5 -42.5t8.5 -69q0 -61 -15 -95t-51 -49q48 -13 68 -50.5t20 -110.5q0 -101 -37.5 -138t-154.5 -37zM120 562v-216h118q88 0 113.5 21.5t25.5 102.5
q0 67 -22.5 82.5t-116.5 15.5q-73 0 -118 -6zM120 299v-256q50 -6 140 -6q93 0 116 22t23 106t-26 109t-113 25h-140z" />
    <glyph glyph-name="afii10020" unicode="&#x413;" horiz-adv-x="400" 
d="M95 0q-16 0 -20.5 4t-4.5 16v570q0 12 4.5 16t20.5 4h265q12 0 16 -4.5t4 -19.5t-4 -19.5t-16 -4.5h-240v-542q0 -12 -4.5 -16t-20.5 -4z" />
    <glyph glyph-name="afii10021" unicode="&#x414;" horiz-adv-x="501" 
d="M38 -113q-11 0 -14.5 2t-3.5 9v126q0 15 4 19.5t16 4.5h21l51 542q1 12 5 16t20 4h268q16 0 20.5 -4t4.5 -16v-542h31q12 0 16 -4.5t4 -19.5v-126q0 -7 -3.5 -9t-14.5 -2q-22 0 -23 11l-11 102h-357l-11 -102q-1 -11 -23 -11zM159 562l-49 -514h270v514h-221z" />
    <glyph glyph-name="afii10022" unicode="&#x415;" horiz-adv-x="455" 
d="M420 24q0 -15 -4 -19.5t-16 -4.5h-305q-16 0 -20.5 4t-4.5 16v570q0 12 4.5 16t20.5 4h295q12 0 16 -4.5t4 -19.5t-4 -19.5t-16 -4.5h-270v-215h220q12 0 16 -4.5t4 -18.5t-4 -18.5t-16 -4.5h-220v-253h280q12 0 16 -4.5t4 -19.5z" />
    <glyph glyph-name="afii10024" unicode="&#x416;" horiz-adv-x="638" 
d="M38 0q-23 0 -23 11q0 8 10 20l214 283l-200 260q-12 16 -12 24q0 12 26 12q25 0 34 -11l196 -264h11v255q0 12 4.5 16t20.5 4t20.5 -4t4.5 -16v-255h11l196 264q9 11 34 11q26 0 26 -12q0 -8 -12 -24l-200 -260l214 -283q10 -12 10 -20q0 -11 -23 -11q-27 0 -36 11
l-210 285h-10v-276q0 -12 -4.5 -16t-20.5 -4t-20.5 4t-4.5 16v276h-10l-210 -285q-9 -11 -36 -11z" />
    <glyph glyph-name="afii10025" unicode="&#x417;" horiz-adv-x="438" 
d="M213 -10q-92 0 -159 18q-24 6 -24 26q0 14 3 18t11 4l56 -10q57 -9 103 -9q74 0 98.5 29t24.5 94q0 31 -5 51t-20 39.5t-48.5 28.5t-86.5 9h-50q-12 0 -16 4.5t-4 19.5t4 19.5t16 4.5h50q88 0 118 31t30 92q0 69 -21 89t-92 20q-46 0 -93 -8l-46 -7q-5 0 -6.5 0.5t-4 2
t-3 6t-0.5 11.5q0 13 4 18t20 9q57 15 147 15q76 0 111.5 -33t35.5 -125q0 -119 -105 -143q66 -6 91.5 -43t25.5 -106q0 -90 -40 -132.5t-125 -42.5z" />
    <glyph glyph-name="afii10026" unicode="&#x418;" horiz-adv-x="534" 
d="M439 0q-16 0 -20.5 4t-4.5 16v540h-10l-235 -540q-6 -13 -14.5 -16.5t-36.5 -3.5q-32 0 -40 4t-8 16v570q0 12 4.5 16t20.5 4t20.5 -4t4.5 -16v-540h10l235 540q6 13 14.5 16.5t36.5 3.5q32 0 40 -4t8 -16v-570q0 -12 -4.5 -16t-20.5 -4z" />
    <glyph glyph-name="afii10027" unicode="&#x419;" horiz-adv-x="534" 
d="M271 695q-59 0 -74.5 16.5t-15.5 59.5q0 13 4 16.5t19 3.5t19 -3.5t4 -16.5q0 -24 7 -30t37 -6t37 6t7 30q0 13 4 16.5t19 3.5t19 -3.5t4 -16.5q0 -43 -15.5 -59.5t-74.5 -16.5zM439 0q-16 0 -20.5 4t-4.5 16v540h-10l-235 -540q-6 -13 -14.5 -16.5t-36.5 -3.5
q-32 0 -40 4t-8 16v570q0 12 4.5 16t20.5 4t20.5 -4t4.5 -16v-540h10l235 540q6 13 14.5 16.5t36.5 3.5q32 0 40 -4t8 -16v-570q0 -12 -4.5 -16t-20.5 -4z" />
    <glyph glyph-name="afii10028" unicode="&#x41a;" horiz-adv-x="434" 
d="M95 0q-16 0 -20.5 4t-4.5 16v570q0 12 4.5 16t20.5 4t20.5 -4t4.5 -16v-255h11l216 264q9 11 34 11q26 0 26 -12q0 -8 -12 -24l-220 -260l234 -283q10 -12 10 -20q0 -11 -23 -11q-27 0 -36 11l-230 285h-10v-276q0 -12 -4.5 -16t-20.5 -4z" />
    <glyph glyph-name="afii10029" unicode="&#x41b;" horiz-adv-x="550" 
d="M455 0q-16 0 -20.5 4t-4.5 16v542h-218l-49 -486q-2 -22 -5 -34.5t-10.5 -26t-22.5 -19.5t-38 -6q-22 0 -44 5q-13 3 -18 7.5t-5 15.5q0 13 2.5 17t10.5 4q6 0 20 -2t25 -2q20 0 26 9.5t10 44.5l50 501q1 12 5 16t20 4h266q16 0 20.5 -4t4.5 -16v-570q0 -12 -4.5 -16
t-20.5 -4z" />
    <glyph glyph-name="afii10030" unicode="&#x41c;" horiz-adv-x="616" 
d="M95 0q-16 0 -20.5 4t-4.5 16v570q0 12 9 16t44 4q27 0 38 -5t18 -25l126 -354h6l126 354q7 20 18 25t38 5q35 0 44 -4t9 -16v-570q0 -12 -4.5 -16t-20.5 -4t-20.5 4t-4.5 16v540h-9l-142 -376q-5 -13 -13 -16.5t-24 -3.5t-24 3.5t-13 16.5l-142 376h-9v-540
q0 -12 -4.5 -16t-20.5 -4z" />
    <glyph glyph-name="afii10031" unicode="&#x41d;" horiz-adv-x="508" 
d="M120 344h268v246q0 12 4.5 16t20.5 4t20.5 -4t4.5 -16v-570q0 -12 -4.5 -16t-20.5 -4t-20.5 4t-4.5 16v276h-268v-276q0 -12 -4.5 -16t-20.5 -4t-20.5 4t-4.5 16v570q0 12 4.5 16t20.5 4t20.5 -4t4.5 -16v-246z" />
    <glyph glyph-name="afii10032" unicode="&#x41e;" horiz-adv-x="520" 
d="M260 -10q-52 0 -83 5.5t-57.5 21.5t-39 49t-19 83.5t-6.5 130.5v45q0 80 8.5 133.5t22.5 85t42 47t56 20t76 4.5q52 0 83 -5.5t57.5 -21.5t39 -49t19 -83.5t6.5 -130.5v-45q0 -80 -8.5 -133.5t-22.5 -85t-42 -47t-56 -20t-76 -4.5zM260 35q41 0 64.5 4.5t43.5 18t29 41.5
t13.5 70.5t4.5 110.5v45q0 70 -3.5 110.5t-11.5 70t-27.5 42t-44 17.5t-68.5 5q-41 0 -64.5 -4.5t-43.5 -18t-29 -41.5t-13.5 -70.5t-4.5 -110.5v-45q0 -70 3.5 -110.5t11.5 -70t27.5 -42t44 -17.5t68.5 -5z" />
    <glyph glyph-name="afii10033" unicode="&#x41f;" horiz-adv-x="508" 
d="M95 0q-16 0 -20.5 4t-4.5 16v570q0 12 4.5 16t20.5 4h318q16 0 20.5 -4t4.5 -16v-570q0 -12 -4.5 -16t-20.5 -4t-20.5 4t-4.5 16v542h-268v-542q0 -12 -4.5 -16t-20.5 -4z" />
    <glyph glyph-name="afii10034" unicode="&#x420;" horiz-adv-x="474" 
d="M95 0q-16 0 -20.5 4t-4.5 16v560q0 22 25 26q66 9 140 9q62 0 95.5 -5t59.5 -22t35 -49.5t9 -88.5q0 -106 -41.5 -150.5t-157.5 -44.5h-115v-235q0 -12 -4.5 -16t-20.5 -4zM120 562v-262h115q86 0 115.5 31t29.5 119q0 75 -26 96.5t-119 21.5q-51 0 -115 -6z" />
    <glyph glyph-name="afii10035" unicode="&#x421;" horiz-adv-x="450" 
d="M257 -10q-33 0 -52.5 1.5t-44 7t-38 16.5t-28.5 31.5t-22 50t-12 73t-5 100.5v65q0 78 8 129t21.5 81.5t41.5 46t56 19.5t76 4q63 0 128 -19q14 -4 19 -8.5t5 -17.5q0 -14 -2.5 -17.5t-10.5 -3.5q-3 0 -22 5.5t-49.5 10.5t-60.5 5q-44 0 -67 -4t-44.5 -16t-30 -40
t-13.5 -71t-5 -114v-45q0 -70 6 -114t15.5 -71t31 -40t44 -16.5t63.5 -3.5q32 0 62.5 5.5t48.5 10.5t21 5q8 0 10.5 -3.5t2.5 -17.5q0 -13 -5 -17.5t-19 -8.5q-65 -19 -129 -19z" />
    <glyph glyph-name="afii10036" unicode="&#x422;" horiz-adv-x="418" 
d="M209 0q-16 0 -20.5 4t-4.5 16v542h-154q-12 0 -16 4.5t-4 19.5t4 19.5t16 4.5h358q12 0 16 -4.5t4 -19.5t-4 -19.5t-16 -4.5h-154v-542q0 -12 -4.5 -16t-20.5 -4z" />
    <glyph glyph-name="afii10037" unicode="&#x423;" horiz-adv-x="462" 
d="M20 600q0 10 25 10q24 0 28 -12l157 -405h13l144 405q4 12 28 12q27 0 27 -10t-9 -32l-184 -487q-11 -28 -20 -43.5t-31.5 -29t-56.5 -13.5q-39 0 -74 7q-23 5 -23 24q0 14 2.5 17.5t10.5 3.5q2 0 29.5 -3.5t49.5 -3.5q35 0 49 13t29 56l14 41h-8q-24 0 -32 22l-161 403
q-7 17 -7 25z" />
    <glyph glyph-name="afii10038" unicode="&#x424;" horiz-adv-x="582" 
d="M295 610q16 0 20.5 -4t4.5 -16v-79h55q51 0 82 -5.5t57.5 -23.5t38 -53.5t11.5 -92.5q0 -111 -41.5 -158t-147.5 -47h-55v-111q0 -12 -4.5 -16t-20.5 -4t-20.5 4t-4.5 16v111h-55q-106 0 -147.5 47t-41.5 158q0 57 11.5 92.5t38 53.5t57.5 23.5t82 5.5h55v79q0 12 4.5 16
t20.5 4zM80 336q0 -100 27 -130t108 -30h55v288h-55q-81 0 -108 -24t-27 -104zM375 464h-55v-288h55q81 0 108 30t27 130q0 80 -27 104t-108 24z" />
    <glyph glyph-name="afii10039" unicode="&#x425;" horiz-adv-x="467" 
d="M51 0q-25 0 -25 13q0 7 7 18l172 283l-163 265q-7 11 -7 18q0 13 25 13q27 0 34 -12l137 -234h4l138 234q7 12 34 12q25 0 25 -13q0 -7 -7 -18l-164 -265l173 -283q7 -11 7 -18q0 -13 -25 -13q-27 0 -34 12l-147 253h-4l-146 -253q-7 -12 -34 -12z" />
    <glyph glyph-name="afii10040" unicode="&#x426;" horiz-adv-x="512" 
d="M474 -113q-22 0 -23 11l-11 102h-345q-16 0 -20.5 4t-4.5 16v570q0 12 4.5 16t20.5 4t20.5 -4t4.5 -16v-542h268v542q0 12 4.5 16t20.5 4t20.5 -4t4.5 -16v-542h34q12 0 16 -4.5t4 -19.5v-126q0 -7 -3.5 -9t-14.5 -2z" />
    <glyph glyph-name="afii10041" unicode="&#x427;" horiz-adv-x="470" 
d="M211 260q-92 0 -126.5 24t-34.5 108v198q0 12 4.5 16t20.5 4t20.5 -4t4.5 -16v-190q0 -61 21.5 -75.5t94.5 -14.5q58 0 134 8v272q0 12 4.5 16t20.5 4t20.5 -4t4.5 -16v-570q0 -12 -4.5 -16t-20.5 -4t-20.5 4t-4.5 16v252q-72 -12 -139 -12z" />
    <glyph glyph-name="afii10042" unicode="&#x428;" horiz-adv-x="796" 
d="M95 610q16 0 20.5 -4t4.5 -16v-542h253v542q0 12 4.5 16t20.5 4t20.5 -4t4.5 -16v-542h253v542q0 12 4.5 16t20.5 4t20.5 -4t4.5 -16v-570q0 -12 -4.5 -16t-20.5 -4h-606q-16 0 -20.5 4t-4.5 16v570q0 12 4.5 16t20.5 4z" />
    <glyph glyph-name="afii10043" unicode="&#x429;" horiz-adv-x="800" 
d="M728 0h-633q-16 0 -20.5 4t-4.5 16v570q0 12 4.5 16t20.5 4t20.5 -4t4.5 -16v-542h253v542q0 12 4.5 16t20.5 4t20.5 -4t4.5 -16v-542h253v542q0 12 4.5 16t20.5 4t20.5 -4t4.5 -16v-542h34q12 0 16 -4.5t4 -19.5v-126q0 -7 -3.5 -9t-14.5 -2q-22 0 -23 11z" />
    <glyph glyph-name="afii10044" unicode="&#x42a;" horiz-adv-x="537" 
d="M295 -10q-86 0 -159 8q-19 2 -25 8t-6 19v537h-75q-12 0 -16 4.5t-4 19.5t4 19.5t16 4.5h100q16 0 20.5 -4t4.5 -16v-254q82 10 160 10q106 0 139 -39.5t33 -141.5q0 -101 -37.5 -138t-154.5 -37zM295 299q-59 0 -140 -6v-250q49 -6 140 -6q93 0 116 22t23 106
q0 88 -25.5 111t-113.5 23z" />
    <glyph glyph-name="afii10045" unicode="&#x42b;" horiz-adv-x="690" 
d="M605 0q-16 0 -20.5 4t-4.5 16v570q0 12 4.5 16t20.5 4t20.5 -4t4.5 -16v-570q0 -12 -4.5 -16t-20.5 -4zM260 -10q-86 0 -159 8q-19 2 -25 8t-6 19v565q0 12 4.5 16t20.5 4t20.5 -4t4.5 -16v-254q82 10 160 10q106 0 139 -39.5t33 -141.5q0 -101 -37.5 -138t-154.5 -37z
M260 299q-59 0 -140 -6v-250q50 -6 140 -6q93 0 116 22t23 106q0 88 -25.5 111t-113.5 23z" />
    <glyph glyph-name="afii10046" unicode="&#x42c;" horiz-adv-x="502" 
d="M260 -10q-86 0 -159 8q-19 2 -25 8t-6 19v565q0 12 4.5 16t20.5 4t20.5 -4t4.5 -16v-254q82 10 160 10q106 0 139 -39.5t33 -141.5q0 -101 -37.5 -138t-154.5 -37zM260 299q-59 0 -140 -6v-250q50 -6 140 -6q93 0 116 22t23 106q0 88 -25.5 111t-113.5 23z" />
    <glyph glyph-name="afii10047" unicode="&#x42d;" horiz-adv-x="450" 
d="M104 320q0 15 4 19.5t16 4.5h221q-1 54 -3.5 90t-11 62t-18.5 40t-30.5 22t-41 10t-55.5 2q-30 0 -60.5 -4t-49.5 -8t-22 -4q-8 0 -10.5 3.5t-2.5 17.5q0 11 5 15.5t19 7.5q65 17 132 17q46 0 73 -4t54.5 -19.5t41 -45.5t22 -82t8.5 -129v-65q0 -66 -6 -114.5
t-19.5 -78.5t-28 -48t-39.5 -26.5t-45 -10.5t-53 -2q-72 0 -140 17q-13 3 -18.5 8t-5.5 17q0 14 2.5 17.5t10.5 3.5q2 0 23 -4.5t56.5 -9t73.5 -4.5q34 0 53 3.5t38 16.5t28 39.5t14.5 71.5t5.5 114v16h-221q-12 0 -16 4.5t-4 19.5z" />
    <glyph glyph-name="afii10048" unicode="&#x42e;" horiz-adv-x="735" 
d="M475 -10q-48 0 -76 4.5t-56 20t-42 47t-22.5 85t-8.5 133.5v16h-150v-276q0 -12 -4.5 -16t-20.5 -4t-20.5 4t-4.5 16v570q0 12 4.5 16t20.5 4t20.5 -4t4.5 -16v-246h150q1 92 10 144.5t35.5 81.5t61 37t98.5 8q52 0 83 -5.5t57.5 -21.5t39 -49t19 -83.5t6.5 -130.5v-45
q0 -80 -8.5 -133.5t-22.5 -85t-42 -47t-56 -20t-76 -4.5zM475 35q41 0 64.5 4.5t43.5 18t29 41.5t13.5 70.5t4.5 110.5v45q0 58 -2 94.5t-8.5 66.5t-16 44.5t-28.5 24.5t-41 12.5t-59 2.5q-44 0 -68.5 -5t-44 -17.5t-27.5 -42t-11.5 -70t-3.5 -110.5v-45q0 -68 4.5 -110.5
t13.5 -70.5t29 -41.5t43.5 -18t64.5 -4.5z" />
    <glyph glyph-name="afii10049" unicode="&#x42f;" horiz-adv-x="496" 
d="M74 0q-26 0 -26 13q0 3 8 21l114 249q-61 14 -84.5 55.5t-23.5 121.5q0 53 9 83.5t35 46.5t59.5 20.5t95.5 4.5q74 0 140 -9q25 -4 25 -26v-560q0 -12 -4.5 -16t-20.5 -4t-20.5 4t-4.5 16v255h-115q-29 0 -42 1l-116 -264q-4 -12 -29 -12zM116 460q0 -84 29 -112t116 -28
h115v242q-60 6 -115 6q-93 0 -119 -20t-26 -88z" />
    <glyph glyph-name="afii10065" unicode="&#x430;" horiz-adv-x="485" 
d="M179 -10q-67 0 -98 31.5t-31 105.5t38.5 104.5t133.5 30.5h128v103q0 55 -22.5 72.5t-81.5 17.5q-48 0 -101 -10.5t-54 -10.5q-11 0 -11 20q0 21 17 25q71 21 151 21q82 0 117 -26t35 -104v-213q0 -34 6 -67t12.5 -53.5t6.5 -23.5q0 -13 -24 -13q-14 0 -19 3t-8 13
l-18 73q-24 -49 -72 -74t-105 -25zM187 36q68 0 115.5 39t47.5 101v47l-134 -5q-70 -3 -93 -20t-23 -67q0 -59 19 -77t68 -18z" />
    <glyph glyph-name="afii10066" unicode="&#x431;" horiz-adv-x="502" 
d="M263 -10q-118 0 -155.5 51.5t-37.5 197.5v231q0 110 44 150t140 40q77 0 151 -14q17 -3 17 -25q0 -20 -11 -20q-1 0 -54 7t-101 7q-72 0 -104 -24t-32 -103v-58q16 38 50.5 54t94.5 16q54 0 85 -8.5t53.5 -37t30.5 -78.5t8 -136q0 -106 -17.5 -159t-53.5 -72t-108 -19z
M263 35q85 0 106 38t21 177q0 94 -12 136t-39 55.5t-89 13.5q-74 0 -101 -38t-27 -158v-19q0 -126 27 -165.5t114 -39.5z" />
    <glyph glyph-name="afii10067" unicode="&#x432;" horiz-adv-x="477" 
d="M245 37q83 0 106.5 17.5t23.5 78.5q0 55 -30.5 76.5t-117.5 21.5h-107v-188q50 -6 125 -6zM245 -10q-71 0 -144 8q-19 2 -25 8t-6 19v440q0 23 25 26q77 9 153 9q95 0 131 -22.5t36 -92.5q0 -67 -23.5 -93.5t-76.5 -34.5q62 -10 87 -35t25 -90q0 -83 -40 -112.5
t-142 -29.5zM235 453q-70 0 -115 -6v-168h110q76 0 104.5 20.5t28.5 74.5q0 52 -25 65.5t-103 13.5z" />
    <glyph glyph-name="afii10068" unicode="&#x433;" horiz-adv-x="330" 
d="M95 0q-16 0 -20.5 4t-4.5 16v450q0 12 4.5 16t20.5 4h205q12 0 16 -4.5t4 -19.5t-4 -19.5t-16 -4.5h-180v-422q0 -12 -4.5 -16t-20.5 -4z" />
    <glyph glyph-name="afii10069" unicode="&#x434;" horiz-adv-x="488" 
d="M38 -113q-11 0 -14.5 2t-3.5 9v126q0 15 4 19.5t16 4.5h30l42 422q1 12 5 16t20 4h242q16 0 20.5 -4t4.5 -16v-422h34q12 0 16 -4.5t4 -19.5v-126q0 -7 -3.5 -9t-14.5 -2q-22 0 -23 11l-11 102h-334l-11 -102q-1 -11 -23 -11zM160 442l-41 -394h235v394h-194z" />
    <glyph glyph-name="afii10070" unicode="&#x435;" 
d="M248 -10q-46 0 -74.5 5t-52.5 19t-36 42.5t-18.5 72t-6.5 110.5q0 71 9.5 120.5t24.5 77t41 42t50 18t61 3.5q45 0 75.5 -10t48 -26.5t26.5 -48.5t11.5 -63.5t2.5 -84.5q0 -17 -5.5 -24.5t-22.5 -7.5h-269q0 -130 24 -164.5t119 -34.5q34 0 65 6t50 12t24 6q9 0 9 -20
q0 -13 -4.5 -18t-18.5 -10q-59 -22 -133 -22zM244 456q-50 0 -75 -12t-39.5 -50.5t-16.5 -115.5h245q0 38 -0.5 55.5t-3.5 43t-10 36t-19.5 23t-32.5 16.5t-48 4z" />
    <glyph glyph-name="afii10072" unicode="&#x436;" horiz-adv-x="596" 
d="M298 0q-16 0 -20.5 3.5t-4.5 16.5v216h-6l-191 -223q-8 -9 -13.5 -11t-20.5 -2q-27 0 -27 10q0 7 12 21l198 225l-186 202q-14 14 -14 22q0 10 26 10q24 0 36 -13l179 -202h7v195q0 13 4.5 16.5t20.5 3.5t20.5 -3.5t4.5 -16.5v-195h7l179 202q12 13 36 13q26 0 26 -10
q0 -8 -14 -22l-186 -202l198 -225q12 -14 12 -21q0 -10 -27 -10q-15 0 -20.5 2t-13.5 11l-191 223h-6v-216q0 -13 -4.5 -16.5t-20.5 -3.5z" />
    <glyph glyph-name="afii10073" unicode="&#x437;" horiz-adv-x="438" 
d="M116 255q0 15 4 19.5t16 4.5h40q80 0 109 20.5t29 74.5q0 53 -19.5 66t-88.5 13q-46 0 -95 -7l-49 -6q-8 0 -11 4t-3 18q0 20 24 25q59 13 147 13q77 0 112 -23.5t35 -91.5q0 -67 -23.5 -93.5t-76.5 -34.5q62 -10 87 -34t25 -85q0 -87 -37.5 -117.5t-127.5 -30.5
q-100 0 -159 16q-24 6 -24 27q0 14 3 18t11 4q5 0 28 -4.5t59 -9t72 -4.5q78 0 100.5 18t22.5 78q0 56 -30 77t-120 21h-40q-12 0 -16 4.5t-4 19.5z" />
    <glyph glyph-name="afii10074" unicode="&#x438;" horiz-adv-x="494" 
d="M382 490q24 0 32 -4q10 -5 10 -20v-446q0 -12 -4.5 -16t-20.5 -4t-20.5 4t-4.5 16v420h-7l-201 -416q-7 -14 -17 -19t-37 -5q-24 0 -32 4q-10 5 -10 20v446q0 12 4.5 16t20.5 4t20.5 -4t4.5 -16v-420h7l202 420q6 13 15.5 16.5t37.5 3.5z" />
    <glyph glyph-name="afii10075" unicode="&#x439;" horiz-adv-x="494" 
d="M245 560q-59 0 -74.5 16.5t-15.5 59.5q0 13 4 16.5t19 3.5t19 -3.5t4 -16.5q0 -24 7 -30t37 -6t37 6t7 30q0 13 4 16.5t19 3.5t19 -3.5t4 -16.5q0 -43 -15.5 -59.5t-74.5 -16.5zM382 490q24 0 32 -4q10 -5 10 -20v-446q0 -12 -4.5 -16t-20.5 -4t-20.5 4t-4.5 16v420h-7
l-201 -416q-7 -14 -17 -19t-37 -5q-24 0 -32 4q-10 5 -10 20v446q0 12 4.5 16t20.5 4t20.5 -4t4.5 -16v-420h7l202 420q6 13 15.5 16.5t37.5 3.5z" />
    <glyph glyph-name="afii10076" unicode="&#x43a;" horiz-adv-x="403" 
d="M95 0q-16 0 -20.5 3.5t-4.5 16.5v450q0 13 4.5 16.5t20.5 3.5t20.5 -3.5t4.5 -16.5v-195h7l191 202q12 13 36 13t24 -10q0 -8 -14 -22l-192 -202l204 -225q12 -14 12 -21q0 -10 -25 -10q-15 0 -20.5 2t-13.5 11l-203 223h-6v-216q0 -13 -4.5 -16.5t-20.5 -3.5z" />
    <glyph glyph-name="afii10077" unicode="&#x43b;" horiz-adv-x="499" 
d="M404 0q-16 0 -20.5 4t-4.5 16v422h-194l-37 -366q-2 -22 -5 -34.5t-10.5 -26t-22.5 -19.5t-38 -6q-22 0 -44 5q-13 3 -18 7.5t-5 15.5q0 13 2.5 17t10.5 4q6 0 20 -2t25 -2q20 0 26 9.5t10 44.5l38 381q1 12 5 16t20 4h242q16 0 20.5 -4t4.5 -16v-450q0 -12 -4.5 -16
t-20.5 -4z" />
    <glyph glyph-name="afii10078" unicode="&#x43c;" horiz-adv-x="616" 
d="M95 0q-16 0 -20.5 4t-4.5 16v450q0 12 9 16t44 4q27 0 38 -5t18 -25l126 -354h6l126 354q7 20 18 25t38 5q35 0 44 -4t9 -16v-450q0 -12 -4.5 -16t-20.5 -4t-20.5 4t-4.5 16v420h-9l-142 -376q-5 -13 -13 -16.5t-24 -3.5t-24 3.5t-13 16.5l-142 376h-9v-420
q0 -12 -4.5 -16t-20.5 -4z" />
    <glyph glyph-name="afii10079" unicode="&#x43d;" horiz-adv-x="485" 
d="M120 279h245v191q0 12 4.5 16t20.5 4t20.5 -4t4.5 -16v-450q0 -12 -4.5 -16t-20.5 -4t-20.5 4t-4.5 16v211h-245v-211q0 -12 -4.5 -16t-20.5 -4t-20.5 4t-4.5 16v450q0 12 4.5 16t20.5 4t20.5 -4t4.5 -16v-191z" />
    <glyph glyph-name="afii10080" unicode="&#x43e;" horiz-adv-x="492" 
d="M238 -10q-73 0 -109.5 19t-52.5 71.5t-16 159.5q0 148 43.5 204t150.5 56q73 0 109.5 -19t52.5 -71.5t16 -159.5q0 -148 -43.5 -204t-150.5 -56zM239 35q87 0 114 39.5t27 165.5q0 139 -21.5 177t-106.5 38q-86 0 -113 -39.5t-27 -165.5q0 -139 21 -177t106 -38z" />
    <glyph glyph-name="afii10081" unicode="&#x43f;" horiz-adv-x="485" 
d="M95 0q-16 0 -20.5 4t-4.5 16v450q0 12 4.5 16t20.5 4h295q16 0 20.5 -4t4.5 -16v-450q0 -12 -4.5 -16t-20.5 -4t-20.5 4t-4.5 16v422h-245v-422q0 -12 -4.5 -16t-20.5 -4z" />
    <glyph glyph-name="afii10082" unicode="&#x440;" horiz-adv-x="525" 
d="M110 -190q-16 0 -20.5 3.5t-4.5 16.5v503q0 34 -6.5 67t-12.5 53.5t-6 23.5q0 13 24 13q14 0 19 -3t8 -13l16 -65q38 91 166 91q107 0 139.5 -53t32.5 -207q0 -78 -11 -127.5t-36.5 -76.5t-58.5 -36.5t-85 -9.5q-104 0 -139 56v-216q0 -13 -4.5 -16.5t-20.5 -3.5zM272 35
q60 0 88.5 16.5t40.5 61t12 137.5q0 127 -22.5 166t-98.5 39q-83 0 -120 -37t-37 -142v-76q0 -92 27 -128.5t110 -36.5z" />
    <glyph glyph-name="afii10083" unicode="&#x441;" horiz-adv-x="426" 
d="M238 -10q-54 0 -84.5 8t-53.5 34t-31.5 75t-8.5 132q0 71 9.5 120.5t24.5 77t41 42t50 18t61 3.5q52 0 117 -17q14 -4 18.5 -9t4.5 -19q0 -13 -2.5 -16.5t-8.5 -3.5l-48 11q-48 10 -83 10q-53 0 -78.5 -13.5t-39 -59t-13.5 -138.5q0 -137 22 -173t111 -36q42 0 86 12
t45 12q9 0 9 -20q0 -13 -4.5 -18t-18.5 -10q-59 -22 -125 -22z" />
    <glyph glyph-name="afii10084" unicode="&#x442;" horiz-adv-x="398" 
d="M199 0q-16 0 -20.5 4t-4.5 16v422h-134q-12 0 -16 4.5t-4 19.5t4 19.5t16 4.5h318q12 0 16 -4.5t4 -19.5t-4 -19.5t-16 -4.5h-134v-422q0 -12 -4.5 -16t-20.5 -4z" />
    <glyph glyph-name="afii10085" unicode="&#x443;" horiz-adv-x="437" 
d="M30 475q0 8 5 11.5t21 3.5q24 0 27 -12l135 -430h4l132 430q3 12 27 12q27 0 27 -14q0 -8 -7 -28l-164 -504q-11 -35 -17 -50t-16 -35.5t-20 -28.5t-26 -14t-37 -6q-38 0 -64 7q-23 6 -23 23q0 14 2.5 17.5t10.5 3.5q2 0 24 -3t45 -3q29 0 42 13t26 56l24 77
q-22 5 -35 43l-131 387q-12 35 -12 44z" />
    <glyph glyph-name="afii10086" unicode="&#x444;" horiz-adv-x="810" 
d="M222 -10q-107 0 -139.5 53t-32.5 207q0 78 11 127.5t36.5 76.5t58.5 36.5t85 9.5q104 0 134 -62v192q0 13 4.5 16.5t20.5 3.5t20.5 -3.5t4.5 -16.5v-201q18 44 54.5 57.5t98.5 13.5q107 0 139.5 -53t32.5 -207q0 -78 -11 -127.5t-36.5 -76.5t-58.5 -36.5t-85 -9.5
q-102 0 -134 66v-226q0 -13 -4.5 -16.5t-20.5 -3.5t-20.5 3.5t-4.5 16.5v234q-36 -74 -153 -74zM557 35q60 0 88.5 16.5t40.5 61t12 137.5q0 127 -22.5 166t-98.5 39q-89 0 -120.5 -33t-31.5 -132v-96q0 -91 24.5 -125t107.5 -34zM223 35q87 0 119.5 35.5t32.5 123.5v96
q0 93 -24.5 129t-107.5 36q-60 0 -88.5 -16.5t-40.5 -61t-12 -137.5q0 -127 22.5 -166t98.5 -39z" />
    <glyph glyph-name="afii10087" unicode="&#x445;" horiz-adv-x="428" 
d="M57 0q-27 0 -27 15q0 6 9 19l147 222l-135 200q-9 13 -9 20q0 14 29 14q22 0 29 -12l112 -177h4l112 177q7 12 29 12q29 0 29 -14q0 -7 -9 -20l-136 -200l148 -222q9 -14 9 -19q0 -15 -27 -15q-24 0 -31 12l-124 199h-4l-124 -199q-7 -12 -31 -12z" />
    <glyph glyph-name="afii10088" unicode="&#x446;" horiz-adv-x="472" 
d="M424 -113q-22 0 -23 11l-11 102h-295q-16 0 -20.5 4t-4.5 16v450q0 12 4.5 16t20.5 4t20.5 -4t4.5 -16v-422h218v422q0 12 4.5 16t20.5 4t20.5 -4t4.5 -16v-422h34q12 0 16 -4.5t4 -19.5v-126q0 -7 -3.5 -9t-14.5 -2z" />
    <glyph glyph-name="afii10089" unicode="&#x447;" horiz-adv-x="450" 
d="M201 180q-84 0 -117.5 24.5t-33.5 107.5v158q0 12 4.5 16t20.5 4t20.5 -4t4.5 -16v-150q0 -60 20 -75t86 -15q68 0 124 8v232q0 12 4.5 16t20.5 4t20.5 -4t4.5 -16v-450q0 -12 -4.5 -16t-20.5 -4t-20.5 4t-4.5 16v172q-68 -12 -129 -12z" />
    <glyph glyph-name="afii10090" unicode="&#x448;" horiz-adv-x="716" 
d="M646 470v-450q0 -12 -4.5 -16t-20.5 -4h-526q-16 0 -20.5 4t-4.5 16v450q0 12 4.5 16t20.5 4t20.5 -4t4.5 -16v-422h213v422q0 12 4.5 16t20.5 4t20.5 -4t4.5 -16v-422h213v422q0 12 4.5 16t20.5 4t20.5 -4t4.5 -16z" />
    <glyph glyph-name="afii10091" unicode="&#x449;" horiz-adv-x="730" 
d="M682 -113q-22 0 -23 11l-11 102h-553q-16 0 -20.5 4t-4.5 16v450q0 12 4.5 16t20.5 4t20.5 -4t4.5 -16v-422h213v422q0 12 4.5 16t20.5 4t20.5 -4t4.5 -16v-422h213v422q0 12 4.5 16t20.5 4t20.5 -4t4.5 -16v-422h34q12 0 16 -4.5t4 -19.5v-126q0 -7 -3.5 -9t-14.5 -2z
" />
    <glyph glyph-name="afii10092" unicode="&#x44a;" horiz-adv-x="487" 
d="M90 442h-60q-12 0 -16 4.5t-4 19.5t4 19.5t16 4.5h85q16 0 20.5 -3.5t4.5 -16.5v-191h130q99 0 138 -26t39 -109q0 -92 -39.5 -123t-142.5 -31q-71 0 -144 8q-19 2 -25 8t-6 19v417zM286 231h-146v-188q49 -6 125 -6q84 0 107 19t23 87q0 53 -20.5 70.5t-88.5 17.5z" />
    <glyph glyph-name="afii10093" unicode="&#x44b;" horiz-adv-x="652" 
d="M557 0q-16 0 -20.5 3.5t-4.5 16.5v450q0 13 4.5 16.5t20.5 3.5t20.5 -3.5t4.5 -16.5v-450q0 -13 -4.5 -16.5t-20.5 -3.5zM245 -10q-71 0 -144 8q-19 2 -25 8t-6 19v445q0 13 4.5 16.5t20.5 3.5t20.5 -3.5t4.5 -16.5v-191h130q99 0 138 -26t39 -109q0 -92 -39.5 -123
t-142.5 -31zM266 231h-146v-188q50 -6 125 -6q84 0 107 19t23 87q0 53 -20.5 70.5t-88.5 17.5z" />
    <glyph glyph-name="afii10094" unicode="&#x44c;" horiz-adv-x="467" 
d="M245 -10q-71 0 -144 8q-19 2 -25 8t-6 19v445q0 13 4.5 16.5t20.5 3.5t20.5 -3.5t4.5 -16.5v-191h130q99 0 138 -26t39 -109q0 -92 -39.5 -123t-142.5 -31zM266 231h-146v-188q50 -6 125 -6q84 0 107 19t23 87q0 53 -20.5 70.5t-88.5 17.5z" />
    <glyph glyph-name="afii10095" unicode="&#x44d;" horiz-adv-x="426" 
d="M177 -10q-65 0 -124 22q-14 5 -18.5 10t-4.5 18q0 20 9 20q1 0 48.5 -12t87.5 -12q90 0 113.5 34t24.5 161h-184q-12 0 -16 4.5t-4 19.5t4 19.5t16 4.5h184q-1 115 -22 146t-91 31q-33 0 -69.5 -4.5t-60 -9t-26.5 -4.5q-4 0 -6 1t-3.5 5.5t-1.5 13.5q0 14 4.5 19t18.5 8
q71 15 136 15q36 0 57 -2.5t43.5 -11t34 -25.5t22 -46t14 -72t3.5 -104q0 -109 -20 -163t-57 -70t-112 -16z" />
    <glyph glyph-name="afii10096" unicode="&#x44e;" horiz-adv-x="662" 
d="M408 -10q-55 0 -86.5 9t-53.5 36t-30 73t-8 123h-110v-211q0 -13 -4.5 -16.5t-20.5 -3.5t-20.5 3.5t-4.5 16.5v450q0 13 4.5 16.5t20.5 3.5t20.5 -3.5t4.5 -16.5v-191h111q5 125 49 173t144 48q73 0 109.5 -19t52.5 -71.5t16 -159.5q0 -148 -43.5 -204t-150.5 -56z
M409 35q87 0 114 39.5t27 165.5q0 139 -21.5 177t-106.5 38q-86 0 -113 -39.5t-27 -165.5q0 -139 21 -177t106 -38z" />
    <glyph glyph-name="afii10097" unicode="&#x44f;" horiz-adv-x="491" 
d="M74 0q-25 0 -25 11q0 5 7 17l104 187q-51 9 -73.5 38t-22.5 93q0 92 39.5 123t142.5 31q71 0 144 -8q19 -2 25 -8t6 -19v-445q0 -13 -4.5 -16.5t-20.5 -3.5t-20.5 3.5t-4.5 16.5v191h-161l-104 -199q-6 -12 -32 -12zM116 347q0 -53 20.5 -70.5t88.5 -17.5h146v188
q-50 6 -125 6q-84 0 -107 -19t-23 -87z" />
    <glyph glyph-name="afii10071" unicode="&#x451;" 
d="M248 -10q-46 0 -74.5 5t-52.5 19t-36 42.5t-18.5 72t-6.5 110.5q0 71 9.5 120.5t24.5 77t41 42t50 18t61 3.5q45 0 75.5 -10t48 -26.5t26.5 -48.5t11.5 -63.5t2.5 -84.5q0 -17 -5.5 -24.5t-22.5 -7.5h-269q0 -130 24 -164.5t119 -34.5q34 0 65 6t50 12t24 6q9 0 9 -20
q0 -13 -4.5 -18t-18.5 -10q-59 -22 -133 -22zM244 456q-50 0 -75 -12t-39.5 -50.5t-16.5 -115.5h245q0 38 -0.5 55.5t-3.5 43t-10 36t-19.5 23t-32.5 16.5t-48 4zM166 584q-18 0 -23.5 3.5t-5.5 16.5v26q0 13 5.5 16.5t23.5 3.5t23.5 -3.5t5.5 -16.5v-26q0 -13 -5.5 -16.5
t-23.5 -3.5zM293 584q-18 0 -23.5 3.5t-5.5 16.5v26q0 13 5.5 16.5t23.5 3.5t23.5 -3.5t5.5 -16.5v-26q0 -13 -5.5 -16.5t-23.5 -3.5z" />
    <glyph glyph-name="afii10099" unicode="&#x452;" horiz-adv-x="494" 
d="M329 -190q-31 0 -57 8q-10 3 -13.5 4.5t-6.5 6t-3 11.5q0 13 2.5 17t10.5 4q2 0 23 -3t39 -3q32 0 41 14t9 71v405q0 52 -19.5 71t-79.5 19q-83 0 -117 -41.5t-34 -133.5v-240q0 -13 -4.5 -16.5t-20.5 -3.5t-20.5 3.5t-4.5 16.5v522h-44q-12 0 -16 4.5t-4 17.5t4 17.5
t16 4.5h44v44q0 13 4.5 16.5t20.5 3.5t20.5 -3.5t4.5 -16.5v-44h131q12 0 16 -4.5t4 -17.5t-4 -17.5t-16 -4.5h-131v-144q19 44 59 63t107 19q79 0 106.5 -30.5t27.5 -94.5v-425q0 -64 -20.5 -92t-74.5 -28z" />
    <glyph glyph-name="afii10100" unicode="&#x453;" horiz-adv-x="330" 
d="M155 540q-19 0 -19 10q0 5 7 18l60 105q7 13 33 13q29 0 29 -10q0 -8 -8 -19l-70 -103q-4 -6 -6.5 -8.5t-8.5 -4t-17 -1.5zM95 0q-16 0 -20.5 4t-4.5 16v450q0 12 4.5 16t20.5 4h205q12 0 16 -4.5t4 -19.5t-4 -19.5t-16 -4.5h-180v-422q0 -12 -4.5 -16t-20.5 -4z" />
    <glyph glyph-name="afii10101" unicode="&#x454;" horiz-adv-x="426" 
d="M317 255q0 -15 -4 -19.5t-16 -4.5h-184q1 -127 24 -161t114 -34q40 0 87.5 12t48.5 12q9 0 9 -20q0 -13 -4.5 -18t-18.5 -10q-59 -22 -124 -22q-75 0 -112 16t-57 70t-20 163q0 61 3.5 104t14 72t22 46t34 25.5t43.5 11t57 2.5q65 0 136 -15q14 -3 18.5 -8t4.5 -19
q0 -13 -2.5 -16.5t-8.5 -3.5q-3 0 -26.5 4.5t-60 9t-69.5 4.5q-49 0 -71 -12.5t-31.5 -48.5t-10.5 -116h184q12 0 16 -4.5t4 -19.5z" />
    <glyph glyph-name="afii10102" unicode="&#x455;" horiz-adv-x="421" 
d="M196 -10q-66 0 -123 18q-14 5 -18.5 9.5t-4.5 17.5q0 21 9 21q1 0 47.5 -10t88.5 -10q68 0 96.5 24t28.5 75q0 28 -10 43t-33 24l-151 63q-65 28 -65 112q0 69 38.5 96t106.5 27q62 0 127 -17q14 -4 18.5 -9t4.5 -19q0 -13 -2.5 -16.5t-8.5 -3.5q-4 0 -25.5 5.5t-53 10.5
t-59.5 5q-55 0 -75 -17.5t-20 -58.5q0 -31 9 -47t35 -27l147 -60q37 -15 52.5 -39.5t15.5 -66.5q0 -150 -175 -150z" />
    <glyph glyph-name="afii10103" unicode="&#x456;" horiz-adv-x="195" 
d="M95 0q-16 0 -20.5 3.5t-4.5 16.5v450q0 13 4.5 16.5t20.5 3.5t20.5 -3.5t4.5 -16.5v-450q0 -13 -4.5 -16.5t-20.5 -3.5zM95 584q-18 0 -24 4t-6 16v26q0 12 6 16t24 4t24 -4t6 -16v-26q0 -12 -6 -16t-24 -4z" />
    <glyph glyph-name="afii10104" unicode="&#x457;" horiz-adv-x="195" 
d="M34 584q-18 0 -23.5 3.5t-5.5 16.5v26q0 13 5.5 16.5t23.5 3.5t23.5 -3.5t5.5 -16.5v-26q0 -13 -5.5 -16.5t-23.5 -3.5zM161 584q-18 0 -23.5 3.5t-5.5 16.5v26q0 13 5.5 16.5t23.5 3.5t23.5 -3.5t5.5 -16.5v-26q0 -13 -5.5 -16.5t-23.5 -3.5zM95 0q-16 0 -20.5 3.5
t-4.5 16.5v450q0 13 4.5 16.5t20.5 3.5t20.5 -3.5t4.5 -16.5v-450q0 -13 -4.5 -16.5t-20.5 -3.5z" />
    <glyph glyph-name="afii10105" unicode="&#x458;" horiz-adv-x="195" 
d="M95 490q16 0 20.5 -3.5t4.5 -16.5v-540q0 -64 -20.5 -92t-74.5 -28q-31 0 -57 8q-10 3 -13.5 4.5t-6.5 6t-3 11.5q0 13 2.5 17t10.5 4q2 0 23 -3t39 -3q32 0 41 14t9 71v530q0 13 4.5 16.5t20.5 3.5zM95 584q-18 0 -24 4t-6 16v26q0 12 6 16t24 4t24 -4t6 -16v-26
q0 -12 -6 -16t-24 -4z" />
    <glyph glyph-name="afii10106" unicode="&#x459;" horiz-adv-x="771" 
d="M77 -10q-22 0 -44 5q-13 3 -18 7.5t-5 15.5q0 13 2.5 17t10.5 4q6 0 20 -2t25 -2q20 0 26 9.5t10 44.5l38 381q1 12 5 16t20 4h237q16 0 20.5 -4t4.5 -16v-191h125q99 0 138 -26t39 -109q0 -92 -39.5 -123t-142.5 -31q-66 0 -139 8q-19 2 -25 8t-6 19v417h-189l-37 -366
q-2 -22 -5 -34.5t-10.5 -26t-22.5 -19.5t-38 -6zM570 231h-141v-188q49 -6 120 -6q84 0 107 19t23 87q0 53 -20.5 70.5t-88.5 17.5z" />
    <glyph glyph-name="afii10107" unicode="&#x45a;" horiz-adv-x="752" 
d="M385 490q16 0 20.5 -4t4.5 -16v-191h125q99 0 138 -26t39 -109q0 -92 -39.5 -123t-142.5 -31q-66 0 -139 8q-19 2 -25 8t-6 19v206h-240v-211q0 -12 -4.5 -16t-20.5 -4t-20.5 4t-4.5 16v450q0 12 4.5 16t20.5 4t20.5 -4t4.5 -16v-191h240v191q0 12 4.5 16t20.5 4z
M551 231h-141v-188q50 -6 120 -6q84 0 107 19t23 87q0 53 -20.5 70.5t-88.5 17.5z" />
    <glyph glyph-name="afii10108" unicode="&#x45b;" horiz-adv-x="494" 
d="M399 0q-16 0 -20.5 3.5t-4.5 16.5v325q0 52 -19.5 71t-79.5 19q-83 0 -117 -41.5t-34 -133.5v-240q0 -13 -4.5 -16.5t-20.5 -3.5t-20.5 3.5t-4.5 16.5v522h-44q-12 0 -16 4.5t-4 17.5t4 17.5t16 4.5h44v44q0 13 4.5 16.5t20.5 3.5t20.5 -3.5t4.5 -16.5v-44h131
q12 0 16 -4.5t4 -17.5t-4 -17.5t-16 -4.5h-131v-144q19 44 59 63t107 19q79 0 106.5 -30.5t27.5 -94.5v-335q0 -13 -4.5 -16.5t-20.5 -3.5z" />
    <glyph glyph-name="afii10109" unicode="&#x45c;" horiz-adv-x="403" 
d="M179 540q-19 0 -19 10q0 5 7 18l60 105q7 13 33 13q29 0 29 -10q0 -8 -8 -19l-70 -103q-4 -6 -6.5 -8.5t-8.5 -4t-17 -1.5zM95 0q-16 0 -20.5 3.5t-4.5 16.5v450q0 13 4.5 16.5t20.5 3.5t20.5 -3.5t4.5 -16.5v-195h7l191 202q12 13 36 13t24 -10q0 -8 -14 -22l-192 -202
l204 -225q12 -14 12 -21q0 -10 -25 -10q-15 0 -20.5 2t-13.5 11l-203 223h-6v-216q0 -13 -4.5 -16.5t-20.5 -3.5z" />
    <glyph glyph-name="afii10110" unicode="&#x45e;" horiz-adv-x="437" 
d="M30 475q0 8 5 11.5t21 3.5q24 0 27 -12l135 -430h4l132 430q3 12 27 12q27 0 27 -14q0 -8 -7 -28l-164 -504q-11 -35 -17 -50t-16 -35.5t-20 -28.5t-26 -14t-37 -6q-38 0 -64 7q-23 6 -23 23q0 14 2.5 17.5t10.5 3.5q2 0 24 -3t45 -3q29 0 42 13t26 56l24 77
q-22 5 -35 43l-131 387q-12 35 -12 44zM218 560q-59 0 -74.5 16.5t-15.5 59.5q0 13 4 16.5t19 3.5t19 -3.5t4 -16.5q0 -24 7 -30t37 -6t37 6t7 30q0 13 4 16.5t19 3.5t19 -3.5t4 -16.5q0 -43 -15.5 -59.5t-74.5 -16.5z" />
    <glyph glyph-name="afii10193" unicode="&#x45f;" horiz-adv-x="458" 
d="M229 -113q-14 0 -17.5 2.5t-3.5 11.5l-4 99h-109q-16 0 -20.5 4t-4.5 16v450q0 12 4.5 16t20.5 4t20.5 -4t4.5 -16v-422h218v422q0 12 4.5 16t20.5 4t20.5 -4t4.5 -16v-450q0 -12 -4.5 -16t-20.5 -4h-109l-4 -99q0 -9 -3.5 -11.5t-17.5 -2.5z" />
    <glyph glyph-name="afii10050" unicode="&#x490;" horiz-adv-x="400" 
d="M362 723q11 0 14.5 -2t3.5 -9v-126q0 -15 -4 -19.5t-16 -4.5h-240v-542q0 -12 -4.5 -16t-20.5 -4t-20.5 4t-4.5 16v570q0 12 4.5 16t20.5 4h233l11 102q1 11 23 11z" />
    <glyph glyph-name="afii10098" unicode="&#x491;" horiz-adv-x="340" 
d="M302 603q11 0 14.5 -2t3.5 -9v-126q0 -15 -4 -19.5t-16 -4.5h-180v-422q0 -12 -4.5 -16t-20.5 -4t-20.5 4t-4.5 16v450q0 12 4.5 16t20.5 4h173l11 102q1 11 23 11z" />
    <glyph glyph-name="Wgrave" unicode="&#x1e80;" horiz-adv-x="788" 
d="M210 0q-27 0 -35 3.5t-12 16.5l-141 562q-2 10 -2 15q0 13 24 13q25 0 28 -12l132 -550h12l130 532q3 12 13.5 16t34.5 4t34.5 -4t13.5 -16l130 -532h12l132 550q3 12 28 12q24 0 24 -13q0 -5 -2 -15l-141 -562q-4 -13 -12 -16.5t-35 -3.5t-35 3.5t-12 16.5l-132 528h-10
l-132 -528q-4 -13 -12 -16.5t-35 -3.5zM393 655q-15 0 -20.5 3t-11.5 11l-70 103q-8 11 -8 19q0 10 29 10q26 0 33 -13l60 -105q7 -13 7 -18q0 -10 -19 -10z" />
    <glyph glyph-name="wgrave" unicode="&#x1e81;" horiz-adv-x="689" 
d="M188 0q-21 0 -30.5 3.5t-13.5 16.5l-108 425q-6 24 -6 30q0 15 24 15q18 0 23.5 -4t9.5 -19l99 -421h10l103 404q5 18 13.5 24t32.5 6q23 0 31.5 -6t13.5 -24l103 -404h10l99 421q4 15 9.5 19t23.5 4q24 0 24 -15q0 -6 -6 -30l-108 -425q-4 -13 -13.5 -16.5t-30.5 -3.5
q-25 0 -37 3.5t-15 16.5l-102 403h-5l-102 -403q-3 -13 -15 -16.5t-37 -3.5zM366 540q-15 0 -20.5 3t-11.5 11l-70 103q-8 11 -8 19q0 10 29 10q26 0 33 -13l60 -105q7 -13 7 -18q0 -10 -19 -10z" />
    <glyph glyph-name="Wacute" unicode="&#x1e82;" horiz-adv-x="788" 
d="M210 0q-27 0 -35 3.5t-12 16.5l-141 562q-2 10 -2 15q0 13 24 13q25 0 28 -12l132 -550h12l130 532q3 12 13.5 16t34.5 4t34.5 -4t13.5 -16l130 -532h12l132 550q3 12 28 12q24 0 24 -13q0 -5 -2 -15l-141 -562q-4 -13 -12 -16.5t-35 -3.5t-35 3.5t-12 16.5l-132 528h-10
l-132 -528q-4 -13 -12 -16.5t-35 -3.5zM395 655q-19 0 -19 10q0 5 7 18l60 105q7 13 33 13q29 0 29 -10q0 -8 -8 -19l-70 -103q-4 -6 -6.5 -8.5t-8.5 -4t-17 -1.5z" />
    <glyph glyph-name="wacute" unicode="&#x1e83;" horiz-adv-x="689" 
d="M188 0q-21 0 -30.5 3.5t-13.5 16.5l-108 425q-6 24 -6 30q0 15 24 15q18 0 23.5 -4t9.5 -19l99 -421h10l103 404q5 18 13.5 24t32.5 6q23 0 31.5 -6t13.5 -24l103 -404h10l99 421q4 15 9.5 19t23.5 4q24 0 24 -15q0 -6 -6 -30l-108 -425q-4 -13 -13.5 -16.5t-30.5 -3.5
q-25 0 -37 3.5t-15 16.5l-102 403h-5l-102 -403q-3 -13 -15 -16.5t-37 -3.5zM325 540q-19 0 -19 10q0 5 7 18l60 105q7 13 33 13q29 0 29 -10q0 -8 -8 -19l-70 -103q-4 -6 -6.5 -8.5t-8.5 -4t-17 -1.5z" />
    <glyph glyph-name="Wdieresis" unicode="&#x1e84;" horiz-adv-x="788" 
d="M210 0q-27 0 -35 3.5t-12 16.5l-141 562q-2 10 -2 15q0 13 24 13q25 0 28 -12l132 -550h12l130 532q3 12 13.5 16t34.5 4t34.5 -4t13.5 -16l130 -532h12l132 550q3 12 28 12q24 0 24 -13q0 -5 -2 -15l-141 -562q-4 -13 -12 -16.5t-35 -3.5t-35 3.5t-12 16.5l-132 528h-10
l-132 -528q-4 -13 -12 -16.5t-35 -3.5zM331 704q-18 0 -23.5 3.5t-5.5 16.5v26q0 13 5.5 16.5t23.5 3.5t23.5 -3.5t5.5 -16.5v-26q0 -13 -5.5 -16.5t-23.5 -3.5zM458 704q-18 0 -23.5 3.5t-5.5 16.5v26q0 13 5.5 16.5t23.5 3.5t23.5 -3.5t5.5 -16.5v-26q0 -13 -5.5 -16.5
t-23.5 -3.5z" />
    <glyph glyph-name="wdieresis" unicode="&#x1e85;" horiz-adv-x="689" 
d="M188 0q-21 0 -30.5 3.5t-13.5 16.5l-108 425q-6 24 -6 30q0 15 24 15q18 0 23.5 -4t9.5 -19l99 -421h10l103 404q5 18 13.5 24t32.5 6q23 0 31.5 -6t13.5 -24l103 -404h10l99 421q4 15 9.5 19t23.5 4q24 0 24 -15q0 -6 -6 -30l-108 -425q-4 -13 -13.5 -16.5t-30.5 -3.5
q-25 0 -37 3.5t-15 16.5l-102 403h-5l-102 -403q-3 -13 -15 -16.5t-37 -3.5zM282 584q-18 0 -23.5 3.5t-5.5 16.5v26q0 13 5.5 16.5t23.5 3.5t23.5 -3.5t5.5 -16.5v-26q0 -13 -5.5 -16.5t-23.5 -3.5zM409 584q-18 0 -23.5 3.5t-5.5 16.5v26q0 13 5.5 16.5t23.5 3.5
t23.5 -3.5t5.5 -16.5v-26q0 -13 -5.5 -16.5t-23.5 -3.5z" />
    <glyph glyph-name="Eszett" unicode="&#x1e9e;" horiz-adv-x="497" 
d="M95 0q-16 0 -20.5 4t-4.5 16v477q0 63 37.5 93t130.5 30q74 0 138 -20q36 -11 36 -38q0 -15 -12 -37l-111 -189l102 -88q26 -22 37 -34t20 -33.5t9 -49.5q0 -73 -37 -107t-117 -34q-50 0 -104 15q-14 4 -18.5 8.5t-4.5 17.5q0 21 9 21q1 0 42.5 -8t73.5 -8q65 0 85 21.5
t20 72.5q0 25 -8 39.5t-27 31.5l-100 86q-31 28 -31 47q0 15 16 42l104 177q-42 17 -122 17q-53 0 -79.5 -9.5t-32.5 -23t-6 -40.5v-477q0 -12 -4.5 -16t-20.5 -4z" />
    <glyph glyph-name="Ygrave" unicode="&#x1ef2;" horiz-adv-x="436" 
d="M218 0q-16 0 -20.5 4t-4.5 16v224l-167 335q-6 12 -6 18q0 13 25 13q27 0 33 -12l138 -296h4l138 296q6 12 33 12q25 0 25 -13q0 -6 -6 -18l-167 -335v-224q0 -12 -4.5 -16t-20.5 -4zM242 655q-15 0 -20.5 3t-11.5 11l-70 103q-8 11 -8 19q0 10 29 10q26 0 33 -13
l60 -105q7 -13 7 -18q0 -10 -19 -10z" />
    <glyph glyph-name="ygrave" unicode="&#x1ef3;" horiz-adv-x="437" 
d="M30 475q0 8 5 11.5t21 3.5q24 0 27 -12l135 -430h4l132 430q3 12 27 12q27 0 27 -14q0 -8 -7 -28l-164 -504q-11 -35 -17 -50t-16 -35.5t-20 -28.5t-26 -14t-37 -6q-38 0 -64 7q-23 6 -23 23q0 14 2.5 17.5t10.5 3.5q2 0 24 -3t45 -3q29 0 42 13t26 56l24 77
q-22 5 -35 43l-131 387q-12 35 -12 44zM241 540q-15 0 -20.5 3t-11.5 11l-70 103q-8 11 -8 19q0 10 29 10q26 0 33 -13l60 -105q7 -13 7 -18q0 -10 -19 -10z" />
    <glyph glyph-name="endash" unicode="&#x2013;" horiz-adv-x="414" 
d="M42 270q0 15 4 19.5t16 4.5h290q12 0 16 -4.5t4 -19.5t-4 -19.5t-16 -4.5h-290q-12 0 -16 4.5t-4 19.5z" />
    <glyph glyph-name="emdash" unicode="&#x2014;" horiz-adv-x="660" 
d="M42 270q0 15 4 19.5t16 4.5h536q12 0 16 -4.5t4 -19.5t-4 -19.5t-16 -4.5h-536q-12 0 -16 4.5t-4 19.5z" />
    <glyph glyph-name="afii00208" unicode="&#x2015;" horiz-adv-x="660" 
d="M42 270q0 15 4 19.5t16 4.5h536q12 0 16 -4.5t4 -19.5t-4 -19.5t-16 -4.5h-536q-12 0 -16 4.5t-4 19.5z" />
    <glyph glyph-name="quoteleft" unicode="&#x2018;" horiz-adv-x="188" 
d="M87 453q-17 0 -22 4t-5 16v28q0 30 9 66l18 69q4 14 23 14q11 0 14.5 -2t3.5 -9q0 -4 -7 -48t-7 -76v-42q0 -12 -5 -16t-22 -4z" />
    <glyph glyph-name="quoteright" unicode="&#x2019;" horiz-adv-x="188" 
d="M101 650q17 0 22 -4t5 -16v-28q0 -30 -9 -66l-18 -69q-4 -14 -23 -14q-11 0 -14.5 2t-3.5 9q0 4 7 48t7 76v42q0 12 5 16t22 4z" />
    <glyph glyph-name="quotesinglbase" unicode="&#x201a;" horiz-adv-x="138" 
d="M61 66q17 0 22 -4t5 -16v-28q0 -30 -9 -66l-18 -69q-4 -14 -23 -14q-11 0 -14.5 2t-3.5 9q0 4 7 48t7 76v42q0 12 5 16t22 4z" />
    <glyph glyph-name="quotedblleft" unicode="&#x201c;" horiz-adv-x="318" 
d="M87 453q-17 0 -22 4t-5 16v28q0 30 9 66l18 69q4 14 23 14q11 0 14.5 -2t3.5 -9q0 -4 -7 -48t-7 -76v-42q0 -12 -5 -16t-22 -4zM217 453q-17 0 -22 4t-5 16v28q0 30 9 66l18 69q4 14 23 14q11 0 14.5 -2t3.5 -9q0 -4 -7 -48t-7 -76v-42q0 -12 -5 -16t-22 -4z" />
    <glyph glyph-name="quotedblright" unicode="&#x201d;" horiz-adv-x="318" 
d="M231 650q17 0 22 -4t5 -16v-28q0 -30 -9 -66l-18 -69q-4 -14 -23 -14q-11 0 -14.5 2t-3.5 9q0 4 7 48t7 76v42q0 12 5 16t22 4zM101 650q17 0 22 -4t5 -16v-28q0 -30 -9 -66l-18 -69q-4 -14 -23 -14q-11 0 -14.5 2t-3.5 9q0 4 7 48t7 76v42q0 12 5 16t22 4z" />
    <glyph glyph-name="quotedblbase" unicode="&#x201e;" horiz-adv-x="268" 
d="M191 66q17 0 22 -4t5 -16v-28q0 -30 -9 -66l-18 -69q-4 -14 -23 -14q-11 0 -14.5 2t-3.5 9q0 4 7 48t7 76v42q0 12 5 16t22 4zM61 66q17 0 22 -4t5 -16v-28q0 -30 -9 -66l-18 -69q-4 -14 -23 -14q-11 0 -14.5 2t-3.5 9q0 4 7 48t7 76v42q0 12 5 16t22 4z" />
    <glyph glyph-name="dagger" unicode="&#x2020;" horiz-adv-x="414" 
d="M30 367q0 14 4 18.5t16 4.5h132v159q0 13 4.5 16.5t20.5 3.5t20.5 -3.5t4.5 -16.5v-159h132q12 0 16 -4.5t4 -18.5t-4 -18t-16 -4h-132v-515q0 -13 -4.5 -16.5t-20.5 -3.5t-20.5 3.5t-4.5 16.5v515h-132q-12 0 -16 4t-4 18z" />
    <glyph glyph-name="daggerdbl" unicode="&#x2021;" horiz-adv-x="414" 
d="M384 12q0 -14 -4 -18.5t-16 -4.5h-132v-159q0 -13 -4.5 -16.5t-20.5 -3.5t-20.5 3.5t-4.5 16.5v159h-132q-12 0 -16 4.5t-4 18.5t4 18t16 4h132v311h-132q-12 0 -16 4t-4 18t4 18.5t16 4.5h132v159q0 13 4.5 16.5t20.5 3.5t20.5 -3.5t4.5 -16.5v-159h132q12 0 16 -4.5
t4 -18.5t-4 -18t-16 -4h-132v-311h132q12 0 16 -4t4 -18z" />
    <glyph glyph-name="bullet" unicode="&#x2022;" horiz-adv-x="253" 
d="M126 178q-55 0 -75.5 20.5t-20.5 79.5q0 60 20 78.5t76 18.5q57 0 77 -18.5t20 -78.5q0 -59 -20.5 -79.5t-76.5 -20.5z" />
    <glyph glyph-name="ellipsis" unicode="&#x2026;" horiz-adv-x="510" 
d="M80 0q-18 0 -24 4t-6 16v26q0 12 6 16t24 4t24 -4t6 -16v-26q0 -12 -6 -16t-24 -4zM255 0q-18 0 -24 4t-6 16v26q0 12 6 16t24 4t24 -4t6 -16v-26q0 -12 -6 -16t-24 -4zM430 0q-18 0 -24 4t-6 16v26q0 12 6 16t24 4t24 -4t6 -16v-26q0 -12 -6 -16t-24 -4z" />
    <glyph glyph-name="perthousand" unicode="&#x2030;" horiz-adv-x="719" 
d="M50 0q-19 0 -19 11q0 7 6 18l335 567q8 14 31 14q19 0 19 -11q0 -7 -6 -18l-335 -567q-8 -14 -31 -14zM125 356q-65 0 -84.5 25.5t-19.5 101.5t19.5 101.5t84.5 25.5t84.5 -25.5t19.5 -101.5t-19.5 -101.5t-84.5 -25.5zM125 396q38 0 47 15.5t9 71.5t-9 71.5t-47 15.5
t-47 -15.5t-9 -71.5t9 -71.5t47 -15.5zM334 0q-65 0 -84.5 25.5t-19.5 101.5t19.5 101.5t84.5 25.5t84.5 -25.5t19.5 -101.5t-19.5 -101.5t-84.5 -25.5zM334 40q38 0 47 15.5t9 71.5t-9 71.5t-47 15.5t-47 -15.5t-9 -71.5t9 -71.5t47 -15.5zM594 0q-65 0 -84.5 25.5
t-19.5 101.5t19.5 101.5t84.5 25.5t84.5 -25.5t19.5 -101.5t-19.5 -101.5t-84.5 -25.5zM594 40q38 0 47 15.5t9 71.5t-9 71.5t-47 15.5t-47 -15.5t-9 -71.5t9 -71.5t47 -15.5z" />
    <glyph glyph-name="guilsinglleft" unicode="&#x2039;" horiz-adv-x="315" 
d="M95 256v-8l164 -123q16 -12 16 -36q0 -25 -10 -25q-6 0 -21 11l-184 132q-12 9 -16 17.5t-4 27.5t4 27.5t16 17.5l184 132q15 11 21 11q10 0 10 -25q0 -24 -16 -36z" />
    <glyph glyph-name="guilsinglright" unicode="&#x203a;" horiz-adv-x="315" 
d="M275 252q0 -19 -4 -27.5t-16 -17.5l-184 -132q-15 -11 -21 -11q-10 0 -10 25q0 24 16 36l164 123v8l-164 123q-16 12 -16 36q0 25 10 25q6 0 21 -11l184 -132q12 -9 16 -17.5t4 -27.5z" />
    <glyph glyph-name="fraction" unicode="&#x2044;" 
d="M341 615q20 0 20 -11q0 -3 -5 -18l-217 -572q-5 -14 -26 -14q-20 0 -20 11q0 3 5 18l217 572q5 14 26 14z" />
    <glyph glyph-name="Euro" unicode="&#x20ac;" 
d="M322 385q0 -8 -7 -27q-2 -7 -9 -7h-184v-75h171q7 0 7 -6q0 -8 -7 -27q-2 -7 -9 -7h-162q2 -71 8.5 -110.5t26.5 -60t44 -25.5t71 -5q32 0 62.5 5.5t48.5 10.5t21 5q8 0 10.5 -3.5t2.5 -17.5q0 -13 -5 -17.5t-19 -8.5q-65 -19 -129 -19q-37 0 -58 2t-46 9.5t-38 23
t-25.5 42.5t-18 68.5t-6.5 100.5h-50q-7 0 -7 6q0 8 7 27q2 7 9 7h41v75h-50q-7 0 -7 6q0 8 7 27q2 7 9 7h42q2 52 7.5 88.5t17 61.5t24.5 39.5t36.5 22.5t46.5 10t60 2q63 0 128 -19q14 -4 19 -8.5t5 -17.5q0 -14 -2.5 -17.5t-10.5 -3.5q-3 0 -22 5.5t-49.5 10.5t-60.5 5
q-49 0 -73 -4t-43 -23t-25.5 -53.5t-8.5 -98.5h193q7 0 7 -6z" />
    <glyph glyph-name="hryvnia" unicode="&#x20b4;" 
d="M60 352q0 15 4 19.5t16 4.5h161l51 58q52 60 52 93q0 23 -22.5 32t-85.5 9q-37 0 -73.5 -5t-58.5 -10.5t-25 -5.5q-8 0 -10.5 4t-2.5 18q0 20 19 25q68 21 151 21q37 0 62 -3t49.5 -11.5t36.5 -27.5t12 -48q0 -33 -20.5 -64.5t-73.5 -84.5h83q12 0 16 -4.5t4 -19.5
t-4 -19.5t-16 -4.5h-124l-48 -55h172q12 0 16 -4.5t4 -19.5t-4 -19.5t-16 -4.5h-213q-44 -51 -57.5 -73.5t-13.5 -51.5q0 -38 31.5 -50.5t98.5 -12.5q38 0 76 4.5t62.5 9t29.5 4.5t7 -0.5t3.5 -5t1.5 -14.5q0 -21 -18 -25q-78 -20 -176 -20q-31 0 -52.5 2t-45 8t-37.5 18
t-23.5 32.5t-9.5 49.5q0 34 13.5 62t45.5 63h-28q-12 0 -16 4.5t-4 19.5t4 19.5t16 4.5h71l48 55h-119q-12 0 -16 4.5t-4 19.5z" />
    <glyph glyph-name="afii61352" unicode="&#x2116;" horiz-adv-x="901" 
d="M577 150q0 15 4 19.5t16 4.5h207q12 0 16 -4.5t4 -19.5t-4 -19.5t-16 -4.5h-207q-12 0 -16 4.5t-4 19.5zM698 255q-36 0 -56 4.5t-41 20.5t-30 53t-9 97q0 63 9 100.5t30.5 56t45.5 23.5t66 5q36 0 56 -4.5t41 -20.5t30 -53t9 -97q0 -63 -9 -100.5t-30.5 -56t-45.5 -23.5
t-66 -5zM699 296q31 0 48 4t30.5 17.5t18.5 40t5 72.5q0 94 -18 119t-71 25q-42 0 -61 -7.5t-30 -36.5t-11 -90q0 -94 18 -119t71 -25zM103 0q-16 0 -20.5 4t-4.5 16v570q0 12 9 16t41 4q30 0 39.5 -3.5t15.5 -16.5l229 -540h10v540q0 12 4.5 16t20.5 4t20.5 -4t4.5 -16
v-570q0 -12 -9 -16t-41 -4q-30 0 -39.5 3.5t-15.5 16.5l-229 540h-10v-540q0 -12 -4.5 -16t-20.5 -4z" />
    <glyph glyph-name="trademark" unicode="&#x2122;" horiz-adv-x="672" 
d="M149 306q-14 0 -18 4t-4 16v242h-77q-12 0 -16 3.5t-4 17.5t4 17.5t16 3.5h198q12 0 16 -3.5t4 -17.5t-4 -17.5t-16 -3.5h-77v-242q0 -12 -4 -16t-18 -4zM344 300q-14 0 -18 4t-4 16v270q0 12 7.5 16t39.5 4q26 0 34.5 -5t15.5 -25l63 -191l63 191q7 20 15.5 25t34.5 5
q32 0 39.5 -4t7.5 -16v-270q0 -12 -4 -16t-18 -4t-18 4t-4 16v246h-9l-76 -219q-4 -13 -10 -16.5t-21 -3.5t-21 3.5t-10 16.5l-76 219h-9v-246q0 -12 -4 -16t-18 -4z" />
    <glyph glyph-name="minus" unicode="&#x2212;" 
d="M107 270q0 15 4 19.5t16 4.5h206q12 0 16 -4.5t4 -19.5t-4 -19.5t-16 -4.5h-206q-12 0 -16 4.5t-4 19.5z" />
    <glyph glyph-name="ruble" 
d="M18 181q0 15 4 19.5t16 4.5h46v58h-46q-12 0 -16 4.5t-4 19.5t4 19.5t16 4.5h46v269q0 22 25 26q69 9 124 9q61 0 92.5 -4.5t54.5 -21.5t30 -47.5t7 -85.5q0 -104 -37 -148.5t-147 -44.5h-99v-58h189q12 0 16 -4.5t4 -19.5t-4 -19.5t-16 -4.5h-189v-137q0 -12 -4.5 -16
t-20.5 -4t-20.5 4t-4.5 16v137h-46q-12 0 -16 4.5t-4 19.5zM134 562v-251h99q81 0 105.5 29t24.5 116q0 41 -2.5 59t-16 32.5t-38 17.5t-73.5 3q-45 0 -99 -6z" />
    </font>
</defs>
</svg>
